<svg xmlns="http://www.w3.org/2000/svg" viewBox="0 0 512 512"><path fill="#0384fb" d="M330.6 311v-.3l-.3-.3-.4-.4-.4-.3-.2-.2-.4-.3-.2-.1-.2-.2-.2-.1-.2-.2-.1-.1-.2-.2-.2-.1-.2-.2-.2-.1-.2-.2-.4-.3-.2-.2-.3-.3-.2-.1-.2-.2-.4-.3-.4-.3-.2-.2-.2-.1-.1-.1-.1-.1-.3-.1-.3.3-.2.3-.1.2-.2.2-.1.2-.2.2-.1.2-.3.4-.2.2-.1.2-.2.2-.3.4-.1.2-.2.2-.1.2-.3.5-.2.2-.1.2-.2.2-.3.4-.1.2-.2.2-.1.2-.4.4-.3.4-.3.4-.1.2-.4.4-.1.2-.3.4-.2.2-.3.4-.3.4-.2.2-.3.4-.2.2-.3.5-.3.4-.2.2-.4.4-.3.4-.1.2-.3.4-.2.2-.4.4-.2.2-.3.4-.1.2-.4.4-.1.2-.2.2-.4.4-.4.4-.2.2-.3.5-.1.2-.4.4-.1.2-.4.4-.2.2-.6.6-.2.2-.3.4-.4.4-.3.4-.1.1-.3.4-.1.1-.2.2-.2.2-.1.2-.2.2-.4.4-.8.9-.4.4-.1.2-.6.6-.4.4-.4.4-.5.6-.2.2-.4.4-.2.2-.4.3-.4.3-.2.2-.3.4-.2.2-.2.2-.4.4-.4.5-.4.4-.1.1-.4.4-.2.2-.4.3-.2.2-.4.4-.3.4-.2.2-.4.3-.2.2-.4.3-.2.2-.4.4-.1.2-.4.4-.2.1-.4.4-.4.3-.2.2-.3.4-.4.3-.2.2-.4.4-.2.1-.4.4-.3.3-.2.2-.4.3-.2.2-.4.3-.2.2-.3.3-.4.4-.4.3-.2.1-.2.2-.2.2-.4.3-.1.2-.2.1-.2.2-.4.3-.2.2-.4.3-.4.3-.1.2-.4.3-.2.1-.2.2-.2.2-.2.1-.4.3-.2.2-.3.3-.2.2-.2.1-.2.2-.2.1-.2.2-.4.3-.2.1-.1.2-.2.1-.4.4-.2.1-.2.2-.2.1-.2.2-.4.3-.1.1-.4.3-.2.1-.4.3-.2.2-.2.1-.4.3-.1.1-.4.3-.2.2-.2.1-.4.3-.2.2-.2.1-.3.3-.2.2-.2.1-.2.1-.4.3-.4.3-.2.1-.7.6-.4.2-1.5 1.1-.2.1-.4.3-.2.2-.4.2-.3.3-.4.2-.2.1-.4.3-.2.1-.4.3-.2.1-.3.3-.4.2-.2.2h-.2l-.2.2-.2.1-.4.3-.3.2-.4.3h-.2l-.4.3-.4.3-.2.1-.3.2-.2.2-.4.2-.4.3-.4.2h-.1l-.4.3-.4.3-.4.2-.2.1-.4.2-.3.3-.4.2-.2.1-.4.2-.2.1-.2.2-.3.2-.2.1-.2.1-.2.1-.4.2-.2.1-.2.1-.4.2-.1.2h-.2l-.4.3-.2.1-.2.2h-.2l-.4.3h-.2l-.1.2h-.2l-.2.2h-.2l-.2.2h-.2l-.4.3h-.2l-.2.2h-.1l-.2.2h-.2l-.4.3-.2.1h-.2l-.2.2h-.2l-.2.2h-.1l-.2.2-.2.1-.4.2-.2.1h-.2l-.2.2-.4.1-.1.1-.2.1-.2.1-.4.2-.2.1-.2.1-.2.1-.2.1-.3.2-.4.2-.4.2-.4.1-.2.1-.4.2-.3.2-.4.2-.4.1-.2.2-.4.1-.3.2h-.2l-.4.2-.4.2-.4.2h-.2l-.3.2-.4.2-.4.2h-.2l-.4.2-.2.1-.3.2-.4.1-.4.2h-.2l-.4.2h-.2l-.2.2h-.1l-.4.2h-.2l-.4.2-.2.1-.4.1-.2.1-.3.2-.4.1-.4.2-.4.1-.3.1-.2.1-.4.2h-.2l-.4.2-.4.2h-.3l-.4.2h-.2l-.4.2-.6.2-.2.1h-.1l-.2.1h-.2l-.4.2-.4.1h-.2l-.5.3h-.2l-.4.2h-.4l-.4.2-.4.1h-.1l-.4.2h-.2l-.2.1-.2.1-.4.1h-.2l-.2.1-.3.1h-.2l-.4.2h-.2l-.4.2h-.4l-.1.1-.4.1h-.2l-.4.2h-.4l-.2.1h-.2l-.3.2h-.4l-.2.1h-.2l-.2.1-.4.1h-.2l-.1.1h-.2l-.4.2h-.4l-.4.1-.4.1-.3.1h-.2l-.4.1-.2.1h-.4l-.2.1-.3.1h-.2l-.2.1h-.2l-.4.1h-.2l-.2.1h-.5l-.4.2h-.4l-.4.1h-.2l-.2.1h-.3l-.2.1h-.4l-.2.1h-.4l-.4.1h-.3l-.4.1h-.2l-.4.1h-.4l-.3.2h-.8l-.4.1h-.6l-.3.1h-.4l-.2.1h-.4l-.2.1h-1l-.2.1h-.4l-.2.1h-1.5l-.2.1h-.4l-.2.1h-2l-.2.1-.4.1h-9.4l-.2-.1h-1.5l-.4-.1h-.6l-.2-.1h-.9l-.4-.1h-.6l-.2-.1h-.5l-.4-.1h-.6l-.4-.2h-.7l-.4-.1h-.4l-.2-.1h-.3l-.4-.2h-1l-.4-.2h-.5l-.2-.1h-.2l-.4-.2h-.6l-.3-.2h-.6l-.4-.2h-.2l-.4-.1h-.1l-.2-.1h-.2l-.2-.1h-.2l-.2-.1-.4-.1h-.2l-.2-.1-.3-.1h-.2l-.2-.1h-.2l-.2-.1-.4-.1h-.2l-.2-.1-.3-.2h-.2l-.2-.1h-.2l-.4-.2h-.2l-.4-.2h-.1l-.4-.2h-.4l-.2-.2-.6-.2-.5-.2h-.2l-.4-.2h-.2l-.2-.1-.4-.2-.3-.2-.4-.1-.2-.1-.4-.2h-.2l-.4-.2-.3-.2-.4-.1-.2-.1-.4-.2-.4-.2-.4-.2-.3-.2h-.2l-.2-.2-.4-.2h-.2l-.2-.2h-.2l-.2-.2h-.1l-.2-.2-.4-.2h-.2l-.2-.2h-.2l-.2-.2h-.2l-.2-.2-.1-.1h-.2l-.4-.3-.2-.1-.2-.1-.4-.3-.4-.2-.1-.1-.4-.2-.2-.2-.2-.1-.2-.1-.4-.3-.3-.2-.2-.2-.4-.2-.2-.2-.6-.4-.5-.4-.2-.1-.4-.3-.2-.1-.4-.3-.2-.2-.4-.3-.1-.1-.2-.2-.2-.1-.4-.3-.2-.2-.4-.3-.2-.2-.2-.1-.1-.2-.4-.3-.2-.2-.4-.3-.2-.2-.4-.4-.2-.1-.3-.4-.2-.1-.2-.2-.4-.4-.2-.2-.4-.4-1.3-1.4-1.3-1.5-.4-.4-.4-.4-.2-.2-.3-.4-.3-.4-.2-.2-.3-.4-.2-.2-.3-.4-.3-.4-.2-.2-.3-.4-.1-.2-.3-.4-.1-.2-.2-.2-.3-.4-.1-.2-.2-.3-.1-.2-.3-.4-.1-.2-.1-.2-.2-.2-.2-.4-.8-1.2-.4-.6v-.2l-.3-.4-.2-.2v-.2l-.3-.4-.2-.4-.1-.2-.3-.5-.2-.4-.1-.2-.1-.2-.1-.2-.2-.4-.1-.2-.1-.2-.2-.4-.2-.2v-.2l-.2-.2-.1-.4-.1-.2-.1-.2-.1-.2-.1-.2-.1-.2-.1-.2-.2-.4-.1-.2v-.2l-.2-.2-.1-.5-.1-.2v-.2l-.3-.4v-.2l-.2-.4-.2-.4-.1-.4-.1-.2-.2-.4-.1-.4-.2-.4v-.2l-.2-.4v-.2l-.1-.2-.1-.2v-.2l-.2-.4-.2-.4-.1-.5v-.2l-.2-.4v-.2l-.3-.6v-.4l-.2-.4v-.2l-.1-.4-.1-.2v-.2l-.1-.2-.1-.4-.1-.2v-.2l-.2-.4v-.4l-.1-.2v-.2l-.1-.3v-.4l-.1-.2v-.2l-.1-.2v-.2l-.1-.2v-.2l-.2-.4v-.4l-.1-.2v-.2l-.1-.2-.1-.4v-.2l-.1-.4-.1-.4v-.2l-.1-.4v-.4l-.1-.2-.1-.5v-.4l-.1-.4v-.4l-.2-.4v-1l-.2-.4v-1l-.1-.4v-.2l-.1-.2v-.6l-.1-.5v-.4l-.1-.2v-1.2l-.1-.2v-.6l-.1-.4v-1.4l-.1-.2v-4.1l-.1-.4v-.4l-.1-.2v-3.1l.1-.4v-4.5l.1-.2v-.4l.1-.2v-2l.1-.2v-1l.1-.4v-.6l.1-.2V297l.1-.2v-.4l.1-.4v-.6l.1-.2v-.4l.1-.4v-.6l.1-.4.1-.4v-.8l.2-.4v-.7l.1-.4v-.4l.2-.4v-.4l.1-.4v-.6l.2-.4v-.6l.1-.2v-.2l.1-.4v-.2l.1-.2v-.2l.1-.4v-.3l.1-.4.1-.4v-.2l.1-.4.1-.2v-.4l.1-.2.1-.4v-.2l.1-.4v-.2l.1-.2v-.2l.1-.2.1-.4v-.2l.1-.2v-.2l.1-.2v-.4l.1-.3.1-.4v-.2l.1-.2v-.2l.1-.2.1-.4v-.2l.1-.2v-.2l.2-.4v-.2l.1-.4.1-.2.1-.4v-.2l.1-.2.1-.4v-.2l.2-.4v-.4l.2-.5v-.2l.1-.2.1-.4.1-.4.1-.4.3-.8.5-1.6.1-.4.2-.4.1-.6.1-.3v-.2l.2-.4.3-.8.2-.8.1-.4.2-.4.1-.4.1-.2v-.2l.1-.2.1-.2.1-.4.2-.4v-.2l.2-.4v-.2l.2-.5v-.2l.2-.4.2-.4.1-.4.1-.2.2-.4.1-.4.1-.2.2-.4v-.2l.2-.4.1-.4.2-.4v-.2l.3-.4.1-.4.2-.5v-.2l.2-.4.2-.4.1-.4.1-.2.2-.4.1-.2v-.2l.2-.4.1-.2v-.2l.3-.4v-.2l.2-.2v-.2l.1-.2.1-.2.2-.4v-.2l.1-.2.1-.3.2-.4.1-.2.1-.2.1-.2.1-.2.2-.4v-.2l.2-.2v-.2l.2-.2v-.2l.3-.4v-.2l.1-.2.2-.2v-.2l.1-.2.1-.2.2-.4.1-.2.1-.2.1-.2.1-.2.1-.2v-.3l.2-.2v-.2l.2-.2.2-.4v-.2l.2-.2.2-.4v-.2l.2-.2v-.2l.3-.4.1-.2.1-.2.2-.4v-.2l.2-.2v-.2l.2-.2.1-.2.2-.4.1-.2.1-.2.2-.4.1-.3.2-.4.3-.4.2-.4v-.2l.3-.4.2-.4.2-.2.2-.4.2-.4.2-.4.1-.2.2-.4.3-.4.2-.4.1-.2.2-.4.3-.5v-.2l.2-.2.1-.2.1-.2.3-.4.1-.2.2-.4.3-.4.1-.2.2-.4.2-.2.2-.4.2-.4.2-.2.2-.4.1-.2.3-.4.1-.2.1-.2.3-.5.5-.8.2-.4.7-1 .1-.2.4-.6.1-.2.3-.4v-.2l.4-.4.2-.4.2-.2.1-.2.1-.2.2-.2.2-.5.2-.2v-.2l.2-.2.3-.4.1-.2.2-.2.3-.4.1-.2.3-.4.1-.2.3-.4.1-.2.2-.2.1-.2.2-.2.2-.4.2-.2.1-.2.2-.2.1-.2.2-.2.2-.4.2-.3.1-.2.2-.2.3-.4.1-.2.3-.4.2-.2.3-.4v-.2l.2-.2.2-.2.1-.2.3-.4.3-.4.2-.2.3-.4.2-.2.1-.2.2-.2.3-.4.1-.2.2-.2.1-.3.3-.4.3-.4.3-.4.4-.4.2-.2.3-.4.3-.4.1-.2.4-.4.3-.4.1-.2.4-.4.1-.2.3-.4.4-.4.2-.2.3-.5.3-.4.2-.2.3-.4.2-.2.3-.4.2-.2.4-.4.1-.2.3-.4.2-.2.4-.4.3-.4.2-.2.3-.4.2-.2.3-.4.2-.2.2-.2.4-.5.2-.2.3-.4.4-.4.2-.2.2-.2.4-.4.1-.2.4-.4.1-.2.3-.4.2-.2.4-.4.4-.4.5-.6.4-.4.2-.2.6-.6.4-.5.3-.4.2-.2.2-.2.4-.3.2-.2.4-.3.2-.2.3-.4.2-.2.2-.2.8-.8.2-.2.3-.4.2-.2.2-.2.4-.4.2-.1.4-.4.2-.2.3-.4.4-.4.2-.1.4-.4.2-.2.4-.3.2-.2.3-.4.2-.2.4-.3.2-.2.4-.3.4-.4.1-.2.4-.3.4-.4.2-.1.4-.4.2-.2.3-.3.4-.4.2-.1.4-.4.4-.3.2-.2.3-.4.4-.3.4-.3.4-.4.2-.1.2-.2.2-.1.3-.4.2-.1.2-.2.2-.2.4-.3.2-.1.4-.4.3-.3.2-.2.4-.3.2-.1.2-.2.2-.1.2-.2.3-.3.2-.2.4-.3.2-.1.2-.2.2-.1.2-.2.2-.2.2-.1.3-.3.2-.2.2-.1.4-.3.2-.2.2-.1.2-.2.2-.1.3-.3.2-.2.4-.3.2-.1.4-.3.2-.2.2-.1.3-.3.2-.2.2-.1.2-.1.4-.3.2-.2h.2l.2-.2.3-.3.2-.2.4-.3.2-.1.2-.1.4-.3.2-.1.3-.3.2-.2h.2l.2-.2.4-.3.2-.1.2-.2.3-.2.2-.2.2-.1.2-.1.2-.2.4-.3h.2l.3-.4h.2l.4-.4.4-.2.2-.1.2-.1.2-.2.2-.1.3-.3.2-.1.2-.1.2-.2.2-.1.4-.2.4-.3.3-.2.2-.1.2-.2.2-.1.2-.1.4-.3.2-.1.3-.3.4-.2.4-.2.2-.1.4-.3.4-.2.1-.1.4-.3.4-.2.4-.3h.2l.4-.3.3-.3.4-.2h.2l.4-.3.2-.1.2-.1.3-.3h.2l.2-.2.4-.2.2-.1.2-.1.2-.1.2-.1.2-.1.3-.3.2-.1.2-.1.2-.1.4-.2.2-.1.2-.1.2-.1.1-.1.4-.2.2-.1.2-.1.2-.1.2-.1.2-.2h.2l.2-.2h.1l.2-.2h.2l.2-.2.4-.2h.2l.2-.2h.2l.2-.2h.1l.4-.3h.2l.2-.2h.2l.2-.2h.2l.2-.2h.2l.1-.2.4-.2h.2l.2-.2h.2l.4-.2.2-.1.2-.1.3-.2.2-.1.2-.1.2-.1h.2l.2-.2.4-.1.2-.1.1-.1.4-.2.2-.1.4-.2.4-.2.3-.1.2-.1.4-.2.4-.2.4-.1.2-.1.3-.2.4-.2.4-.1.2-.1.4-.2h.2l.3-.2.4-.2h.2l.4-.2.4-.2.4-.2h.1l.2-.1h.2l.2-.2.4-.1.4-.2h.2l.3-.2h.2l.4-.2.2-.1.4-.2.4-.1.3-.1.4-.2.4-.1h.2l.4-.2h.2l.2-.2h.2l.4-.2.2-.1h.2l.2-.1.2-.1.4-.1.1-.1h.2l.2-.1.4-.2h.2l.4-.2h.2l.3-.2h.2l.4-.2.4-.1.4-.1h.2l.2-.1.3-.2h.4l.4-.2h.2l.4-.2h.4l.4-.2h.2l.4-.2h.2l.4-.1h.2l.1-.1h.2l.2-.1h.2l.4-.2h.4l.2-.1h.2l.1-.1h.2l.2-.1h.2l.4-.2h.2l.2-.1.4-.1h.1l.2-.1h.2l.4-.2h.6l.2-.1.3-.1h.2l.2-.1h.2l.2-.1h.4l.2-.1h.2l.1-.1h.4l.2-.1h.2l.2-.1h.4l.2-.1h.2l.1-.1h.4l.2-.1h.2l.2-.1h.4l.4-.2h.3l.4-.1h.4l.4-.1h.4l.1-.1h.4l.4-.2h.7l.4-.1h.5l.2-.1h.4l.4-.2h1.1l.2-.1h1.1l.4-.2h1.5l.4-.2h1.6l.2-.1h.4l.2-.1h4.4l.3-.1h.4l.2-.1h2.5l.4.1h4.5l.2.1.4.1h1.3l.4.1h.2l.4.1h.7l.4.1h.2l.4.1h.5l.4.1h.2l.4.1h.6l.3.1h.4l.2.1h.2l.4.1h.2l.2.1h.3l.2.1h.2l.4.1h.2l.4.1h.2l.2.1h.3l.2.1h.2l.2.1h.4l.2.1.4.1h.1l.2.1h.2l.4.2h.2l.4.1h.2l.2.1h.1l.2.1h.2l.4.2h.4l.2.1h.2l.2.1.3.1.2.1h.2l.4.2h.2l.2.1.2.1h.2l.3.2h.4l.2.1.2.1.4.2h.2l.3.2h.2l.4.2h.2l.4.2.4.2h.2l.1.1h.2l.2.2.4.1.4.2.4.2h.1l.4.2h.2l.4.2.4.2h.2l.2.2h.1l.2.2h.2l.4.3h.2l.2.2.4.1.2.1h.1l.2.2.4.2h.2l.2.2.2.1.2.1.4.2.1.1.2.1.2.1.4.3.2.1.2.1.4.2.2.1.1.1.2.2.4.2.4.3h.2l.4.3.3.3h.2l.2.2.2.1.4.3.2.1.4.3.2.2.3.2.2.2.4.2.2.2.4.2.2.2.2.1.3.3.2.2.2.1.2.2.2.1.4.3.2.2.3.3.2.2.2.2.2.1.4.3.2.2.4.3.3.4.2.2.4.3.2.2.4.3.2.2.2.2.3.4.2.2.4.4.8.9.2.2.3.4.8.8.4.4.4.4.1.2.4.4.1.2.3.4.2.2.4.4.1.2.2.2.3.4.3.4.1.2.3.5.2.2.1.2.2.2.1.2.3.4.2.2.1.2.3.4.1.2.3.4.1.2.2.2v.2l.2.2.1.2.3.4.1.2.3.4.1.2.1.2.1.2.2.2.2.5.2.4.2.4.2.2.2.4.2.4.1.2.3.4v.2l.2.2.2.4v.2l.2.2v.2l.1.2.1.2.2.4.1.2.1.2.1.2.1.2.1.2v.3l.2.2v.2l.2.2.2.4v.2l.2.2.1.4.1.2.1.2.2.4.1.4.1.2.2.4.1.4.2.4v.2l.2.4.2.4v.2l.2.5v.2l.1.2v.2l.2.2.1.4.1.4.2.4.1.4v.2l.2.4v.2l.2.4v.2l.1.2v.2l.2.4v.4l.2.4v.3l.1.4v.2l.1.2.2.4v.2l.1.4v.2l.1.2v.2l.1.2.1.4v.2l.1.2.1.4v.4l.2.4v.6l.2.4v.7l.1.2v.2l.1.2v.4l.1.2v.4l.2.4v.4l.1.4v.6l.2.4v.8l.1.4v.7l.1.4v.4l.1.2v.6l.1.4v.2l.1.4v1.4l.1.4v.2l.1.4v2.5l.1.4v.2l.1.4v5.3h8.4v-6.9l-.1-.2v-2.9l-.2-.4v-1.6l-.1-.4-.1-.4v-.8l-.1-.5v-.2l-.1-.4v-.6l-.1-.4-.1-.4v-.8l-.2-.4v-.6l-.1-.4v-.4l-.2-.4v-.4l-.1-.5v-.6l-.1-.2v-.2l-.1-.4v-.2l-.1-.2v-.2l-.1-.4v-.2l-.2-.4v-.6l-.1-.2-.1-.4v-.2l-.1-.4v-.2l-.2-.4v-.2l-.1-.5v-.2l-.2-.4v-.2l-.2-.4v-.6l-.2-.4v-.2l-.2-.4v-.4l-.2-.4v-.4l-.2-.4-.1-.4-.1-.2-.1-.4v-.2l-.2-.5v-.2l-.2-.4v-.2l-.2-.4v-.2l-.2-.4-.2-.4v-.2l-.1-.2v-.2l-.1-.2-.2-.4v-.2l-.2-.4-.2-.4v-.2l-.2-.4-.1-.4-.1-.3v-.2l-.2-.2-.2-.4v-.2l-.1-.2-.2-.4v-.2l-.2-.2-.1-.4-.1-.2-.1-.2-.2-.4-.1-.2-.1-.2-.1-.2-.2-.4v-.2l-.2-.4-.2-.2v-.2l-.2-.2-.2-.5v-.2l-.2-.2-.1-.4-.1-.2-.2-.4-.2-.4-.3-.4-.2-.4v-.2l-.3-.4-.2-.4-.3-.4v-.2l-.3-.4-.1-.2-.2-.2v-.2l-.3-.4-.1-.2-.3-.5-.2-.4-.3-.4v-.2l-.4-.4-.1-.2-.3-.4-.1-.2-.3-.4-.1-.2-.3-.4-.1-.2-.3-.4-.2-.2-.1-.2-.1-.2-.2-.2-.1-.2-.3-.4-.2-.2-.3-.5-.3-.4-.3-.4-.2-.2-.3-.4-.3-.4-.1-.2-.4-.4-.4-.4-.3-.4-.1-.2-.4-.4-.1-.2-.2-.2-.4-.4-.2-.2-.8-.9-.7-.8-.2-.2-.4-.4-.2-.2-.2-.2-.3-.3-.2-.2-.4-.3-.4-.4-.4-.4-.2-.2-.3-.3-.2-.2-.2-.1-.2-.2-.4-.4-.2-.1-.2-.2-.4-.3-.1-.2-.2-.1-.2-.2-.4-.3-.2-.2-.2-.1-.2-.2-.4-.3-.1-.1-.4-.3-.2-.2-.4-.3-.2-.1-.4-.3-.3-.3-.2-.1-.4-.3-.2-.1-.2-.1-.4-.3-.4-.3-.3-.2-.2-.2-.4-.2-.4-.3-.2-.1-.2-.1-.2-.2-.3-.2h-.2l-.4-.3-.4-.3-.4-.2-.2-.1-.3-.2-.4-.3-.4-.2-.4-.2-.2-.1-.2-.1-.1-.1-.2-.1-.2-.1-.2-.1-.4-.2-.2-.1-.2-.1-.2-.1-.2-.1-.1-.1-.4-.2-.2-.2-.4-.1-.4-.2-.4-.2h-.1l-.4-.2-.4-.2-.4-.2h-.2l-.4-.2-.3-.2-.4-.2h-.2l-.4-.2-.4-.2h-.2l-.3-.2h-.2l-.2-.1-.2-.1-.2-.1-.4-.2-.4-.1-.3-.2h-.2l-.4-.2h-.4l-.4-.2-.3-.2h-.4l-.2-.1-.4-.1-.2-.1h-.2l-.3-.2h-.2l-.4-.2-.4-.1h-.2l-.2-.1-.4-.1-.1-.1-.4-.1h-.2l-.4-.2h-.4l-.2-.1-.3-.1h-.2l-.2-.1h-.2l-.2-.1-.4-.1h-.2l-.4-.1h-.1l-.2-.1h-.2l-.2-.1-.4-.1h-.2l-.4-.1h-.2l-.1-.1h-.2l-.4-.1h-.2l-.2-.1-.4-.1h-.5l-.4-.2h-.8l-.2-.1-.4-.1h-.1l-.4-.1h-.4l-.2-.1h-.5l-.3-.1-.4-.1h-.8l-.4-.1h-.2l-.3-.1h-1l-.4-.1h-.2l-.3-.1h-1.2l-.4-.1h-.1l-.4-.1h-3.1l-.3-.1h-.2l-.4-.1h-6.9l-.4.1h-3.1l-.3.1h-.2l-.4.2h-1.9l-.4.2h-1.3l-.2.1h-1.3l-.4.2h-1l-.2.1h-.3l-.4.1h-.2l-.4.1h-.2l-.4.1h-.3l-.2.1h-.4l-.4.1h-.2l-.4.1h-.2l-.3.1h-.4l-.2.1h-.4l-.2.1h-.2l-.3.1h-.2l-.2.1h-.4l-.2.1h-.4l-.4.2h-.5l-.2.1h-.2l-.4.1h-.2l-.2.1h-.2l-.3.1h-.2l-.4.2h-.6l-.3.2h-.2l-.4.1h-.2l-.2.1-.4.1h-.2l-.3.2h-.2l-.4.1h-.2l-.2.1h-.2l-.2.1h-.2l-.3.2h-.4l-.2.1-.4.1h-.2l-.2.1h-.2l-.2.1-.3.1h-.2l-.4.2h-.2l-.4.2h-.4l-.1.1-.4.1h-.2l-.4.2h-.2l-.2.1-.4.1-.1.1h-.2l-.4.2h-.2l-.4.2-.4.1h-.2l-.3.2h-.2l-.4.2-.4.1h-.2l-.4.2h-.1l-.4.2h-.2l-.4.2-.4.1h-.2l-.2.2h-.1l-.4.2h-.2l-.4.2-.4.1-.4.2-.3.1h-.2l-.4.2h-.2l-.2.1-.4.2h-.2l-.1.1h-.2l-.4.3h-.2l-.4.2h-.2l-.4.2h-.1l-.4.3-.4.1-.4.2h-.2l-.2.1-.2.1h-.1l-.4.2-.2.1-.4.2-.4.1-.2.1-.3.2-.4.1-.4.2-.2.1-.4.2-.3.1-.4.2-.2.1-.4.2-.4.2-.4.1-.1.1-.4.2-.4.2-.4.1-.2.1-.4.2-.3.2-.4.2h-.2l-.4.3h-.2l-.2.2-.3.2h-.2l-.2.1-.4.2h-.2l-.2.2-.4.2h-.2l-.1.2h-.2l-.2.2-.4.2h-.2l-.4.3h-.2l-.2.2h-.1l-.2.2h-.2l-.2.2-.2.1-.2.1-.4.2-.2.1-.2.1-.1.1-.2.1-.2.1-.2.1-.4.2-.2.1-.2.1-.4.2-.1.1-.2.1-.2.1-.2.1-.2.1-.2.1-.4.2-.2.1-.2.2h-.1l-.4.3-.2.1-.2.2h-.2l-.2.2h-.2l-.4.3h-.1l-.2.2-.4.2-.2.2h-.2l-.4.3h-.2l-.3.3-.4.3-.4.2-.2.1-.4.2-.4.3-.3.2-.2.1-.4.2-.4.3-.4.2-.2.2-.3.2-.4.2-.2.2-.4.2-.2.1-.4.3-.3.2-.4.3h-.2l-.4.3-.2.2-.2.1-.2.1-.3.3-.2.1-.4.3h-.2l-.4.4-.2.1-.3.3-.4.2-.2.1-.4.3-.2.1-.4.3-.1.1-.4.3-.2.1-.4.3-.2.1-.4.3-.2.1-.1.2-.4.3h-.2l-.2.2-.2.2-.4.2-.2.2-.2.1-.3.3-.4.3-.2.1-.4.3-.4.3-.2.1-.3.3-.4.3-.2.2-.2.1-.4.3-.2.1-.3.3-.2.2-.2.1-.4.3-.2.2-.2.1-.4.3-.2.2-.3.3-.2.1-.2.2-.4.3-.2.1-.2.2-.4.3-.1.1-.2.2-.2.1-.2.2-.4.3-.2.2-.4.3-.2.1-.1.2-.2.2-.2.1-.4.3-.2.2-.4.3-.4.3-.1.2-.4.3-.2.2-.2.1-.2.2-.4.3-.2.2-.2.2-.1.1-.4.4-.4.3-.4.3-.2.2-.4.3-.1.2-.4.3-.2.2-.4.3-.4.4-.2.2-.3.3-.2.2-.4.3-.2.2-.2.2-.4.3-.2.2-.3.3-.4.4-.2.2-.4.4-.4.3-.2.2-.3.3-.2.2-.4.4-.4.4-.2.2-.4.3-.1.2-.4.4-.2.1-.4.4-.4.5-.2.2-.3.3-.4.4-.2.1-.4.4-.2.2-.4.4-.2.2-.1.2-.8.8-.2.2-.2.2-.7.8-.8.8-.2.2-.2.2-.2.3-.2.2-.2.2-.1.2-.4.4-.2.2-.4.4-.2.2-.2.2-.7.8-.2.2-.2.2-.2.2-.8.8-.2.2-.3.4-.2.2-.3.4-.2.2-.3.5-.4.4-.3.4-.2.2-.4.4-.2.2-.3.4-.2.2-.3.4-.2.2-.3.4-.4.4-.2.2-.3.4-.2.2-.3.4-.3.4-.2.2-.3.5-.3.4-.2.2-.4.4-.1.2-.3.4-.3.4-.4.4-.2.2-.3.4-.3.4-.2.2-.3.4-.1.2-.2.2-.3.4-.1.2-.2.2-.3.4-.2.3-.3.4-.1.2-.2.2-.3.4-.1.2-.2.2-.1.2-.3.4-.2.2-.3.4-.3.4-.2.2-.1.2-.1.2-.2.2-.3.4-.1.2-.3.4-.2.2-.3.4-.1.3-.2.2-.1.2-.3.4-.1.2-.3.4-.2.2-.1.2-.1.2-.2.2-.3.4-.1.2-.3.4v.2l-.4.4-.1.2-.2.2-.2.4-.2.2-.1.2-.3.4-.1.2-.2.3-.2.4-.3.4-.1.2-.3.4-.2.4-.2.2-.3.4-.2.4-.2.2-.2.4-.1.2-.5.8-.4.6-.1.2-.3.4-.1.2-.3.5-.1.2-.1.2-.4.6-.1.2-.3.4-.2.4-.1.2-.1.2-.2.2v.2l-.3.4-.2.2-.2.4-.2.4-.1.2-.3.4-.1.2-.1.2-.2.2v.3l-.3.4-.2.4-.3.4v.2l-.3.4-.2.4-.1.2-.3.4v.2l-.3.4-.2.4-.3.4v.2l-.3.4-.2.4-.2.4-.1.3-.2.4-.3.4-.2.4v.2l-.3.4v.2l-.2.2-.2.4-.1.2-.1.2-.1.2-.2.4-.2.4-.3.4-.2.4v.2l-.3.4v.2l-.1.3-.1.2-.1.2-.1.2-.1.2-.1.2-.1.2-.1.2-.1.2-.2.4-.1.2v.2l-.2.2v.2l-.2.2v.2l-.2.2v.2l-.2.2v.2l-.1.2-.1.2-.1.2-.1.2-.2.4-.1.2-.1.2-.1.2v.3l-.2.2v.2l-.2.2v.2l-.2.2v.2l-.2.2v.2l-.2.4-.1.2-.1.2-.1.2-.2.4v.2l-.1.2-.1.2-.1.2-.1.2-.2.4v.2l-.2.2-.1.4v.2l-.2.2-.2.5v.2l-.2.4-.2.4-.1.4-.1.2-.2.4-.1.4-.2.4v.2l-.2.4-.2.4v.2l-.2.4-.2.4-.1.4-.1.2-.2.5-.1.4-.1.2-.1.4-.1.2v.2l-.1.2-.1.2-.2.4-.1.4-.2.4v.2l-.1.2v.2l-.1.2-.2.4v.2l-.2.4v.2l-.2.4-.1.5-.2.4-.2.6v.4l-.2.4-.2.4v.2l-.1.2-.1.4-.1.4-.1.4-.2.6-.2.6-.4 1.3v.2l-.2.4v.2l-.2.4v.4l-.1.2v.2l-.1.2-.1.2-.1.4v.2l-.1.2-.1.4v.2l-.1.2-.2.4v.4l-.2.4v.3l-.1.4-.1.2-.1.4v.2l-.1.2v.2l-.1.4v.2l-.1.2v.2l-.1.2v.2l-.2.4v.4l-.1.2v.2l-.1.2-.1.4v.2l-.1.2v.4l-.1.3-.1.4v.2l-.1.4v.2l-.1.2v.2l-.1.2-.1.4v.2l-.1.4v.2l-.1.2v.2l-.1.4v.4l-.1.2-.1.4v.4l-.1.2v.5l-.1.2v.2l-.1.2v.4l-.2.4v.6l-.1.4v.4l-.1.4-.1.4v.2l-.1.4v.6l-.2.4v.9l-.1.4v.6l-.1.4v.4l-.1.2v.6l-.1.4v.4l-.1.2v1l-.1.2v.4l-.1.4v1.1l-.1.4v.2l-.1.4v1.8l-.1.4v.2l-.1.4v2.7l-.1.4v.2l-.1.4v8.1l.1.4v2.7l.1.4v.2l.1.4v1.6l.1.4v.2l.1.4v.9l.1.4v.2l.1.4v.6l.1.4v.4l.1.2v.6l.1.4v.4l.1.4v.2l.1.4v.4l.1.3v.4l.1.2v.2l.1.4v.2l.1.2v.6l.1.4.1.4.1.4v.2l.1.4v.2l.1.2v.2l.1.2v.4l.1.2.1.5v.2l.1.2.1.4v.4l.2.4v.4l.1.2v.2l.2.4v.2l.2.4v.2l.1.4v.2l.1.2.1.4v.2l.1.2.1.4.1.3.1.4v.2l.3.6.3 1.2.2.4v.2l.2.4v.2l.2.4v.2l.1.2.1.2.1.4.1.2.2.4.1.5.2.4v.2l.2.4.2.4v.2l.2.4.1.4.1.2.2.4.1.2.1.2.1.4.1.2.1.2.2.4.1.2v.2l.2.2v.2l.3.5v.2l.2.2.1.4.1.2.1.2.1.2.1.2.2.4.1.2.1.2.3.4.2.4v.2l.3.4.2.4.2.4.1.2.3.4.2.4.2.5.1.2.1.2.2.2.2.4.8 1.2.5.8.2.4.3.4.1.2.3.4.2.2.2.4.2.2.2.5.2.2.1.2.2.2.3.4.1.2.2.2.1.2.3.4.2.2.1.2.4.4.1.2.2.2.3.4.3.4.2.2.4.4.3.4.1.2.3.4.2.2.2.3.4.4 1.1 1.2 1 1 .4.4.1.2.2.2.4.3.2.2.4.3.2.2.4.4.1.2.4.4.4.3.4.3.4.4.3.3.4.3.2.2.4.3.2.2.2.1.2.2.3.3.2.1.2.2.2.1.4.3.2.2.4.3h.2l.3.4.2.1.4.3.4.3.4.3.2.1.3.3.4.2.2.1.2.2h.2l.2.2.4.3.1.1.4.2.4.3.4.2.2.1.4.3.3.2.2.1.2.1.2.1.2.1.2.1.4.2.2.2.3.2.2.1.4.2.2.1.4.2.3.2.2.1.4.2h.2l.2.2h.2l.4.3h.2l.1.2.4.2h.2l.2.2.4.1.4.2.2.1.3.2.4.1.4.2h.2l.4.2.3.2h.2l.4.2.2.1h.2l.2.1.2.1.4.2.3.1.2.1.4.1.6.2.7.3h.2l.8.4.4.1h.2l.1.1.4.1h.2l.2.1.4.2h.2l.4.1h.1l.2.1.4.2h.2l.4.1h.2l.2.1.3.1h.2l.2.1h.2l.2.1.4.1h.2l.4.2h.3l.2.1h.2l.4.2h.5l.3.2h.7l.2.1h.2l.2.1h.4l.2.1h.1l.4.1h.2l.4.1h.2l.4.1h.2l.3.1.4.1h.8l.4.2h.7l.4.1h.2l.4.1h.7l.4.1h.2l.4.1h1.1l.4.1h.2l.4.1h1.5l.4.1h.1l.4.1h5.1l.2.1h.3l.4.1h.5l.2-.1h4.9l.4-.1h.2l.4-.1h1.7l.4-.1h.1l.4-.1h1.4l.3-.1h.2l.4-.1h1l.3-.1.4-.1h1l.3-.2h.8l.2-.1h.4l.3-.1h.6l.4-.1h.2l.4-.1h.2l.3-.1h.2l.4-.2h.8l.3-.2h.8l.2-.1.4-.1h.4l.3-.2h.6l.2-.1h.2l.4-.1h.2l.1-.1h.2l.4-.1h.2l.2-.1h.2l.2-.1.4-.1h.1l.4-.1h.2l.4-.2h.4l.2-.1h.2l.3-.1h.2l.4-.2h.4l.2-.1.4-.1h.1l.4-.2h.4l.2-.1h.2l.2-.1.4-.1h.1l.4-.2h.2l.4-.2h.4l.4-.2h.3l.4-.2h.2l.4-.2h.2l.4-.2h.3l.4-.2h.2l.2-.1.4-.1h.2l.3-.2h.2l.6-.3h.2l.4-.2h.2l.3-.1.4-.2h.2l.4-.2h.4l1-.4.1-.1.8-.3.3-.1.4-.1.2-.1.4-.2.4-.1.2-.1h.2l.1-.2h.2l.4-.2h.2l.4-.2.4-.1.2-.1h.1l.2-.2h.2l.4-.2h.2l.4-.2.4-.2.3-.1.2-.1.4-.2h.2l.2-.1.2-.1h.2l.3-.2.4-.2.4-.2h.2l.4-.3.4-.1.3-.2h.2l.4-.2.4-.2.2-.1.4-.2.3-.1.4-.2.2-.1.4-.2.4-.1.3-.2.2-.1.4-.2.2-.1.2-.1.4-.2h.2l.2-.1.1-.1.4-.2.2-.1.2-.1.4-.2.2-.1.2-.1.3-.2h.2l.2-.2h.2l.4-.3h.2l.2-.2h.2l.3-.3h.2l.2-.2h.2l.2-.2.4-.2h.2l.2-.2.3-.2h.2l.2-.2h.2l.2-.2.4-.2.2-.1h.2l.2-.2h.1l.2-.2.2-.1.2-.1.2-.1.2-.1.4-.2.2-.1.2-.1.1-.1.4-.3.2-.1.2-.1.4-.2.2-.1.2-.1.1-.1.2-.2h.2l.4-.3.2-.1.2-.1.4-.3h.2l.3-.3.4-.2.4-.3h.2l.4-.3.3-.2.4-.3h.2l.4-.3.4-.3h.2l.3-.3.4-.3.4-.2.2-.1.4-.2.4-.3.3-.2.2-.1.4-.3.2-.1.4-.3.2-.1.3-.3.4-.2.2-.2h.2l.2-.2.4-.3h.2l.3-.3.2-.2.4-.2.2-.2.4-.2.2-.1.2-.2.3-.2 1-.7.2-.1.4-.3.2-.1.9-.7.4-.3.2-.1.2-.2.3-.2.2-.2.4-.3.2-.1.2-.2.2-.1.6-.4.3-.3.2-.1.2-.2.4-.3.2-.1.2-.2.4-.3.1-.1.4-.3.2-.2.2-.1.2-.2.4-.3.2-.1.3-.3.2-.1.4-.3.2-.2.2-.1.2-.2.2-.1.4-.3.1-.2.2-.1.4-.4.2-.1.4-.3.2-.2.4-.3.1-.2.2-.1.4-.3.2-.2.4-.3.2-.2.3-.3.4-.3.2-.2.4-.3.2-.2.2-.1.2-.2.3-.3.2-.2.2-.1.2-.2.4-.3.4-.3.4-.4.1-.2.4-.3.2-.2.4-.3.2-.2.4-.3.2-.2.3-.3.2-.2.4-.3.4-.4.2-.1.4-.4.1-.2.4-.4.2-.1.4-.4.2-.2.4-.3.2-.2.3-.3.4-.4.2-.2.4-.4.2-.2.4-.3.1-.2.4-.3.4-.4.4-.4.2-.2.4-.4.1-.2.4-.4.2-.1.4-.4.2-.1.2-.2.4-.5.7-.8.2-.2.8-.8.2-.2.3-.4.8-.8.2-.2.2-.2.2-.2.3-.4.2-.2.2-.2.2-.2.4-.4.2-.2.7-.9.2-.2.2-.2.2-.2.8-.8.2-.2.2-.2.3-.4.4-.4.2-.2.4-.4.2-.2.3-.4.1-.2.3-.4.2-.2.2-.2.4-.4.4-.5.1-.2.4-.4.1-.2.3-.4.2-.2.2-.2.4-.4.2-.2.3-.4.1-.2.3-.4.4-.4.2-.2.3-.4.2-.2.3-.4.2-.2.3-.4.2-.3.3-.4.3-.4.2-.2.3-.4.1-.2.3-.4.2-.2.3-.4.2-.2.3-.4.2-.2.3-.4.3-.4.3-.4.1-.2.2-.2.1-.2.4-.4.1-.2.2-.3.1-.2.3-.4.2-.2.3-.4.3-.4.1-.2.3-.4.1-.2.3-.4.2-.2.1-.2.2-.2.2-.3.2-.3m11.2-118.8v.3l-.1.3v1.4l-.1.4v.2l-.1.4v1l-.1.5v.2l-.1.4v1.2l-.1.4v.2l-.1.4v1l-.1.4v.4l-.1.4v.7l-.1.4v.2l-.1.4v1.4l-.2.4v1.4l-.1.2v.6l-.1.4v.4l-.1.5v.4l-.1.4v.2l-.1.4v1.2l-.2.4v1.2l-.1.4-.1.4v.7l-.1.2v.4l-.1.4v.5l-.2.4v1l-.2.4v.7l-.1.4v.2l-.1.4v.6l-.1.3-.1.4v.6l-.1.2v.4l-.1.2v.4l-.1.2v.2l-.1.4v.2l-.1.2v.2l-.1.4v.2l-.1.4-.1.4v.2l-.1.4v.3l-.1.2v.2l-.1.2v.4l-.1.2-.1.4v.2l-.1.2v.2l-.1.2-.1.4v.4l-.2.4v.4l-.2.4v.2l-.2.4v.4l-.2.4v.5l-.2.4-.1.4v.2l-.2.4-.1.4-.2.4v.2l-.2.4v.2l-.1.2v.2l-.2.4-.2.4v.2l-.2.4-.2.4v.2l-.1.3-.1.2-.2.4-.1.2-.1.2v.2l-.2.2v.2l-.2.2-.2.4v.2l-.2.2v.2l-.3.4-.2.4-.1.2-.3.4-.1.2-.3.4-.1.2-.3.4-.1.2-.1.3-.3.4-.2.2-.1.2-.4.4-.2.2-.3.4-.4.4-.4.4-.2.2-.4.4-.1.2-.4.4-.4.3-.2.2-.4.3-.2.2-.2.1-.1.2-.4.3-.2.1-.4.3h-.2l-.4.3-.3.3-.2.1-.2.1-.2.1-.4.2-.2.1-.2.2h-.2l-.3.3-.4.2h-.2l-.2.2h-.2l-.4.2-.2.1-.2.1-.1.1-.4.2-.4.1-.2.1-.4.2-.4.1-.1.1-.2.1h-.2l-.2.1-.4.2h-.2l-.4.2h-.1l-.4.2-.4.1-.4.1-.2.1-.4.1h-.1l-.4.2h-.2l-.4.2h-.4l-.2.1-.3.1h-.2l-.2.1h-.2l-.2.1h-.2l-.4.2h-.4l-.1.1h-.2l-.4.2h-.6l-.2.1-.4.1h-.1l-.2.1h-.2l-.4.1h-.2l-.4.1-.4.1-.3.1h-.4l-.2.1-.4.1h-.4l-.3.2h-.8l-.4.2h-.7l-.4.2h-.6l-.4.1h-.5l-.2.1-.4.1h-.4l-.4.1h-.4l-.3.1h-.2l-.4.1h-.2l-.4.1h-.4l-.3.1h-.2l-.4.1h-.6l-.4.1h-.3l-.2.1h-.6l-.4.1h-.5l-.2.1h-.6l-.4.1h-.4l-.2.1h-.5l-.4.1h-.6l-.2.1h-.3l-.2.1h-.8l-.4.1h-.3l-.2.1H287l-.2.1h-.3l-.2.1h-1.1l-.2.1-.3.1h-1.2l-.2.1-.4.1h-1.1l-.4.1h-.2l-.3.1h-1.2l-.4.1h-.2l-.3.1h-.6v9h.6l.2.1h1.3l.4.2h1.5l.2.1h.4l.1.1h1.4l.2.1h.3l.2.1h1l.2.1h.4l.1.1h.6l.4.1h.6l.2.1h.5l.4.1h.8l.1.1h.7l.4.1h.5l.2.1h.3l.2.1h.6l.4.1h.4l.1.1h1l.2.1h.4l.3.1h.6l.4.2h.8l.3.1.4.1h.6l.4.1h.2l.1.1h.6l.4.1.4.1h.7l.4.1.4.1h.2l.4.1h.3l.4.2h.4l.4.1h.4l.3.1.4.1h.4l.2.1h.2l.2.1h.4l.1.1h.2l.2.1h.4l.2.1h.2l.2.1h.4l.1.1h.2l.2.1h.4l.2.1.4.1h.2l.2.1h.1l.2.1h.2l.2.1.4.1h.2l.2.1.4.1h.1l.2.1h.2l.2.1.4.1.2.1.4.1h.2l.3.2h.2l.2.1h.2l.2.1.4.2h.2l1 .4.5.2.4.1.1.1h.2l.2.2.4.1.4.2h.2l.4.2.3.2h.2l.2.2h.2l.4.3h.2l.2.2h.2l.1.2h.2l.2.2.4.2h.2l.2.2.2.1.4.3.3.2.2.1.2.2h.2l.4.4.2.1.2.1.2.2.1.1.4.3.4.4.4.3.2.2.4.3.1.2.2.2.4.4.4.4.2.2.4.4.1.2.4.4.1.2.2.2.3.4.1.2.2.3.1.2.1.2.2.2.3.4v.2l.3.4.2.2.2.4v.2l.3.4.2.4.1.2.1.2.2.4.1.2.1.2.1.2.1.2.2.4v.2l.1.2.2.5.2.4v.2l.2.4v.2l.2.2v.2l.2.4.1.4v.2l.2.4.2.4v.4l.1.2.2.4.1.4v.2l.1.2v.2l.1.3v.2l.2.4v.4l.2.4v.2l.2.4v.2l.1.4v.2l.1.2.1.4v.4l.1.2v.2l.2.4v.7l.2.4v.7l.1.2.1.4v.4l.1.2.1.4v.4l.1.2.1.4v.5l.1.2v.4l.1.2v.4l.1.2v.2l.1.4v.2l.1.3v.6l.2.4v.8l.1.4.1.4v.8l.1.2v.4l.1.4v.2l.1.4.1.4v.9l.2.4v1l.1.4v.2l.1.4v.8l.1.4v.2l.1.4v1l.1.3v.4l.1.2v.8l.1.2v1l.1.2v.6l.1.2v1l.1.2v.4l.1.2v1.3l.1.4v.2l.1.4v1l.1.4v.2l.1.4v1.2l.1.4v.2l.1.5v1l.1.4v.2l.1.4v1l.1.4v.3l.1.3h8.4V336l.2-.4v-1.9l.1-.5v-1l.1-.4v-.2l.1-.4v-1l.1-.4v-.2l.1-.4v-1l.1-.4v-.2l.1-.5v-1l.1-.4v-.2l.1-.4V324l.1-.2v-.4l.1-.2v-.8l.1-.2v-.7l.1-.3v-1l.1-.4v-.2l.1-.4v-.2l.1-.4v-1l.2-.4v-1l.1-.2v-.2l.1-.5v-.8l.1-.2v-.2l.1-.4v-.8l.2-.4v-.6l.1-.4v-.2l.1-.4v-.2l.1-.4v-.2l.1-.4v-.7l.1-.2v-.2l.1-.4v-.4l.2-.4v-.6l.1-.2v-.2l.1-.4v-.2l.1-.2v-.6l.2-.4v-.6l.2-.5v-.4l.2-.4v-.6l.1-.2.1-.4v-.2l.1-.2v-.2l.1-.2v-.4l.1-.2.1-.4v-.2l.1-.2v-.2l.2-.4v-.2l.1-.2.1-.4v-.2l.1-.3.1-.2v-.2l.1-.4.2-.4v-.4l.2-.2v-.2l.1-.2.2-.4v-.2l.2-.4v-.2l.1-.2v-.2l.2-.4.2-.4v-.2l.2-.4.2-.4v-.3l.1-.2.1-.2.2-.4.1-.2.1-.2v-.2l.2-.2.2-.4v-.2l.2-.2v-.2l.3-.4.2-.4.2-.2.2-.4.1-.2.3-.4.2-.4.2-.2.1-.2.1-.2.2-.3.3-.4.3-.4.2-.2.3-.4.1-.2.3-.4.2-.2.4-.4.4-.4.4-.3.1-.2.4-.3.2-.2.4-.3.4-.4.2-.1.2-.2.3-.2.2-.2.4-.2.4-.3.2-.1.2-.2.3-.2.2-.1.2-.1.2-.1.2-.1.2-.1.4-.3.4-.2.1-.1.2-.1.2-.1.2-.1.4-.2.4-.1.2-.1.3-.2.4-.2.4-.1.2-.1.4-.2.3-.1.2-.1.2-.1h.2l.2-.1.4-.2.4-.1h.2l.3-.2.4-.1.4-.2h.4l.4-.2h.1l.2-.1.4-.1h.2l.4-.2h.2l.4-.2h.1l.4-.1h.2l.4-.2h.6l.2-.1.3-.1h.2l.4-.2h.4l.4-.2h.5l.4-.2h.2l.4-.1h.4l.2-.1.3-.1h.4l.4-.2h.6l.3-.1h.4l.4-.1h.2l.4-.2h.7l.4-.2h.4l.4-.1h.7l.2-.1h.2l.4-.1h.2l.4-.1h.3l.4-.1h.2l.4-.1h.4l.4-.1h.1l.4-.1h.4l.2-.1h.6l.3-.1h.6l.4-.1h.2l.4-.1h.5l.2-.1h.4l.4-.1h.5l.2-.1h.6l.4-.1h.6l.1-.1h.4l.2-.1h1.2l.3-.2h1.4l.2-.1.3-.1h1.4l.2-.1.3-.1h1.4l.2-.1.3-.1h1.2l.4-.1h.1l.4-.1h1.2l.3-.1h.3l.3-.1v-9h-.6l-.3-.1H411l-.1-.1h-.4l-.2-.1h-1.1l-.1-.1h-.4l-.2-.1h-1.2l-.1-.1h-.4l-.2-.1h-.6l-.4-.1h-.5l-.2-.1h-1l-.4-.1h-.5l-.2-.1h-.6l-.4-.1h-.5l-.2-.1h-.6l-.4-.1h-.2l-.3-.1h-.4l-.2-.1h-1l-.2-.1h-.3l-.2-.1h-1l-.3-.2h-1l-.4-.2h-.7l-.4-.1-.4-.1h-.6l-.3-.1h-.4l-.2-.1h-.6l-.4-.1-.3-.1h-.2l-.4-.1h-.2l-.4-.1h-.4l-.2-.1h-.3l-.2-.1h-.6l-.4-.2h-.5l-.2-.1h-.2l-.4-.1h-.2l-.4-.1h-.2l-.2-.1h-.3l-.2-.1h-.2l-.2-.1h-.4l-.2-.1-.4-.1h-.3l-.2-.1h-.2l-.2-.1h-.2l-.4-.2h-.5l-.2-.1-.4-.1h-.2l-.4-.2h-.2l-.4-.1-.1-.1-.4-.1h-.2l-.4-.2h-.2l-.2-.1-.4-.1h-.1l-.2-.1h-.2l-.2-.1-.2-.1-.4-.1-.4-.2-.3-.1-.4-.1h-.2l-.4-.2-.2-.1-.4-.2h-.2l-.3-.2h-.2l-.4-.2-.4-.2-.4-.1-.2-.1-.3-.2h-.2l-.2-.2h-.2l-.4-.3h-.2l-.2-.2h-.1l-.2-.2h-.2l-.2-.2-.4-.2h-.2l-.2-.2-.2-.1-.3-.3-.4-.2-.2-.1-.2-.2h-.2l-.4-.4-.2-.1-.2-.1-.1-.2-.4-.3-.2-.1-.2-.2-.2-.2-.4-.3-.4-.4-.3-.3-.2-.2-.2-.2-.4-.4-.4-.4-.2-.2-.1-.2-.4-.4-.1-.2-.3-.4-.3-.4-.3-.5-.1-.2-.2-.2-.1-.2-.2-.2-.2-.4-.1-.2-.2-.2v-.2l-.3-.4-.2-.4-.1-.2-.1-.2-.1-.2-.2-.4-.1-.2-.1-.2-.1-.2-.1-.2-.1-.2v-.2l-.2-.2v-.2l-.3-.4v-.3l-.1-.2-.1-.2-.2-.4-.1-.4-.1-.2v-.2l-.1-.2-.1-.2-.1-.4-.2-.4v-.2l-.2-.4-.1-.4-.2-.4v-.2l-.2-.4v-.4l-.1-.2v-.2l-.1-.3v-.2l-.2-.4v-.2l-.1-.2-.1-.4v-.2l-.1-.2v-.2l-.2-.4v-.4l-.1-.2-.1-.4v-.4l-.1-.2v-.2l-.1-.2v-.2l-.2-.4v-.6l-.1-.2-.1-.5v-.2l-.1-.2v-.4l-.2-.4v-.4l-.1-.4v-.6l-.2-.4v-.6l-.1-.2v-.2l-.1-.4v-.2l-.1-.2v-.4l-.1-.5-.1-.4v-.8l-.1-.2v-.4l-.2-.4v-.6l-.1-.4v-.6l-.1-.4-.1-.4v-.8l-.2-.5v-1l-.1-.4v-.4l-.1-.2v-.6l-.1-.2v-.4l-.1-.2v-.8l-.1-.4v-.4l-.1-.2v-1.3l-.1-.2v-.4l-.1-.4v-.6l-.1-.2v-1l-.1-.2v-.4l-.1-.2v-1.4l-.1-.5v-.2l-.1-.4v-1l-.1-.4v-.2l-.1-.4v-1l-.2-.4v-1.4l-.1-.5v-.2l-.1-.4v-1.4l-.1-.4v-.2l-.1-.4v-.8l-.2-.2h-8.2z"/></svg>