<?xml version="1.0" encoding="utf-8"?>
<svg width="512" height="512" viewBox="0 0 512 512" xmlns="http://www.w3.org/2000/svg">
    <path stroke="null" fill="#0384fb" d="m321.20746 309.50636l0 -0.35237l-0.2505 -0.22023l-0.09352 -0.07399l-0.32398 -0.26779l-0.334 -0.28542l-0.167 -0.14095l-0.334 -0.26956l-0.167 -0.12686l-0.167 -0.13742l-0.167 -0.12686l-0.167 -0.13742l-0.167 -0.12686l-0.167 -0.13742l-0.167 -0.12686l-0.167 -0.13742l-0.167 -0.12686l-0.167 -0.13742l-0.334 -0.26428l-0.167 -0.12686l-0.334 -0.26428l-0.167 -0.13742l-0.167 -0.12686l-0.334 -0.26956l-0.334 -0.28366l-0.167 -0.13742l-0.15698 -0.12686l-0.167 -0.10218l-0.09352 -0.06871l-0.2505 -0.09338l-0.20874 0.26428l-0.19539 0.27485l-0.12024 0.16562l-0.12024 0.17618l-0.13026 0.17618l-0.12524 0.17618l-0.13359 0.17618l-0.27054 0.35237l-0.13359 0.17618l-0.13026 0.17618l-0.13359 0.17618l-0.27054 0.35237l-0.13359 0.17618l-0.13026 0.17618l-0.13359 0.17618l-0.27054 0.35237l-0.13359 0.17618l-0.13026 0.17618l-0.13359 0.17618l-0.27054 0.35237l-0.13359 0.17618l-0.13026 0.17618l-0.13359 0.17618l-0.27054 0.35237l-0.26385 0.35237l-0.27889 0.35237l-0.14696 0.17618l-0.27889 0.35237l-0.13026 0.17618l-0.27889 0.35237l-0.14696 0.17618l-0.27889 0.35237l-0.26887 0.35237l-0.14361 0.17618l-0.30728 0.35237l-0.14361 0.17618l-0.26887 0.35237l-0.28222 0.35237l-0.15865 0.17618l-0.31563 0.35237l-0.28222 0.35237l-0.13026 0.17618l-0.28222 0.35237l-0.15865 0.17618l-0.32398 0.35237l-0.15865 0.17618l-0.28222 0.35237l-0.13026 0.17618l-0.28222 0.35237l-0.15865 0.17618l-0.16198 0.17618l-0.334 0.35237l-0.32898 0.35237l-0.15865 0.17618l-0.28222 0.35237l-0.13026 0.17618l-0.28222 0.35237l-0.15865 0.17618l-0.32898 0.35237l-0.167 0.17618l-0.50099 0.52855l-0.167 0.17618l-0.32898 0.35237l-0.30226 0.34708l-0.2555 0.3189l-0.11522 0.14623l-0.23713 0.28366l-0.13359 0.15151l-0.14361 0.16738l-0.15865 0.1709l-0.16198 0.17618l-0.167 0.17618l-0.334 0.35237l-0.66799 0.70474l-0.334 0.35237l-0.167 0.17618l-0.50099 0.52855l-0.334 0.35237l-0.334 0.35237l-0.50099 0.52855l-0.167 0.17618l-0.334 0.33827l-0.167 0.15151l-0.334 0.28366l-0.334 0.29776l-0.167 0.16738l-0.334 0.34708l-0.167 0.17618l-0.167 0.17618l-0.334 0.35237l-0.334 0.35237l-0.334 0.34708l-0.167 0.16738l-0.334 0.29776l-0.167 0.13742l-0.334 0.29776l-0.167 0.16738l-0.334 0.34708l-0.334 0.34708l-0.167 0.16738l-0.334 0.29776l-0.167 0.13742l-0.334 0.29776l-0.167 0.16738l-0.334 0.3418l-0.167 0.16738l-0.334 0.29776l-0.167 0.13742l-0.334 0.29776l-0.334 0.33299l-0.167 0.16738l-0.334 0.29776l-0.334 0.28366l-0.167 0.15151l-0.334 0.32418l-0.167 0.15151l-0.334 0.28366l-0.334 0.29423l-0.167 0.15504l-0.334 0.29423l-0.167 0.13742l-0.334 0.29423l-0.167 0.15504l-0.334 0.29423l-0.334 0.27837l-0.334 0.28542l-0.167 0.14095l-0.167 0.13742l-0.167 0.14095l-0.334 0.28542l-0.167 0.14095l-0.167 0.13742l-0.167 0.14095l-0.334 0.28542l-0.167 0.14095l-0.334 0.27837l-0.334 0.28542l-0.167 0.14095l-0.334 0.26956l-0.167 0.12686l-0.167 0.13742l-0.167 0.13214l-0.167 0.14095l-0.334 0.28542l-0.167 0.14095l-0.334 0.26956l-0.167 0.12686l-0.167 0.13742l-0.167 0.12686l-0.167 0.13742l-0.167 0.12686l-0.334 0.26428l-0.167 0.13742l-0.167 0.12686l-0.167 0.13742l-0.334 0.26428l-0.167 0.12686l-0.167 0.13742l-0.167 0.12686l-0.167 0.13742l-0.334 0.25899l-0.167 0.12333l-0.334 0.24314l-0.167 0.12333l-0.334 0.25899l-0.167 0.13214l-0.167 0.12333l-0.334 0.24314l-0.167 0.12333l-0.334 0.25899l-0.167 0.13214l-0.167 0.12333l-0.334 0.24314l-0.167 0.12333l-0.167 0.13214l-0.334 0.25899l-0.167 0.12333l-0.167 0.12156l-0.167 0.11805l-0.334 0.23433l-0.334 0.23433l-0.167 0.11805l-0.66799 0.47041l-0.334 0.23433l-1.33598 0.93907l-0.167 0.11805l-0.334 0.23433l-0.167 0.11805l-0.334 0.23433l-0.334 0.22552l-0.334 0.21142l-0.167 0.10218l-0.334 0.22552l-0.167 0.11628l-0.334 0.22552l-0.167 0.10218l-0.334 0.21142l-0.334 0.22552l-0.167 0.11628l-0.167 0.11275l-0.167 0.11275l-0.167 0.10218l-0.334 0.21142l-0.334 0.21495l-0.334 0.21142l-0.167 0.10218l-0.334 0.21495l-0.334 0.21142l-0.167 0.10218l-0.334 0.21495l-0.167 0.10218l-0.334 0.21142l-0.334 0.21495l-0.334 0.20085l-0.167 0.0881l-0.334 0.20085l-0.334 0.21495l-0.334 0.20085l-0.167 0.0881l-0.334 0.20085l-0.334 0.21495l-0.334 0.20085l-0.167 0.0828l-0.334 0.18147l-0.167 0.10218l-0.167 0.09866l-0.334 0.21495l-0.167 0.09866l-0.167 0.10218l-0.167 0.0828l-0.334 0.17618l-0.167 0.09866l-0.167 0.07752l-0.334 0.18147l-0.167 0.10218l-0.167 0.09866l-0.334 0.21495l-0.167 0.09866l-0.167 0.10218l-0.167 0.0828l-0.334 0.17618l-0.167 0.09866l-0.167 0.07752l-0.167 0.09866l-0.167 0.07752l-0.167 0.09866l-0.167 0.07752l-0.167 0.09866l-0.334 0.17618l-0.167 0.07752l-0.167 0.09866l-0.167 0.07752l-0.167 0.09866l-0.167 0.07752l-0.334 0.17618l-0.167 0.09866l-0.167 0.07752l-0.167 0.09866l-0.167 0.07752l-0.167 0.09866l-0.167 0.07752l-0.167 0.09866l-0.167 0.07752l-0.334 0.17618l-0.167 0.09338l-0.167 0.07399l-0.167 0.07752l-0.334 0.13742l-0.167 0.07752l-0.167 0.07399l-0.167 0.09338l-0.334 0.17618l-0.167 0.07752l-0.167 0.09866l-0.167 0.07752l-0.167 0.09866l-0.334 0.1709l-0.334 0.15151l-0.334 0.13742l-0.334 0.15151l-0.167 0.0881l-0.334 0.15151l-0.334 0.13742l-0.334 0.15151l-0.334 0.1709l-0.167 0.09338l-0.334 0.15151l-0.334 0.13742l-0.167 0.07399l-0.334 0.14095l-0.334 0.13742l-0.334 0.15151l-0.167 0.0881l-0.334 0.15151l-0.334 0.13742l-0.334 0.14095l-0.167 0.07399l-0.334 0.13742l-0.167 0.07399l-0.334 0.14095l-0.334 0.13742l-0.334 0.14095l-0.167 0.07399l-0.334 0.12686l-0.167 0.0599l-0.167 0.06342l-0.167 0.06342l-0.334 0.14095l-0.167 0.07399l-0.334 0.12686l-0.167 0.0599l-0.334 0.12686l-0.167 0.07399l-0.334 0.14095l-0.334 0.12686l-0.334 0.11805l-0.334 0.11805l-0.334 0.11628l-0.167 0.0599l-0.334 0.12686l-0.167 0.07399l-0.334 0.14095l-0.334 0.12686l-0.334 0.11805l-0.334 0.11805l-0.167 0.05814l-0.334 0.11805l-0.50099 0.17618l-0.167 0.05814l-0.167 0.05461l-0.167 0.05286l-0.167 0.04404l-0.334 0.09338l-0.334 0.10747l-0.167 0.05814l-0.50099 0.17618l-0.167 0.0599l-0.334 0.11275l-0.167 0.05286l-0.167 0.04404l-0.334 0.09338l-0.334 0.10747l-0.167 0.05814l-0.334 0.11805l-0.167 0.05461l-0.167 0.05286l-0.167 0.04404l-0.334 0.0881l-0.167 0.04934l-0.167 0.03876l-0.334 0.09338l-0.167 0.05286l-0.334 0.10924l-0.167 0.05286l-0.334 0.09338l-0.167 0.03876l-0.167 0.04934l-0.167 0.03876l-0.334 0.0881l-0.167 0.04934l-0.334 0.0881l-0.167 0.03876l-0.167 0.04934l-0.167 0.03876l-0.167 0.04934l-0.334 0.0881l-0.167 0.03876l-0.167 0.04934l-0.167 0.03876l-0.167 0.04934l-0.167 0.03876l-0.334 0.0881l-0.167 0.04934l-0.167 0.03876l-0.167 0.04934l-0.334 0.0828l-0.334 0.06871l-0.334 0.06871l-0.334 0.07399l-0.334 0.06695l-0.167 0.03523l-0.334 0.0828l-0.167 0.04934l-0.167 0.03876l-0.167 0.04404l-0.167 0.03523l-0.334 0.06695l-0.167 0.03523l-0.167 0.03876l-0.167 0.03523l-0.334 0.06695l-0.167 0.03523l-0.167 0.03876l-0.334 0.05814l-0.167 0.02114l-0.334 0.05814l-0.167 0.03876l-0.167 0.03523l-0.334 0.06695l-0.167 0.03523l-0.167 0.03876l-0.334 0.05814l-0.167 0.02114l-0.334 0.05814l-0.167 0.03876l-0.334 0.05461l-0.334 0.02818l-0.334 0.05461l-0.334 0.06871l-0.167 0.02466l-0.334 0.02818l-0.334 0.05461l-0.334 0.06871l-0.167 0.02466l-0.334 0.02818l-0.167 0.02466l-0.334 0.06871l-0.334 0.05461l-0.167 0.00881l-0.334 0.01938l-0.334 0.05461l-0.167 0.03876l-0.334 0.05461l-0.167 0.00881l-0.334 0.00528l-0.167 0.00528l-0.167 0.00881l-0.334 0.05461l-0.167 0.03876l-0.334 0.05461l-0.167 0.00881l-0.167 0.00528l-0.334 0l-0.334 0.00528l-0.167 0.00881l-0.334 0.05461l-0.167 0.03876l-0.334 0.05461l-0.167 0.00881l-0.334 0.00528l-0.167 0l-0.50099 0l-0.334 0.00528l-0.167 0.00881l-0.334 0.05461l-0.167 0.03876l-0.334 0.05461l-0.167 0.00881l-0.334 0.00528l-0.167 0l-0.83499 0l-0.334 0l-0.334 0l-0.50099 0l-1.33598 0l-2.33797 0l-0.167 0l-0.66799 0l-0.167 0l-0.334 -0.00528l-0.167 -0.00881l-0.334 -0.05461l-0.167 -0.03876l-0.334 -0.05461l-0.167 -0.00881l-0.334 -0.00528l-0.167 0l-0.334 0l-0.334 -0.00528l-0.167 -0.00881l-0.334 -0.05461l-0.167 -0.03876l-0.334 -0.05461l-0.167 -0.00881l-0.334 -0.00528l-0.334 -0.00528l-0.167 -0.00881l-0.334 -0.05461l-0.167 -0.03876l-0.334 -0.05461l-0.167 -0.00881l-0.334 -0.01058l-0.167 -0.00881l-0.334 -0.05461l-0.334 -0.06871l-0.167 -0.02466l-0.334 -0.02818l-0.167 -0.02466l-0.334 -0.06871l-0.334 -0.05814l-0.167 -0.02114l-0.334 -0.05814l-0.334 -0.06871l-0.167 -0.02466l-0.334 -0.02818l-0.167 -0.02466l-0.167 -0.02995l-0.334 -0.07399l-0.334 -0.06695l-0.167 -0.03523l-0.167 -0.03876l-0.167 -0.03523l-0.334 -0.06695l-0.167 -0.03523l-0.167 -0.03876l-0.167 -0.03523l-0.334 -0.06695l-0.167 -0.03523l-0.334 -0.07399l-0.334 -0.06695l-0.167 -0.03523l-0.334 -0.0828l-0.167 -0.04934l-0.167 -0.03876l-0.167 -0.04934l-0.167 -0.03876l-0.167 -0.04934l-0.167 -0.03876l-0.334 -0.0881l-0.167 -0.04934l-0.167 -0.03876l-0.334 -0.0881l-0.167 -0.04934l-0.167 -0.03876l-0.167 -0.04934l-0.167 -0.03876l-0.334 -0.09338l-0.167 -0.05286l-0.167 -0.05461l-0.334 -0.11805l-0.167 -0.05814l-0.167 -0.05461l-0.167 -0.05286l-0.334 -0.09338l-0.167 -0.04404l-0.334 -0.10747l-0.167 -0.05814l-0.334 -0.11805l-0.334 -0.11805l-0.167 -0.05814l-0.50099 -0.17618l-0.50099 -0.17618l-0.167 -0.05814l-0.334 -0.12333l-0.167 -0.06342l-0.167 -0.07399l-0.334 -0.14095l-0.334 -0.13742l-0.334 -0.14095l-0.167 -0.07399l-0.334 -0.13742l-0.167 -0.07399l-0.334 -0.14095l-0.334 -0.13742l-0.334 -0.15151l-0.167 -0.0881l-0.334 -0.15151l-0.334 -0.13742l-0.334 -0.15151l-0.334 -0.1709l-0.167 -0.09866l-0.167 -0.07752l-0.334 -0.17618l-0.167 -0.09866l-0.167 -0.07752l-0.167 -0.09866l-0.167 -0.07752l-0.167 -0.09866l-0.167 -0.07752l-0.334 -0.17618l-0.167 -0.09866l-0.167 -0.07752l-0.167 -0.09866l-0.167 -0.07752l-0.167 -0.09866l-0.167 -0.07752l-0.167 -0.09866l-0.167 -0.07752l-0.334 -0.18147l-0.167 -0.10218l-0.167 -0.09866l-0.334 -0.21495l-0.334 -0.20085l-0.167 -0.0881l-0.334 -0.20085l-0.167 -0.11275l-0.167 -0.11275l-0.167 -0.11628l-0.334 -0.22552l-0.334 -0.21142l-0.167 -0.10218l-0.334 -0.22552l-0.167 -0.11628l-0.50099 -0.35237l-0.50099 -0.35237l-0.167 -0.11805l-0.334 -0.2449l-0.167 -0.13214l-0.334 -0.25899l-0.167 -0.12333l-0.334 -0.24314l-0.167 -0.12333l-0.167 -0.13214l-0.167 -0.12686l-0.334 -0.26956l-0.167 -0.14095l-0.334 -0.28542l-0.167 -0.14095l-0.167 -0.13742l-0.167 -0.14095l-0.334 -0.28542l-0.167 -0.14095l-0.334 -0.28366l-0.167 -0.15151l-0.334 -0.32418l-0.167 -0.15151l-0.334 -0.28366l-0.167 -0.14623l-0.167 -0.15151l-0.334 -0.33827l-0.167 -0.17618l-0.334 -0.35237l-1.16898 -1.2333l-1.16898 -1.2333l-0.334 -0.35237l-0.32932 -0.35237l-0.15781 -0.17618l-0.28289 -0.35237l-0.26903 -0.35237l-0.14378 -0.17618l-0.30627 -0.35237l-0.14378 -0.17618l-0.26903 -0.35237l-0.27839 -0.35237l-0.14829 -0.17618l-0.27839 -0.35237l-0.12524 -0.17618l-0.2505 -0.35237l-0.12992 -0.17618l-0.12057 -0.17618l-0.2505 -0.35237l-0.12992 -0.17618l-0.12057 -0.17618l-0.12992 -0.17618l-0.24582 -0.35237l-0.11606 -0.17618l-0.11589 -0.17618l-0.11139 -0.17618l-0.22261 -0.35237l-0.66799 -1.05712l-0.334 -0.52855l-0.11139 -0.17618l-0.21793 -0.35237l-0.10671 -0.17618l-0.09736 -0.17618l-0.19956 -0.35237l-0.20407 -0.35237l-0.09736 -0.17618l-0.19956 -0.35237l-0.20407 -0.35237l-0.09285 -0.17618l-0.09736 -0.17618l-0.07882 -0.17618l-0.17167 -0.35237l-0.09736 -0.17618l-0.09285 -0.17618l-0.20407 -0.35237l-0.09285 -0.17618l-0.09736 -0.17618l-0.07882 -0.17618l-0.167 -0.35237l-0.09285 -0.17618l-0.07415 -0.17618l-0.09285 -0.17618l-0.07415 -0.17618l-0.09285 -0.17618l-0.07415 -0.17618l-0.167 -0.35237l-0.08817 -0.17618l-0.06964 -0.17618l-0.07415 -0.17618l-0.12992 -0.35237l-0.07415 -0.17618l-0.06964 -0.17618l-0.16232 -0.35237l-0.08817 -0.17618l-0.14378 -0.35237l-0.12992 -0.35237l-0.14378 -0.35237l-0.0835 -0.17618l-0.14378 -0.35237l-0.12992 -0.35237l-0.13443 -0.35237l-0.06964 -0.17618l-0.12057 -0.35237l-0.05578 -0.17618l-0.06028 -0.17618l-0.06028 -0.17618l-0.06964 -0.17618l-0.13443 -0.35237l-0.12057 -0.35237l-0.11139 -0.35237l-0.05561 -0.17618l-0.11139 -0.35237l-0.05561 -0.17618l-0.167 -0.52855l-0.11139 -0.35237l-0.10204 -0.35237l-0.04175 -0.17618l-0.08817 -0.35237l-0.05093 -0.17618l-0.0511 -0.17618l-0.05561 -0.17618l-0.11139 -0.35237l-0.0511 -0.17618l-0.05093 -0.17618l-0.08817 -0.35237l-0.03707 -0.17618l-0.04643 -0.17618l-0.03707 -0.17618l-0.04643 -0.17618l-0.03707 -0.17618l-0.0835 -0.35237l-0.04643 -0.17618l-0.03707 -0.17618l-0.04643 -0.17618l-0.03707 -0.17618l-0.04643 -0.17618l-0.03707 -0.17618l-0.0835 -0.35237l-0.04643 -0.17618l-0.03707 -0.17618l-0.04643 -0.17618l-0.03707 -0.17618l-0.04643 -0.17618l-0.07882 -0.35237l-0.03256 -0.17618l-0.0648 -0.35237l-0.06964 -0.35237l-0.03256 -0.17618l-0.0648 -0.35237l-0.03256 -0.17618l-0.03707 -0.17618l-0.03256 -0.17618l-0.0648 -0.35237l-0.03256 -0.17618l-0.03707 -0.17618l-0.05561 -0.35237l-0.04643 -0.35237l-0.06496 -0.35237l-0.0511 -0.35237l-0.02772 -0.35237l-0.02321 -0.17618l-0.06496 -0.35237l-0.0511 -0.35237l-0.02772 -0.35237l-0.02321 -0.17618l-0.06496 -0.35237l-0.02789 -0.17618l-0.02321 -0.17618l-0.02772 -0.35237l-0.02321 -0.17618l-0.06496 -0.35237l-0.0511 -0.35237l-0.00919 -0.17618l-0.00468 -0.35237l-0.00468 -0.17618l-0.00919 -0.17618l-0.0511 -0.35237l-0.03707 -0.17618l-0.0511 -0.35237l-0.00919 -0.17618l-0.00468 -0.35237l0 -0.35237l0 -0.17618l-0.00468 -0.17618l-0.00919 -0.17618l-0.0511 -0.35237l-0.03707 -0.17618l-0.0511 -0.35237l-0.00919 -0.17618l-0.00468 -0.35237l0 -0.52855l0 -1.40949l0 -0.52855l0 -0.17618l-0.01386 -0.35237l-0.0511 -0.35237l-0.03707 -0.17618l-0.0511 -0.35237l-0.01386 -0.35237l0 -0.17618l0 -0.52855l0 -0.35237l0.00468 -0.17618l0.00919 -0.17618l0.0511 -0.35237l0.03707 -0.17618l0.0511 -0.35237l0.00919 -0.17618l0.00468 -0.35237l0 -0.52855l0 -0.70474l0 -0.88092l0 -0.35237l0.00468 -0.35237l0.00919 -0.17618l0.0511 -0.35237l0.03707 -0.17618l0.0511 -0.35237l0.00919 -0.17618l0.00468 -0.35237l0 -0.17618l0 -0.35237l0.00468 -0.35237l0.00919 -0.17618l0.0511 -0.35237l0.03707 -0.17618l0.0511 -0.35237l0.00919 -0.17618l0.00468 -0.35237l0.00468 -0.35237l0.00919 -0.17618l0.0511 -0.35237l0.03707 -0.17618l0.0511 -0.35237l0.00919 -0.17618l0.00935 -0.35237l0.00919 -0.17618l0.0511 -0.35237l0.06496 -0.35237l0.02321 -0.17618l0.02772 -0.35237l0.02321 -0.17618l0.06496 -0.35237l0.0511 -0.35237l0.01854 -0.35237l0.00919 -0.17618l0.0511 -0.35237l0.06496 -0.35237l0.02321 -0.17618l0.02772 -0.35237l0.02321 -0.17618l0.06496 -0.35237l0.05561 -0.35237l0.0187 -0.17618l0.05561 -0.35237l0.03707 -0.17618l0.03256 -0.17618l0.0648 -0.35237l0.03256 -0.17618l0.03707 -0.17618l0.05561 -0.35237l0.0187 -0.17618l0.05561 -0.35237l0.06964 -0.35237l0.0648 -0.35237l0.03256 -0.17618l0.03707 -0.17618l0.03256 -0.17618l0.0648 -0.35237l0.03256 -0.17618l0.03707 -0.17618l0.03256 -0.17618l0.0648 -0.35237l0.03256 -0.17618l0.06964 -0.35237l0.0648 -0.35237l0.03256 -0.17618l0.07882 -0.35237l0.04643 -0.17618l0.03707 -0.17618l0.04175 -0.17618l0.03256 -0.17618l0.0648 -0.35237l0.03256 -0.17618l0.07882 -0.35237l0.04643 -0.17618l0.03707 -0.17618l0.04643 -0.17618l0.03707 -0.17618l0.0835 -0.35237l0.04643 -0.17618l0.03707 -0.17618l0.04643 -0.17618l0.03707 -0.17618l0.04643 -0.17618l0.03707 -0.17618l0.04643 -0.17618l0.0835 -0.35237l0.03707 -0.17618l0.04643 -0.17618l0.03707 -0.17618l0.04643 -0.17618l0.0835 -0.35237l0.03707 -0.17618l0.04643 -0.17618l0.03707 -0.17618l0.08817 -0.35237l0.05093 -0.17618l0.1022 -0.35237l0.05093 -0.17618l0.08817 -0.35237l0.04175 -0.17618l0.05093 -0.17618l0.1022 -0.35237l0.05093 -0.17618l0.08817 -0.35237l0.04175 -0.17618l0.05093 -0.17618l0.1022 -0.35237l0.05093 -0.17618l0.04175 -0.17618l0.08817 -0.35237l0.10204 -0.35237l0.11139 -0.35237l0.22261 -0.70474l0.44538 -1.40949l0.11122 -0.35237l0.11139 -0.35237l0.167 -0.52855l0.05561 -0.17618l0.05578 -0.17618l0.11122 -0.35237l0.22278 -0.70474l0.22261 -0.70474l0.11139 -0.35237l0.12057 -0.35237l0.13443 -0.35237l0.06964 -0.17618l0.06028 -0.17618l0.06028 -0.17618l0.05578 -0.17618l0.12057 -0.35237l0.13443 -0.35237l0.06964 -0.17618l0.12057 -0.35237l0.05578 -0.17618l0.12057 -0.35237l0.06964 -0.17618l0.13443 -0.35237l0.12992 -0.35237l0.13443 -0.35237l0.06964 -0.17618l0.12992 -0.35237l0.13443 -0.35237l0.06964 -0.17618l0.12992 -0.35237l0.06964 -0.17618l0.13443 -0.35237l0.12992 -0.35237l0.14378 -0.35237l0.0835 -0.17618l0.14378 -0.35237l0.12992 -0.35237l0.14378 -0.35237l0.0835 -0.17618l0.14378 -0.35237l0.12992 -0.35237l0.14378 -0.35237l0.08817 -0.17618l0.16232 -0.35237l0.06964 -0.17618l0.07415 -0.17618l0.12992 -0.35237l0.07415 -0.17618l0.06964 -0.17618l0.16232 -0.35237l0.09285 -0.17618l0.07415 -0.17618l0.08817 -0.17618l0.06964 -0.17618l0.07415 -0.17618l0.12992 -0.35237l0.07415 -0.17618l0.06964 -0.17618l0.08817 -0.17618l0.167 -0.35237l0.07415 -0.17618l0.09285 -0.17618l0.07415 -0.17618l0.09285 -0.17618l0.167 -0.35237l0.07415 -0.17618l0.09285 -0.17618l0.07415 -0.17618l0.09285 -0.17618l0.07415 -0.17618l0.167 -0.35237l0.09285 -0.17618l0.07415 -0.17618l0.09285 -0.17618l0.07415 -0.17618l0.09285 -0.17618l0.07415 -0.17618l0.167 -0.35237l0.09285 -0.17618l0.07415 -0.17618l0.09285 -0.17618l0.07415 -0.17618l0.09285 -0.17618l0.07415 -0.17618l0.09285 -0.17618l0.07415 -0.17618l0.09285 -0.17618l0.167 -0.35237l0.07415 -0.17618l0.09285 -0.17618l0.167 -0.35237l0.07882 -0.17618l0.09736 -0.17618l0.09285 -0.17618l0.20407 -0.35237l0.09285 -0.17618l0.09736 -0.17618l0.17167 -0.35237l0.07415 -0.17618l0.09285 -0.17618l0.07882 -0.17618l0.09736 -0.17618l0.09285 -0.17618l0.20407 -0.35237l0.09285 -0.17618l0.09736 -0.17618l0.17167 -0.35237l0.07882 -0.17618l0.19021 -0.35237l0.20407 -0.35237l0.19021 -0.35237l0.0835 -0.17618l0.19021 -0.35237l0.20407 -0.35237l0.09736 -0.17618l0.19956 -0.35237l0.20407 -0.35237l0.19021 -0.35237l0.0835 -0.17618l0.19021 -0.35237l0.20407 -0.35237l0.19956 -0.35237l0.09736 -0.17618l0.20407 -0.35237l0.19956 -0.35237l0.09736 -0.17618l0.10671 -0.17618l0.10671 -0.17618l0.11122 -0.17618l0.21342 -0.35237l0.09736 -0.17618l0.19956 -0.35237l0.21342 -0.35237l0.11122 -0.17618l0.22278 -0.35237l0.11122 -0.17618l0.21342 -0.35237l0.19956 -0.35237l0.09736 -0.17618l0.21342 -0.35237l0.11122 -0.17618l0.22278 -0.35237l0.11122 -0.17618l0.11139 -0.17618l0.22261 -0.35237l0.44538 -0.70474l0.22261 -0.35237l0.55677 -0.88092l0.11122 -0.17618l0.334 -0.52855l0.11139 -0.17618l0.22261 -0.35237l0.11139 -0.17618l0.23196 -0.35237l0.24582 -0.35237l0.12524 -0.17618l0.11606 -0.17618l0.11589 -0.17618l0.11139 -0.17618l0.22261 -0.35237l0.11589 -0.17618l0.11606 -0.17618l0.12524 -0.17618l0.2505 -0.35237l0.12057 -0.17618l0.12992 -0.17618l0.24582 -0.35237l0.11606 -0.17618l0.23179 -0.35237l0.11606 -0.17618l0.24582 -0.35237l0.12992 -0.17618l0.12057 -0.17618l0.12992 -0.17618l0.12057 -0.17618l0.2505 -0.35237l0.12992 -0.17618l0.12057 -0.17618l0.12992 -0.17618l0.12057 -0.17618l0.12992 -0.17618l0.2505 -0.35237l0.12057 -0.17618l0.12992 -0.17618l0.12057 -0.17618l0.25517 -0.35237l0.13443 -0.17618l0.2692 -0.35237l0.13443 -0.17618l0.25517 -0.35237l0.12057 -0.17618l0.12992 -0.17618l0.12524 -0.17618l0.13443 -0.17618l0.2692 -0.35237l0.26435 -0.35237l0.13443 -0.17618l0.2692 -0.35237l0.13443 -0.17618l0.12992 -0.17618l0.13443 -0.17618l0.2692 -0.35237l0.13443 -0.17618l0.12992 -0.17618l0.13443 -0.17618l0.2692 -0.35237l0.26435 -0.35237l0.28289 -0.35237l0.30627 -0.35237l0.14378 -0.17618l0.26903 -0.35237l0.27839 -0.35237l0.14829 -0.17618l0.27839 -0.35237l0.26903 -0.35237l0.14378 -0.17618l0.30627 -0.35237l0.14378 -0.17618l0.26903 -0.35237l0.28289 -0.35237l0.15781 -0.17618l0.31546 -0.35237l0.28289 -0.35237l0.12992 -0.17618l0.28289 -0.35237l0.15781 -0.17618l0.32464 -0.35237l0.15781 -0.17618l0.28289 -0.35237l0.12992 -0.17618l0.28289 -0.35237l0.15781 -0.17618l0.32932 -0.35237l0.32932 -0.35237l0.15781 -0.17618l0.28289 -0.35237l0.12992 -0.17618l0.28289 -0.35237l0.15781 -0.17618l0.16232 -0.17618l0.334 -0.35237l0.167 -0.17618l0.334 -0.35237l0.334 -0.35237l0.167 -0.17618l0.167 -0.17618l0.32932 -0.35237l0.15781 -0.17618l0.28289 -0.35237l0.12992 -0.17618l0.28289 -0.35237l0.15781 -0.17618l0.32932 -0.35237l0.334 -0.35237l0.50099 -0.52855l0.334 -0.35237l0.167 -0.17618l0.50099 -0.52855l0.334 -0.35237l0.334 -0.35237l0.167 -0.17125l0.167 -0.1665l0.334 -0.29846l0.167 -0.13707l0.334 -0.29846l0.167 -0.1665l0.334 -0.34745l0.167 -0.17618l0.167 -0.17618l0.66799 -0.70474l0.167 -0.17618l0.334 -0.35237l0.167 -0.17125l0.167 -0.1665l0.334 -0.29846l0.167 -0.13707l0.334 -0.29846l0.167 -0.1665l0.334 -0.34745l0.334 -0.34745l0.167 -0.1665l0.334 -0.29846l0.167 -0.13707l0.334 -0.29846l0.167 -0.1665l0.334 -0.3425l0.167 -0.1665l0.334 -0.29846l0.167 -0.13707l0.334 -0.29846l0.334 -0.33282l0.167 -0.1665l0.334 -0.29846l0.334 -0.28384l0.167 -0.1517l0.334 -0.32312l0.167 -0.1517l0.334 -0.28384l0.334 -0.2937l0.167 -0.15644l0.334 -0.2937l0.334 -0.28384l0.167 -0.1517l0.334 -0.32312l0.334 -0.29846l0.334 -0.2789l0.334 -0.28401l0.167 -0.14183l0.167 -0.13707l0.167 -0.14183l0.334 -0.28401l0.167 -0.14183l0.167 -0.13707l0.167 -0.14183l0.334 -0.28401l0.167 -0.14183l0.334 -0.2789l0.334 -0.28401l0.167 -0.14183l0.334 -0.26922l0.167 -0.1272l0.167 -0.13707l0.167 -0.13214l0.167 -0.14183l0.334 -0.28401l0.167 -0.14183l0.334 -0.26922l0.167 -0.1272l0.167 -0.13707l0.167 -0.1272l0.167 -0.13707l0.167 -0.1272l0.167 -0.13707l0.334 -0.26428l0.167 -0.1272l0.167 -0.13707l0.334 -0.26428l0.167 -0.1272l0.167 -0.13707l0.167 -0.1272l0.167 -0.13707l0.334 -0.25935l0.167 -0.12245l0.334 -0.24454l0.167 -0.12245l0.334 -0.25935l0.167 -0.13707l0.167 -0.1272l0.334 -0.26428l0.167 -0.13214l0.167 -0.12245l0.167 -0.12227l0.334 -0.23485l0.167 -0.11752l0.167 -0.12227l0.167 -0.12245l0.334 -0.25935l0.167 -0.13214l0.334 -0.24472l0.167 -0.11752l0.167 -0.11734l0.334 -0.23503l0.167 -0.11734l0.334 -0.23503l0.167 -0.11734l0.167 -0.11752l0.167 -0.11752l0.334 -0.23485l0.167 -0.11752l0.167 -0.11734l0.334 -0.23503l0.167 -0.11734l0.167 -0.11752l0.167 -0.11752l0.167 -0.11734l0.334 -0.23503l0.167 -0.11734l0.334 -0.23503l0.167 -0.11734l0.334 -0.22517l0.334 -0.21055l0.167 -0.10272l0.167 -0.11258l0.167 -0.11258l0.167 -0.11734l0.334 -0.23503l0.167 -0.11734l0.167 -0.11258l0.167 -0.11258l0.167 -0.10272l0.334 -0.21055l0.334 -0.2153l0.334 -0.21055l0.167 -0.10272l0.167 -0.11258l0.167 -0.11258l0.167 -0.11734l0.334 -0.22517l0.167 -0.10272l0.334 -0.21055l0.334 -0.2153l0.334 -0.20068l0.167 -0.0881l0.334 -0.20068l0.334 -0.2153l0.167 -0.10272l0.334 -0.21055l0.334 -0.2153l0.334 -0.20068l0.167 -0.0881l0.334 -0.20068l0.334 -0.2153l0.334 -0.20068l0.167 -0.08316l0.334 -0.18112l0.167 -0.10272l0.167 -0.09796l0.334 -0.2153l0.167 -0.09796l0.167 -0.10272l0.334 -0.18112l0.167 -0.07823l0.167 -0.09796l0.167 -0.08316l0.167 -0.10272l0.167 -0.09796l0.334 -0.2153l0.167 -0.09796l0.167 -0.10272l0.167 -0.08316l0.334 -0.17618l0.167 -0.09796l0.167 -0.07823l0.167 -0.09796l0.167 -0.07823l0.334 -0.17618l0.167 -0.09796l0.167 -0.07823l0.167 -0.09796l0.167 -0.07823l0.167 -0.09796l0.167 -0.07823l0.167 -0.09796l0.167 -0.07823l0.167 -0.09796l0.167 -0.07823l0.167 -0.09796l0.334 -0.17618l0.167 -0.07823l0.167 -0.09796l0.167 -0.07823l0.167 -0.09796l0.167 -0.07823l0.334 -0.17618l0.167 -0.09796l0.167 -0.07823l0.167 -0.09796l0.167 -0.07823l0.167 -0.09796l0.167 -0.07823l0.167 -0.09796l0.167 -0.07823l0.334 -0.17618l0.167 -0.09303l0.167 -0.07347l0.167 -0.07823l0.334 -0.13707l0.167 -0.07823l0.167 -0.07347l0.334 -0.17125l0.167 -0.09796l0.167 -0.07823l0.167 -0.09303l0.167 -0.07347l0.167 -0.07823l0.334 -0.13707l0.167 -0.07823l0.167 -0.07347l0.334 -0.17125l0.167 -0.09303l0.334 -0.1517l0.334 -0.13707l0.334 -0.1517l0.167 -0.0881l0.334 -0.1517l0.334 -0.13707l0.334 -0.1517l0.167 -0.0881l0.334 -0.1517l0.334 -0.13707l0.334 -0.14183l0.167 -0.07347l0.334 -0.13707l0.167 -0.07347l0.334 -0.14183l0.334 -0.13707l0.167 -0.07347l0.334 -0.14183l0.334 -0.13707l0.334 -0.14183l0.167 -0.07347l0.167 -0.0636l0.167 -0.0636l0.167 -0.05885l0.334 -0.1272l0.334 -0.14183l0.167 -0.07347l0.334 -0.1272l0.167 -0.05885l0.334 -0.1272l0.167 -0.07347l0.334 -0.14183l0.334 -0.1272l0.334 -0.11752l0.334 -0.11752l0.334 -0.11734l0.167 -0.05885l0.334 -0.11734l0.167 -0.05885l0.167 -0.05867l0.167 -0.05867l0.167 -0.05885l0.334 -0.11734l0.167 -0.05885l0.167 -0.05867l0.167 -0.05867l0.167 -0.05885l0.334 -0.11734l0.167 -0.05885l0.167 -0.05867l0.167 -0.05867l0.334 -0.11752l0.167 -0.05867l0.334 -0.11752l0.167 -0.05867l0.334 -0.11752l0.167 -0.05867l0.334 -0.11752l0.334 -0.10765l0.334 -0.09303l0.167 -0.04404l0.167 -0.05374l0.334 -0.10783l0.167 -0.05374l0.167 -0.04404l0.334 -0.09303l0.167 -0.05374l0.334 -0.10783l0.167 -0.05374l0.167 -0.04404l0.334 -0.09303l0.167 -0.05374l0.334 -0.10783l0.167 -0.05374l0.334 -0.09303l0.167 -0.03911l0.167 -0.04898l0.167 -0.03911l0.167 -0.04898l0.167 -0.03911l0.334 -0.0881l0.167 -0.04898l0.167 -0.03911l0.167 -0.04898l0.167 -0.03911l0.167 -0.04898l0.167 -0.03911l0.167 -0.04898l0.167 -0.03911l0.334 -0.0881l0.167 -0.04898l0.167 -0.03911l0.334 -0.0881l0.167 -0.04898l0.167 -0.03911l0.167 -0.04898l0.334 -0.08316l0.167 -0.03436l0.334 -0.06837l0.167 -0.03436l0.334 -0.08316l0.167 -0.04898l0.167 -0.03911l0.167 -0.04404l0.167 -0.03436l0.334 -0.06837l0.167 -0.03436l0.167 -0.03911l0.167 -0.03436l0.334 -0.06837l0.167 -0.03436l0.167 -0.03911l0.167 -0.03436l0.334 -0.06837l0.167 -0.03436l0.167 -0.03911l0.167 -0.03436l0.334 -0.06837l0.167 -0.03436l0.167 -0.03911l0.167 -0.03436l0.334 -0.06837l0.334 -0.07347l0.334 -0.05867l0.334 -0.04898l0.334 -0.06853l0.334 -0.05391l0.334 -0.02924l0.167 -0.0245l0.334 -0.06853l0.334 -0.05867l0.167 -0.01973l0.334 -0.05867l0.334 -0.06853l0.167 -0.0245l0.334 -0.02924l0.167 -0.0245l0.334 -0.06853l0.334 -0.05391l0.167 -0.0097l0.334 -0.00987l0.167 -0.0097l0.334 -0.05391l0.167 -0.03911l0.334 -0.05391l0.167 -0.0097l0.334 -0.00987l0.167 -0.0097l0.334 -0.05391l0.167 -0.03911l0.334 -0.05391l0.167 -0.0097l0.167 -0.00493l0.334 -0.00493l0.167 -0.0097l0.334 -0.05391l0.167 -0.03911l0.334 -0.05391l0.167 -0.0097l0.334 -0.00493l0.334 0l0.167 -0.00493l0.167 -0.0097l0.334 -0.05391l0.167 -0.03911l0.334 -0.05391l0.167 -0.0097l0.334 -0.00493l0.66799 0l0.66799 0l0.334 0l0.50099 0l0.334 0l0.167 0l0.334 0l0.334 -0.01463l0.334 -0.05391l0.167 -0.03911l0.334 -0.05391l0.334 -0.01463l0.167 0l0.334 0l0.334 0.00493l0.167 0.0097l0.334 0.05391l0.167 0.03911l0.334 0.05391l0.167 0.0097l0.334 0.00493l0.334 0l0.167 0l0.167 0l0.50099 0l0.334 0l0.334 0l0.167 0l0.167 0l0.167 0l0.334 0l0.334 0.00493l0.167 0.0097l0.334 0.05391l0.167 0.03911l0.334 0.05391l0.167 0.0097l0.334 0.00493l0.334 0l0.167 0.00493l0.167 0.0097l0.334 0.05391l0.167 0.03911l0.334 0.05391l0.167 0.0097l0.334 0.00987l0.167 0.0097l0.334 0.05391l0.167 0.03911l0.334 0.05391l0.334 0.01956l0.167 0.0097l0.334 0.05391l0.167 0.03911l0.334 0.05391l0.167 0.0097l0.334 0.01956l0.334 0.05391l0.334 0.06853l0.167 0.02924l0.167 0.01973l0.334 0.05867l0.167 0.03911l0.167 0.03436l0.334 0.06837l0.167 0.03436l0.167 0.03911l0.334 0.05867l0.167 0.01973l0.334 0.05867l0.167 0.03911l0.167 0.03436l0.334 0.06837l0.167 0.03436l0.167 0.03911l0.167 0.03436l0.334 0.06837l0.167 0.03436l0.334 0.08316l0.167 0.04898l0.167 0.03911l0.167 0.04898l0.334 0.0881l0.167 0.03911l0.334 0.0881l0.167 0.04898l0.167 0.03911l0.167 0.04898l0.167 0.03911l0.167 0.04898l0.334 0.0881l0.167 0.03911l0.167 0.04898l0.167 0.03911l0.167 0.04898l0.167 0.03911l0.334 0.09303l0.167 0.05374l0.167 0.05391l0.334 0.11752l0.167 0.05867l0.167 0.05391l0.167 0.05374l0.167 0.04404l0.334 0.09303l0.334 0.10765l0.167 0.05867l0.167 0.05885l0.334 0.11734l0.167 0.05885l0.334 0.11734l0.167 0.05885l0.334 0.1272l0.167 0.07347l0.334 0.14183l0.334 0.1272l0.167 0.05885l0.167 0.0636l0.167 0.0636l0.167 0.07347l0.334 0.14183l0.334 0.13707l0.334 0.14183l0.167 0.07347l0.334 0.13707l0.167 0.07347l0.334 0.14183l0.334 0.13707l0.167 0.07823l0.167 0.07347l0.167 0.09303l0.167 0.07823l0.167 0.09796l0.334 0.17125l0.167 0.07347l0.167 0.07823l0.334 0.13707l0.167 0.07823l0.167 0.07347l0.167 0.09303l0.334 0.17618l0.167 0.07823l0.167 0.09796l0.167 0.07823l0.167 0.09796l0.334 0.17618l0.167 0.08316l0.167 0.10272l0.167 0.09796l0.334 0.2153l0.167 0.09796l0.167 0.10272l0.334 0.18112l0.167 0.08316l0.167 0.10272l0.167 0.09796l0.334 0.2153l0.334 0.21055l0.167 0.10272l0.334 0.2153l0.334 0.21055l0.167 0.10272l0.167 0.11258l0.167 0.11258l0.334 0.23485l0.167 0.11752l0.334 0.23485l0.167 0.11752l0.334 0.23485l0.167 0.11752l0.334 0.23485l0.167 0.11752l0.334 0.23485l0.167 0.12227l0.167 0.12245l0.334 0.25935l0.167 0.13707l0.167 0.1272l0.167 0.13707l0.167 0.1272l0.334 0.26922l0.167 0.14183l0.334 0.28401l0.167 0.14183l0.167 0.13707l0.167 0.14183l0.334 0.28401l0.167 0.14183l0.334 0.28384l0.334 0.31325l0.167 0.16156l0.334 0.29846l0.167 0.13707l0.334 0.29846l0.167 0.1665l0.167 0.17125l0.334 0.35237l0.167 0.17618l0.334 0.35237l0.66799 0.70474l0.167 0.17618l0.334 0.35237l0.66799 0.70474l0.334 0.35237l0.32898 0.35237l0.15865 0.17618l0.28222 0.35237l0.13026 0.17618l0.28222 0.35237l0.15865 0.17618l0.31563 0.35237l0.14361 0.17618l0.13861 0.17618l0.26385 0.35237l0.27054 0.35237l0.13359 0.17618l0.2555 0.35237l0.12024 0.17618l0.13026 0.17618l0.12524 0.17618l0.13359 0.17618l0.27054 0.35237l0.12859 0.17618l0.12191 0.17618l0.23046 0.35237l0.1169 0.17618l0.24548 0.35237l0.12524 0.17618l0.1169 0.17618l0.11522 0.17618l0.11189 0.17618l0.11022 0.17618l0.22378 0.35237l0.11022 0.17618l0.22378 0.35237l0.11022 0.17618l0.10688 0.17618l0.10688 0.17618l0.09685 0.17618l0.2004 0.35237l0.20374 0.35237l0.2004 0.35237l0.09685 0.17618l0.20374 0.35237l0.2004 0.35237l0.09685 0.17618l0.20374 0.35237l0.09352 0.17618l0.09685 0.17618l0.172 0.35237l0.07348 0.17618l0.09352 0.17618l0.07348 0.17618l0.09352 0.17618l0.07348 0.17618l0.167 0.35237l0.09352 0.17618l0.07348 0.17618l0.09352 0.17618l0.07348 0.17618l0.09352 0.17618l0.07348 0.17618l0.09352 0.17618l0.07348 0.17618l0.09352 0.17618l0.167 0.35237l0.07348 0.17618l0.09352 0.17618l0.16198 0.35237l0.07014 0.17618l0.07348 0.17618l0.13026 0.35237l0.14361 0.35237l0.0835 0.17618l0.14361 0.35237l0.13026 0.35237l0.13359 0.35237l0.07014 0.17618l0.13026 0.35237l0.13359 0.35237l0.07014 0.17618l0.12024 0.35237l0.05678 0.17618l0.06011 0.17618l0.06011 0.17618l0.07014 0.17618l0.13359 0.35237l0.12024 0.35237l0.11189 0.35237l0.11189 0.35237l0.05511 0.17618l0.11189 0.35237l0.05511 0.17618l0.11189 0.35237l0.05511 0.17618l0.05177 0.17618l0.0501 0.17618l0.08851 0.35237l0.04175 0.17618l0.0501 0.17618l0.10354 0.35237l0.0501 0.17618l0.08851 0.35237l0.04175 0.17618l0.0501 0.17618l0.10354 0.35237l0.0501 0.17618l0.08851 0.35237l0.03674 0.17618l0.04676 0.17618l0.03674 0.17618l0.04676 0.17618l0.0835 0.35237l0.03674 0.17618l0.04676 0.17618l0.0835 0.35237l0.03674 0.17618l0.04676 0.17618l0.07848 0.35237l0.0334 0.17618l0.06346 0.35237l0.07014 0.35237l0.0334 0.17618l0.06346 0.35237l0.0334 0.17618l0.03674 0.17618l0.0334 0.17618l0.06346 0.35237l0.0334 0.17618l0.03674 0.17618l0.0334 0.17618l0.06346 0.35237l0.07014 0.35237l0.05511 0.35237l0.02004 0.17618l0.05511 0.35237l0.06513 0.35237l0.02338 0.17618l0.02672 0.35237l0.02338 0.17618l0.06513 0.35237l0.05177 0.35237l0.00835 0.17618l0.01837 0.35237l0.05177 0.35237l0.03674 0.17618l0.05177 0.35237l0.00835 0.17618l0.01837 0.35237l0.02338 0.17618l0.06513 0.35237l0.05177 0.35237l0.00835 0.17618l0.00501 0.35237l0.00501 0.17618l0.00835 0.17618l0.05177 0.35237l0.03674 0.17618l0.05177 0.35237l0.00835 0.17618l0.00501 0.35237l0 0.35237l0 0.52855l0 0.17618l0.00501 0.35237l0.00835 0.17618l0.05177 0.35237l0.03674 0.17618l0.05177 0.35237l0.00835 0.17618l0.00501 0.35237l0 0.17618l0 0.70474l0 0.17618l0 0.17618l0 0.17618l0 0.70474l0 0.17618l0 0.17618l0 0.88092l0 0.16632l0 0.53843l0.34402 0l0.167 0l0.82497 0l0.167 0l0.167 0l0.334 0l0.50099 0l0.66799 0l0.167 0l0.167 0l0.167 0l0.167 0l0.83499 0l0.167 0l0.167 0l0.66799 0l0.167 0l0.66799 0l0.167 0l0.15698 0l0.51101 0l0 -0.26428l0 -0.27415l0 -0.16632l0 -0.35237l0 -0.17618l0 -0.70474l0 -1.40949l0 -0.17618l0 -0.35237l0 -0.70474l0 -0.17618l0 -0.35237l-0.00501 -0.35237l-0.00835 -0.17618l-0.05177 -0.35237l-0.03674 -0.17618l-0.05177 -0.35237l-0.00835 -0.17618l-0.00501 -0.35237l0 -0.17618l0 -0.52855l0 -0.35237l-0.00501 -0.35237l-0.00835 -0.17618l-0.05177 -0.35237l-0.03674 -0.17618l-0.05177 -0.35237l-0.00835 -0.17618l-0.00501 -0.17618l-0.00501 -0.35237l-0.00835 -0.17618l-0.05177 -0.35237l-0.06513 -0.35237l-0.02338 -0.17618l-0.01837 -0.35237l-0.00835 -0.17618l-0.05177 -0.35237l-0.03674 -0.17618l-0.05177 -0.35237l-0.01837 -0.35237l-0.00835 -0.17618l-0.05177 -0.35237l-0.06513 -0.35237l-0.02338 -0.17618l-0.02672 -0.35237l-0.02338 -0.17618l-0.06513 -0.35237l-0.05511 -0.35237l-0.02004 -0.17618l-0.05511 -0.35237l-0.03674 -0.17618l-0.0334 -0.17618l-0.06346 -0.35237l-0.0334 -0.17618l-0.03674 -0.17618l-0.05511 -0.35237l-0.02004 -0.17618l-0.05511 -0.35237l-0.03674 -0.17618l-0.0334 -0.17618l-0.06346 -0.35237l-0.0334 -0.17618l-0.03674 -0.17618l-0.0334 -0.17618l-0.06346 -0.35237l-0.0334 -0.17618l-0.07848 -0.35237l-0.04676 -0.17618l-0.03674 -0.17618l-0.04175 -0.17618l-0.0334 -0.17618l-0.06346 -0.35237l-0.0334 -0.17618l-0.07848 -0.35237l-0.04676 -0.17618l-0.0835 -0.35237l-0.03674 -0.17618l-0.08851 -0.35237l-0.0501 -0.17618l-0.10354 -0.35237l-0.0501 -0.17618l-0.08851 -0.35237l-0.03674 -0.17618l-0.04676 -0.17618l-0.03674 -0.17618l-0.08851 -0.35237l-0.0501 -0.17618l-0.10354 -0.35237l-0.0501 -0.17618l-0.04175 -0.17618l-0.08851 -0.35237l-0.0501 -0.17618l-0.05177 -0.17618l-0.11189 -0.35237l-0.11022 -0.35237l-0.05678 -0.17618l-0.11022 -0.35237l-0.05678 -0.17618l-0.11022 -0.35237l-0.05678 -0.17618l-0.11022 -0.35237l-0.05678 -0.17618l-0.11022 -0.35237l-0.05678 -0.17618l-0.12024 -0.35237l-0.13359 -0.35237l-0.07014 -0.17618l-0.06011 -0.17618l-0.06011 -0.17618l-0.05678 -0.17618l-0.12024 -0.35237l-0.07014 -0.17618l-0.13359 -0.35237l-0.13026 -0.35237l-0.07014 -0.17618l-0.13359 -0.35237l-0.13026 -0.35237l-0.07348 -0.17618l-0.07014 -0.17618l-0.08851 -0.17618l-0.16198 -0.35237l-0.07014 -0.17618l-0.07348 -0.17618l-0.13026 -0.35237l-0.07348 -0.17618l-0.07014 -0.17618l-0.16198 -0.35237l-0.09352 -0.17618l-0.07348 -0.17618l-0.167 -0.35237l-0.09352 -0.17618l-0.07348 -0.17618l-0.08851 -0.17618l-0.14863 -0.35237l-0.07014 -0.17618l-0.167 -0.35237l-0.09685 -0.17618l-0.08851 -0.17618l-0.09685 -0.17618l-0.172 -0.35237l-0.07348 -0.17618l-0.09352 -0.17618l-0.167 -0.35237l-0.07348 -0.17618l-0.172 -0.35237l-0.19037 -0.35237l-0.20374 -0.35237l-0.19037 -0.35237l-0.0835 -0.17618l-0.19037 -0.35237l-0.20374 -0.35237l-0.2004 -0.35237l-0.09685 -0.17618l-0.21376 -0.35237l-0.11022 -0.17618l-0.10688 -0.17618l-0.10688 -0.17618l-0.2004 -0.35237l-0.09685 -0.17618l-0.21376 -0.35237l-0.22211 -0.35237l-0.22211 -0.35237l-0.11189 -0.17618l-0.23213 -0.35237l-0.12524 -0.17618l-0.24548 -0.35237l-0.1169 -0.17618l-0.23046 -0.35237l-0.1169 -0.17618l-0.24548 -0.35237l-0.13026 -0.17618l-0.2505 -0.35237l-0.12024 -0.17618l-0.13026 -0.17618l-0.12024 -0.17618l-0.13026 -0.17618l-0.12024 -0.17618l-0.2555 -0.35237l-0.13359 -0.17618l-0.27054 -0.35237l-0.26385 -0.35237l-0.27889 -0.35237l-0.14696 -0.17618l-0.27889 -0.35237l-0.26887 -0.35237l-0.14361 -0.17618l-0.32063 -0.35237l-0.32063 -0.35237l-0.28222 -0.35237l-0.13026 -0.17618l-0.28222 -0.35237l-0.15865 -0.17618l-0.16198 -0.17618l-0.334 -0.35237l-0.167 -0.17618l-0.66799 -0.70474l-0.66799 -0.70474l-0.167 -0.17618l-0.334 -0.35237l-0.167 -0.17125l-0.167 -0.1665l-0.334 -0.29846l-0.167 -0.13707l-0.334 -0.29846l-0.334 -0.33775l-0.334 -0.33775l-0.167 -0.1517l-0.334 -0.28384l-0.167 -0.14677l-0.167 -0.14694l-0.167 -0.15644l-0.334 -0.2937l-0.167 -0.13707l-0.167 -0.14183l-0.334 -0.28401l-0.167 -0.14183l-0.167 -0.13707l-0.167 -0.14183l-0.334 -0.28401l-0.167 -0.14183l-0.167 -0.13214l-0.167 -0.13707l-0.334 -0.25935l-0.167 -0.12245l-0.334 -0.24454l-0.167 -0.12245l-0.334 -0.25935l-0.167 -0.13214l-0.334 -0.24472l-0.334 -0.23485l-0.167 -0.11752l-0.334 -0.23485l-0.167 -0.11752l-0.167 -0.11752l-0.334 -0.23485l-0.334 -0.23485l-0.334 -0.22517l-0.167 -0.10272l-0.334 -0.21055l-0.334 -0.22517l-0.167 -0.11734l-0.167 -0.11258l-0.167 -0.11258l-0.334 -0.20068l-0.167 -0.0881l-0.334 -0.20068l-0.334 -0.2153l-0.334 -0.20068l-0.167 -0.0881l-0.334 -0.20068l-0.334 -0.2153l-0.334 -0.20068l-0.334 -0.18112l-0.167 -0.07823l-0.167 -0.09796l-0.167 -0.07823l-0.167 -0.09796l-0.167 -0.07823l-0.167 -0.09796l-0.334 -0.17618l-0.167 -0.07823l-0.167 -0.09796l-0.167 -0.07823l-0.167 -0.09796l-0.167 -0.07823l-0.334 -0.17618l-0.167 -0.09303l-0.334 -0.1517l-0.334 -0.13707l-0.334 -0.1517l-0.167 -0.0881l-0.334 -0.1517l-0.334 -0.13707l-0.334 -0.1517l-0.167 -0.0881l-0.334 -0.1517l-0.334 -0.13707l-0.334 -0.14183l-0.167 -0.07347l-0.334 -0.13707l-0.334 -0.14183l-0.167 -0.07347l-0.334 -0.1272l-0.167 -0.05885l-0.167 -0.0636l-0.167 -0.0636l-0.167 -0.07347l-0.334 -0.14183l-0.334 -0.1272l-0.334 -0.11752l-0.167 -0.05867l-0.334 -0.11752l-0.167 -0.05867l-0.167 -0.05885l-0.334 -0.11734l-0.334 -0.11752l-0.334 -0.10765l-0.167 -0.04404l-0.334 -0.09303l-0.167 -0.05374l-0.167 -0.05391l-0.334 -0.11752l-0.167 -0.05867l-0.334 -0.10765l-0.334 -0.09303l-0.167 -0.04404l-0.167 -0.05374l-0.334 -0.10783l-0.167 -0.05374l-0.334 -0.09303l-0.167 -0.03911l-0.334 -0.0881l-0.167 -0.04898l-0.167 -0.03911l-0.167 -0.04898l-0.334 -0.0881l-0.167 -0.03911l-0.167 -0.04898l-0.167 -0.03911l-0.167 -0.04898l-0.334 -0.08316l-0.167 -0.03436l-0.334 -0.06837l-0.167 -0.03436l-0.167 -0.04404l-0.167 -0.03911l-0.167 -0.04898l-0.334 -0.08316l-0.167 -0.03436l-0.334 -0.06837l-0.167 -0.03436l-0.167 -0.03911l-0.167 -0.03436l-0.334 -0.06837l-0.167 -0.03436l-0.167 -0.03911l-0.334 -0.05867l-0.167 -0.01973l-0.334 -0.05867l-0.334 -0.06853l-0.334 -0.04898l-0.334 -0.05867l-0.167 -0.03911l-0.334 -0.05867l-0.167 -0.01973l-0.334 -0.05867l-0.334 -0.06853l-0.167 -0.0245l-0.334 -0.02924l-0.167 -0.0245l-0.334 -0.06853l-0.334 -0.05391l-0.167 -0.0097l-0.334 -0.00987l-0.167 -0.0097l-0.334 -0.05391l-0.167 -0.03911l-0.334 -0.05391l-0.167 -0.0097l-0.334 -0.00493l-0.167 -0.00493l-0.167 -0.0097l-0.334 -0.05391l-0.167 -0.03911l-0.334 -0.05391l-0.167 -0.0097l-0.334 -0.00493l-0.334 -0.00493l-0.167 -0.0097l-0.334 -0.05391l-0.167 -0.03911l-0.334 -0.05391l-0.167 -0.0097l-0.167 -0.00493l-0.334 0l-0.167 0l-0.167 0l-0.66799 0l-0.167 0l-0.334 0l-0.334 -0.00493l-0.167 -0.0097l-0.334 -0.05391l-0.167 -0.03911l-0.334 -0.05391l-0.167 -0.0097l-0.334 -0.00493l-0.334 0l-0.167 0l-1.33598 0l-0.167 0l-0.167 0l-0.83499 0l-0.66799 0l-0.66799 0l-0.334 0l-0.334 0.01463l-0.334 0.05391l-0.167 0.03911l-0.334 0.05391l-0.167 0.0097l-0.334 0.00493l-0.334 0l-0.66799 0l-0.167 0l-0.167 0l-0.167 0l-0.334 0l-0.167 0.00493l-0.167 0.0097l-0.334 0.05391l-0.167 0.03911l-0.334 0.05391l-0.167 0.0097l-0.334 0.00493l-0.334 0l-0.167 0.00493l-0.167 0.0097l-0.334 0.05391l-0.167 0.03911l-0.334 0.05391l-0.167 0.0097l-0.167 0.00493l-0.334 0.00493l-0.167 0.0097l-0.334 0.05391l-0.167 0.03911l-0.334 0.05391l-0.167 0.0097l-0.334 0.00493l-0.167 0.00493l-0.167 0.0097l-0.334 0.05391l-0.167 0.03911l-0.334 0.05391l-0.334 0.01956l-0.167 0.0097l-0.334 0.05391l-0.334 0.06853l-0.167 0.0245l-0.334 0.02924l-0.167 0.0245l-0.334 0.06853l-0.334 0.05867l-0.167 0.01973l-0.334 0.05867l-0.334 0.06853l-0.167 0.0245l-0.334 0.02924l-0.167 0.0245l-0.334 0.06853l-0.334 0.05867l-0.167 0.01973l-0.334 0.05867l-0.167 0.03911l-0.167 0.03436l-0.334 0.06837l-0.167 0.03436l-0.167 0.03911l-0.334 0.05867l-0.167 0.01973l-0.334 0.05867l-0.334 0.07347l-0.334 0.06837l-0.167 0.03436l-0.167 0.03911l-0.167 0.03436l-0.334 0.06837l-0.167 0.03436l-0.167 0.03911l-0.167 0.03436l-0.334 0.06837l-0.167 0.03436l-0.334 0.07347l-0.334 0.06837l-0.167 0.03436l-0.334 0.08316l-0.167 0.04898l-0.334 0.0881l-0.167 0.03911l-0.167 0.04898l-0.334 0.08316l-0.167 0.03436l-0.334 0.06837l-0.167 0.03436l-0.334 0.08316l-0.167 0.04898l-0.167 0.03911l-0.167 0.04898l-0.167 0.03911l-0.167 0.04898l-0.334 0.0881l-0.167 0.03911l-0.167 0.04898l-0.167 0.03911l-0.334 0.0881l-0.167 0.04898l-0.167 0.03911l-0.167 0.04898l-0.167 0.03911l-0.334 0.09303l-0.167 0.05374l-0.334 0.10783l-0.167 0.05374l-0.334 0.09303l-0.167 0.03911l-0.167 0.04898l-0.167 0.03911l-0.334 0.09303l-0.167 0.05374l-0.334 0.10783l-0.167 0.05374l-0.167 0.04404l-0.334 0.09303l-0.167 0.05374l-0.167 0.05391l-0.334 0.11752l-0.167 0.05867l-0.334 0.10765l-0.334 0.09303l-0.167 0.04404l-0.334 0.10765l-0.167 0.05867l-0.334 0.11752l-0.334 0.11752l-0.167 0.05867l-0.334 0.11752l-0.167 0.05867l-0.334 0.11752l-0.167 0.05867l-0.334 0.10765l-0.334 0.09796l-0.167 0.0488l-0.167 0.06853l-0.167 0.0636l-0.334 0.13707l-0.167 0.0636l-0.334 0.11752l-0.334 0.11752l-0.334 0.11734l-0.334 0.11752l-0.167 0.05867l-0.334 0.11752l-0.167 0.05867l-0.167 0.05885l-0.334 0.11734l-0.167 0.05885l-0.167 0.0636l-0.167 0.0636l-0.334 0.14183l-0.167 0.07347l-0.334 0.1272l-0.167 0.05885l-0.334 0.1272l-0.167 0.07347l-0.334 0.14183l-0.334 0.13707l-0.334 0.14183l-0.167 0.07347l-0.167 0.0636l-0.167 0.0636l-0.167 0.05885l-0.334 0.1272l-0.167 0.07347l-0.334 0.14183l-0.334 0.13707l-0.167 0.07347l-0.334 0.14183l-0.334 0.13707l-0.334 0.1517l-0.167 0.0881l-0.334 0.1517l-0.334 0.13707l-0.334 0.1517l-0.167 0.0881l-0.334 0.1517l-0.334 0.13707l-0.334 0.1517l-0.167 0.0881l-0.334 0.1517l-0.334 0.13707l-0.334 0.1517l-0.167 0.0881l-0.334 0.1517l-0.334 0.13707l-0.334 0.1517l-0.167 0.09303l-0.334 0.17618l-0.167 0.07823l-0.167 0.09796l-0.334 0.17125l-0.167 0.07347l-0.167 0.07823l-0.334 0.13707l-0.167 0.07823l-0.167 0.07347l-0.334 0.17125l-0.167 0.09796l-0.167 0.07823l-0.167 0.09796l-0.167 0.07823l-0.334 0.17618l-0.167 0.09796l-0.334 0.17618l-0.167 0.07823l-0.167 0.09796l-0.167 0.07823l-0.167 0.09796l-0.167 0.07823l-0.167 0.09796l-0.167 0.07823l-0.167 0.09796l-0.334 0.17618l-0.167 0.07823l-0.167 0.09796l-0.167 0.07823l-0.167 0.09796l-0.167 0.07823l-0.167 0.09796l-0.334 0.17618l-0.167 0.07823l-0.167 0.09796l-0.334 0.17618l-0.167 0.07823l-0.167 0.09796l-0.167 0.07823l-0.167 0.09796l-0.167 0.07823l-0.167 0.09796l-0.334 0.17618l-0.167 0.08316l-0.167 0.10272l-0.167 0.09796l-0.334 0.2153l-0.167 0.09796l-0.167 0.10272l-0.167 0.08316l-0.167 0.09796l-0.167 0.07823l-0.334 0.18112l-0.167 0.10272l-0.167 0.09796l-0.334 0.2153l-0.167 0.09796l-0.167 0.10272l-0.334 0.18112l-0.167 0.08316l-0.334 0.20068l-0.334 0.2153l-0.334 0.20068l-0.167 0.0881l-0.334 0.20068l-0.334 0.2153l-0.334 0.20068l-0.167 0.0881l-0.334 0.20068l-0.334 0.2153l-0.334 0.21055l-0.167 0.10272l-0.334 0.2153l-0.334 0.21055l-0.167 0.10272l-0.334 0.2153l-0.167 0.10272l-0.334 0.21055l-0.334 0.2153l-0.334 0.21055l-0.167 0.10272l-0.334 0.22517l-0.167 0.11734l-0.167 0.11258l-0.167 0.11258l-0.334 0.21055l-0.167 0.10272l-0.334 0.22517l-0.167 0.11734l-0.334 0.23503l-0.167 0.11734l-0.334 0.22517l-0.334 0.21055l-0.167 0.10272l-0.334 0.22517l-0.167 0.11734l-0.334 0.23503l-0.167 0.11734l-0.334 0.23503l-0.167 0.11734l-0.334 0.23503l-0.167 0.11734l-0.334 0.23503l-0.167 0.11734l-0.167 0.11752l-0.334 0.23485l-0.167 0.11752l-0.167 0.11752l-0.167 0.11734l-0.334 0.23503l-0.167 0.11734l-0.167 0.11752l-0.334 0.24472l-0.334 0.25935l-0.167 0.13214l-0.334 0.24472l-0.334 0.23485l-0.167 0.11752l-0.334 0.24472l-0.334 0.25935l-0.167 0.13214l-0.167 0.12245l-0.334 0.24454l-0.167 0.12245l-0.334 0.25935l-0.167 0.13707l-0.167 0.1272l-0.334 0.26428l-0.167 0.13214l-0.167 0.12245l-0.334 0.24454l-0.167 0.12245l-0.334 0.25935l-0.167 0.13707l-0.167 0.1272l-0.334 0.26428l-0.167 0.13707l-0.167 0.1272l-0.334 0.26428l-0.167 0.13707l-0.167 0.1272l-0.167 0.13707l-0.167 0.1272l-0.334 0.26922l-0.167 0.14183l-0.334 0.28401l-0.167 0.14183l-0.167 0.13214l-0.167 0.13707l-0.167 0.1272l-0.334 0.26922l-0.167 0.14183l-0.334 0.28401l-0.334 0.2789l-0.167 0.14183l-0.334 0.28401l-0.167 0.14183l-0.167 0.13707l-0.167 0.14183l-0.334 0.28401l-0.167 0.14183l-0.167 0.13707l-0.167 0.14183l-0.334 0.28401l-0.334 0.2789l-0.334 0.2937l-0.167 0.15644l-0.334 0.2937l-0.167 0.13707l-0.334 0.2937l-0.167 0.15644l-0.334 0.2937l-0.334 0.28384l-0.167 0.1517l-0.334 0.32312l-0.167 0.1517l-0.334 0.28384l-0.167 0.14677l-0.167 0.1517l-0.334 0.32312l-0.167 0.1517l-0.334 0.28384l-0.334 0.29846l-0.167 0.1665l-0.334 0.33282l-0.334 0.29846l-0.167 0.13707l-0.334 0.29846l-0.167 0.1665l-0.334 0.34745l-0.334 0.34745l-0.167 0.1665l-0.334 0.29846l-0.167 0.13707l-0.334 0.29846l-0.167 0.1665l-0.334 0.34745l-0.334 0.35237l-0.167 0.17618l-0.334 0.33775l-0.334 0.29846l-0.167 0.13707l-0.334 0.29846l-0.167 0.1665l-0.334 0.34745l-0.167 0.17618l-0.167 0.17618l-0.66799 0.70474l-0.167 0.17618l-0.167 0.17618l-0.66799 0.70474l-0.66799 0.70474l-0.167 0.17618l-0.167 0.17618l-0.167 0.17618l-0.167 0.17618l-0.167 0.17618l-0.167 0.17618l-0.334 0.35237l-0.167 0.17618l-0.334 0.35237l-0.167 0.17618l-0.167 0.17618l-0.66799 0.70474l-0.167 0.17618l-0.167 0.17618l-0.167 0.17618l-0.66799 0.70474l-0.167 0.17618l-0.32932 0.35237l-0.15781 0.17618l-0.28289 0.35237l-0.12992 0.17618l-0.28289 0.35237l-0.32013 0.35237l-0.334 0.35237l-0.167 0.17618l-0.32932 0.35237l-0.15781 0.17618l-0.28289 0.35237l-0.12992 0.17618l-0.28289 0.35237l-0.15781 0.17618l-0.32932 0.35237l-0.32932 0.35237l-0.15781 0.17618l-0.28289 0.35237l-0.12992 0.17618l-0.28289 0.35237l-0.31546 0.35237l-0.15781 0.17618l-0.28289 0.35237l-0.26903 0.35237l-0.14378 0.17618l-0.30627 0.35237l-0.14378 0.17618l-0.26903 0.35237l-0.28289 0.35237l-0.30627 0.35237l-0.14378 0.17618l-0.26903 0.35237l-0.27839 0.35237l-0.14829 0.17618l-0.27839 0.35237l-0.12992 0.17618l-0.13443 0.17618l-0.2692 0.35237l-0.13443 0.17618l-0.12992 0.17618l-0.27839 0.35237l-0.14829 0.17618l-0.27839 0.35237l-0.12992 0.17618l-0.13443 0.17618l-0.2692 0.35237l-0.13443 0.17618l-0.12992 0.17618l-0.13443 0.17618l-0.2692 0.35237l-0.13443 0.17618l-0.26435 0.35237l-0.2692 0.35237l-0.13443 0.17618l-0.12524 0.17618l-0.12992 0.17618l-0.12057 0.17618l-0.25517 0.35237l-0.13443 0.17618l-0.2692 0.35237l-0.13443 0.17618l-0.25517 0.35237l-0.12057 0.17618l-0.12992 0.17618l-0.12057 0.17618l-0.2505 0.35237l-0.12992 0.17618l-0.2505 0.35237l-0.12057 0.17618l-0.12992 0.17618l-0.12057 0.17618l-0.12992 0.17618l-0.24582 0.35237l-0.11606 0.17618l-0.23179 0.35237l-0.11606 0.17618l-0.24582 0.35237l-0.12992 0.17618l-0.12057 0.17618l-0.2505 0.35237l-0.12524 0.17618l-0.11606 0.17618l-0.23179 0.35237l-0.11606 0.17618l-0.12524 0.17618l-0.24582 0.35237l-0.23196 0.35237l-0.11139 0.17618l-0.22261 0.35237l-0.23196 0.35237l-0.12524 0.17618l-0.24582 0.35237l-0.23196 0.35237l-0.11139 0.17618l-0.22261 0.35237l-0.11139 0.17618l-0.44522 0.70474l-0.334 0.52855l-0.11139 0.17618l-0.22261 0.35237l-0.11139 0.17618l-0.22261 0.35237l-0.11139 0.17618l-0.11139 0.17618l-0.334 0.52855l-0.11122 0.17618l-0.21342 0.35237l-0.19956 0.35237l-0.09736 0.17618l-0.10671 0.17618l-0.10671 0.17618l-0.11122 0.17618l-0.22278 0.35237l-0.11122 0.17618l-0.21342 0.35237l-0.19956 0.35237l-0.09736 0.17618l-0.21342 0.35237l-0.11122 0.17618l-0.10671 0.17618l-0.10671 0.17618l-0.09736 0.17618l-0.19956 0.35237l-0.20407 0.35237l-0.19956 0.35237l-0.09736 0.17618l-0.20407 0.35237l-0.19956 0.35237l-0.09736 0.17618l-0.20407 0.35237l-0.09736 0.17618l-0.19956 0.35237l-0.20407 0.35237l-0.19021 0.35237l-0.0835 0.17618l-0.19021 0.35237l-0.20407 0.35237l-0.19021 0.35237l-0.0835 0.17618l-0.19021 0.35237l-0.20407 0.35237l-0.19021 0.35237l-0.07882 0.17618l-0.17167 0.35237l-0.09736 0.17618l-0.09285 0.17618l-0.20407 0.35237l-0.09285 0.17618l-0.09736 0.17618l-0.07882 0.17618l-0.17167 0.35237l-0.19021 0.35237l-0.20407 0.35237l-0.19021 0.35237l-0.07882 0.17618l-0.167 0.35237l-0.09285 0.17618l-0.07415 0.17618l-0.09285 0.17618l-0.07415 0.17618l-0.09285 0.17618l-0.07415 0.17618l-0.09285 0.17618l-0.07415 0.17618l-0.09285 0.17618l-0.07415 0.17618l-0.167 0.35237l-0.09285 0.17618l-0.07415 0.17618l-0.09285 0.17618l-0.07415 0.17618l-0.09285 0.17618l-0.07415 0.17618l-0.09285 0.17618l-0.07415 0.17618l-0.09285 0.17618l-0.07415 0.17618l-0.09285 0.17618l-0.07415 0.17618l-0.09285 0.17618l-0.07415 0.17618l-0.167 0.35237l-0.09285 0.17618l-0.07415 0.17618l-0.09285 0.17618l-0.07415 0.17618l-0.09285 0.17618l-0.07415 0.17618l-0.09285 0.17618l-0.07415 0.17618l-0.09285 0.17618l-0.07415 0.17618l-0.09285 0.17618l-0.07415 0.17618l-0.167 0.35237l-0.08817 0.17618l-0.06964 0.17618l-0.07415 0.17618l-0.12992 0.35237l-0.07415 0.17618l-0.06964 0.17618l-0.08817 0.17618l-0.07415 0.17618l-0.09285 0.17618l-0.16232 0.35237l-0.06964 0.17618l-0.07415 0.17618l-0.12992 0.35237l-0.07415 0.17618l-0.06964 0.17618l-0.16232 0.35237l-0.08817 0.17618l-0.14378 0.35237l-0.12992 0.35237l-0.14378 0.35237l-0.0835 0.17618l-0.14378 0.35237l-0.12992 0.35237l-0.13443 0.35237l-0.06964 0.17618l-0.12992 0.35237l-0.14378 0.35237l-0.0835 0.17618l-0.14378 0.35237l-0.12992 0.35237l-0.13443 0.35237l-0.06964 0.17618l-0.12992 0.35237l-0.13443 0.35237l-0.06964 0.17618l-0.12057 0.35237l-0.05578 0.17618l-0.06028 0.17618l-0.06028 0.17618l-0.06964 0.17618l-0.13443 0.35237l-0.12992 0.35237l-0.13443 0.35237l-0.06964 0.17618l-0.06028 0.17618l-0.06028 0.17618l-0.05578 0.17618l-0.11122 0.35237l-0.05578 0.17618l-0.12057 0.35237l-0.06964 0.17618l-0.13443 0.35237l-0.12057 0.35237l-0.11139 0.35237l-0.167 0.52855l-0.05561 0.17618l-0.05578 0.17618l-0.12057 0.35237l-0.12992 0.35237l-0.06496 0.17618l-0.04626 0.17618l-0.09285 0.35237l-0.10204 0.35237l-0.11139 0.35237l-0.167 0.52855l-0.167 0.52855l-0.334 1.05712l-0.05561 0.17618l-0.11139 0.35237l-0.05561 0.17618l-0.10204 0.35237l-0.08817 0.35237l-0.04175 0.17618l-0.05093 0.17618l-0.0511 0.17618l-0.05561 0.17618l-0.11139 0.35237l-0.0511 0.17618l-0.05093 0.17618l-0.08817 0.35237l-0.04175 0.17618l-0.05093 0.17618l-0.1022 0.35237l-0.05093 0.17618l-0.04175 0.17618l-0.08817 0.35237l-0.05093 0.17618l-0.1022 0.35237l-0.05093 0.17618l-0.08817 0.35237l-0.03707 0.17618l-0.04643 0.17618l-0.03707 0.17618l-0.0835 0.35237l-0.04643 0.17618l-0.03707 0.17618l-0.04643 0.17618l-0.03707 0.17618l-0.04643 0.17618l-0.0835 0.35237l-0.03707 0.17618l-0.04643 0.17618l-0.03707 0.17618l-0.04643 0.17618l-0.03707 0.17618l-0.0835 0.35237l-0.04643 0.17618l-0.03707 0.17618l-0.04643 0.17618l-0.03707 0.17618l-0.04643 0.17618l-0.07882 0.35237l-0.03256 0.17618l-0.0648 0.35237l-0.03256 0.17618l-0.04175 0.17618l-0.03707 0.17618l-0.04643 0.17618l-0.07882 0.35237l-0.03256 0.17618l-0.0648 0.35237l-0.03256 0.17618l-0.03707 0.17618l-0.03256 0.17618l-0.0648 0.35237l-0.03256 0.17618l-0.03707 0.17618l-0.03256 0.17618l-0.0648 0.35237l-0.03256 0.17618l-0.03707 0.17618l-0.03256 0.17618l-0.0648 0.35237l-0.03256 0.17618l-0.03707 0.17618l-0.03256 0.17618l-0.0648 0.35237l-0.06964 0.35237l-0.05561 0.35237l-0.0187 0.17618l-0.05561 0.35237l-0.06496 0.35237l-0.04643 0.35237l-0.05561 0.35237l-0.03707 0.17618l-0.05561 0.35237l-0.0187 0.17618l-0.05561 0.35237l-0.06496 0.35237l-0.02321 0.17618l-0.02772 0.35237l-0.02321 0.17618l-0.06496 0.35237l-0.0511 0.35237l-0.00919 0.17618l-0.01854 0.35237l-0.0511 0.35237l-0.03707 0.17618l-0.0511 0.35237l-0.00919 0.17618l-0.01854 0.35237l-0.0511 0.35237l-0.03707 0.17618l-0.0511 0.35237l-0.00919 0.17618l-0.01854 0.35237l-0.02321 0.17618l-0.06496 0.35237l-0.0511 0.35237l-0.00919 0.17618l-0.00468 0.35237l-0.00468 0.17618l-0.00919 0.17618l-0.0511 0.35237l-0.03707 0.17618l-0.0511 0.35237l-0.00919 0.17618l-0.00468 0.35237l0 0.35237l0 0.17618l-0.00468 0.35237l-0.00919 0.17618l-0.0511 0.35237l-0.03707 0.17618l-0.0511 0.35237l-0.00919 0.17618l-0.00468 0.35237l0 0.17618l0 0.17618l0 0.70474l0 0.35237l-0.00468 0.17618l-0.00919 0.17618l-0.0511 0.35237l-0.03707 0.17618l-0.0511 0.35237l-0.00919 0.17618l-0.00468 0.35237l0 0.35237l0 0.35237l0 0.17618l0 0.17618l0 1.93804l0 0.17618l0 0.70474l0 1.05712l0 0.52855l0.00468 0.35237l0.00919 0.17618l0.0511 0.35237l0.03707 0.17618l0.0511 0.35237l0.00919 0.17618l0.00468 0.35237l0 0.17618l0 0.88092l0 0.17618l0.00468 0.35237l0.00919 0.17618l0.0511 0.35237l0.03707 0.17618l0.0511 0.35237l0.00919 0.17618l0.00468 0.35237l0 0.35237l0 0.17618l0.00468 0.17618l0.00919 0.17618l0.0511 0.35237l0.03707 0.17618l0.0511 0.35237l0.00919 0.17618l0.00935 0.35237l0.00919 0.17618l0.0511 0.35237l0.03707 0.17618l0.0511 0.35237l0.01854 0.35237l0.00919 0.17618l0.0511 0.35237l0.06496 0.35237l0.02321 0.17618l0.02772 0.35237l0.02321 0.17618l0.06496 0.35237l0.0511 0.35237l0.02772 0.35237l0.02321 0.17618l0.06496 0.35237l0.05561 0.35237l0.0187 0.17618l0.05561 0.35237l0.03707 0.17618l0.03256 0.17618l0.0648 0.35237l0.03256 0.17618l0.03707 0.17618l0.05561 0.35237l0.0187 0.17618l0.05561 0.35237l0.06964 0.35237l0.0648 0.35237l0.03256 0.17618l0.07882 0.35237l0.04643 0.17618l0.03707 0.17618l0.04175 0.17618l0.03256 0.17618l0.0648 0.35237l0.03256 0.17618l0.07882 0.35237l0.04643 0.17618l0.03707 0.17618l0.0835 0.35237l0.04643 0.17618l0.03707 0.17618l0.0835 0.35237l0.04643 0.17618l0.03707 0.17618l0.04643 0.17618l0.03707 0.17618l0.08817 0.35237l0.05093 0.17618l0.1022 0.35237l0.05093 0.17618l0.08817 0.35237l0.04175 0.17618l0.05093 0.17618l0.1022 0.35237l0.05093 0.17618l0.04175 0.17618l0.08817 0.35237l0.05093 0.17618l0.10671 0.35237l0.05578 0.17618l0.167 0.52855l0.334 1.05712l0.11122 0.35237l0.05578 0.17618l0.12057 0.35237l0.06964 0.17618l0.13443 0.35237l0.06028 0.17618l0.06028 0.17618l0.05578 0.17618l0.12057 0.35237l0.06964 0.17618l0.13443 0.35237l0.12992 0.35237l0.13443 0.35237l0.06964 0.17618l0.12992 0.35237l0.13443 0.35237l0.06964 0.17618l0.12992 0.35237l0.14378 0.35237l0.08817 0.17618l0.16232 0.35237l0.06964 0.17618l0.07415 0.17618l0.12992 0.35237l0.07415 0.17618l0.06964 0.17618l0.16232 0.35237l0.09285 0.17618l0.07415 0.17618l0.09285 0.17618l0.07415 0.17618l0.167 0.35237l0.09285 0.17618l0.07415 0.17618l0.167 0.35237l0.09285 0.17618l0.07415 0.17618l0.09285 0.17618l0.07415 0.17618l0.17167 0.35237l0.09736 0.17618l0.09285 0.17618l0.20407 0.35237l0.19021 0.35237l0.0835 0.17618l0.19021 0.35237l0.20407 0.35237l0.19021 0.35237l0.0835 0.17618l0.19021 0.35237l0.20407 0.35237l0.19956 0.35237l0.09736 0.17618l0.10671 0.17618l0.10671 0.17618l0.22261 0.35237l0.66799 1.05712l0.44538 0.70474l0.22261 0.35237l0.23196 0.35237l0.12524 0.17618l0.24582 0.35237l0.11606 0.17618l0.23179 0.35237l0.11606 0.17618l0.24582 0.35237l0.12992 0.17618l0.12524 0.17618l0.13443 0.17618l0.2692 0.35237l0.13443 0.17618l0.12992 0.17618l0.13443 0.17618l0.2692 0.35237l0.13443 0.17618l0.12992 0.17618l0.27839 0.35237l0.14829 0.17618l0.13928 0.17618l0.26903 0.35237l0.28289 0.35237l0.15781 0.17618l0.31546 0.35237l0.28289 0.35237l0.12992 0.17618l0.28289 0.35237l0.15781 0.17618l0.16232 0.17618l0.334 0.35237l1.00198 1.05712l0.83499 0.88092l0.334 0.35237l0.167 0.1709l0.167 0.16738l0.334 0.29776l0.167 0.13742l0.334 0.29776l0.167 0.16738l0.334 0.3418l0.167 0.16738l0.334 0.29776l0.334 0.28366l0.334 0.30304l0.334 0.29423l0.334 0.27837l0.334 0.28542l0.167 0.14095l0.334 0.26956l0.167 0.12686l0.167 0.13742l0.167 0.12686l0.334 0.26428l0.167 0.13742l0.167 0.12686l0.167 0.13742l0.334 0.25899l0.167 0.12333l0.334 0.24314l0.167 0.12333l0.334 0.25899l0.167 0.13214l0.334 0.2449l0.334 0.23433l0.334 0.23609l0.167 0.11628l0.334 0.22552l0.334 0.21142l0.167 0.10218l0.167 0.11275l0.167 0.11275l0.167 0.11628l0.334 0.22552l0.167 0.10218l0.334 0.21142l0.334 0.21495l0.334 0.20085l0.167 0.0881l0.334 0.20085l0.334 0.21495l0.167 0.09866l0.167 0.10218l0.167 0.0828l0.167 0.09866l0.167 0.07752l0.334 0.18147l0.167 0.10218l0.334 0.19557l0.167 0.09338l0.334 0.18676l0.167 0.09338l0.334 0.18499l0.334 0.15681l0.167 0.06871l0.334 0.15151l0.167 0.09338l0.167 0.07752l0.167 0.09866l0.334 0.17618l0.167 0.07752l0.167 0.09866l0.334 0.1709l0.167 0.07399l0.167 0.07752l0.334 0.13742l0.334 0.15151l0.167 0.0881l0.334 0.15151l0.334 0.13742l0.334 0.14095l0.167 0.07399l0.334 0.13742l0.334 0.14095l0.167 0.07399l0.334 0.12686l0.167 0.0599l0.167 0.06342l0.167 0.06342l0.167 0.07399l0.334 0.14095l0.334 0.12686l0.167 0.0599l0.334 0.11628l0.50099 0.17618l0.66799 0.23609l0.167 0.05814l0.66799 0.23433l0.334 0.11805l0.167 0.05461l0.167 0.05286l0.334 0.09338l0.167 0.04404l0.167 0.05286l0.334 0.10924l0.167 0.05286l0.334 0.09338l0.167 0.04404l0.167 0.05286l0.334 0.10924l0.167 0.05286l0.334 0.09338l0.167 0.03876l0.167 0.04934l0.334 0.0881l0.167 0.03876l0.167 0.04934l0.167 0.03876l0.167 0.04934l0.334 0.0828l0.167 0.03523l0.334 0.06695l0.167 0.03523l0.167 0.04404l0.167 0.03876l0.167 0.04934l0.334 0.0828l0.167 0.03523l0.334 0.06695l0.334 0.07399l0.167 0.03523l0.334 0.06695l0.167 0.03523l0.167 0.03876l0.167 0.03523l0.334 0.06695l0.167 0.03523l0.167 0.03876l0.334 0.05814l0.167 0.02114l0.334 0.05814l0.167 0.03876l0.334 0.05814l0.167 0.02114l0.334 0.05814l0.334 0.06871l0.167 0.02466l0.334 0.02818l0.167 0.02466l0.334 0.06871l0.334 0.05461l0.334 0.02818l0.334 0.05461l0.167 0.03876l0.334 0.05461l0.167 0.00881l0.334 0.01058l0.167 0.00881l0.334 0.05461l0.167 0.03876l0.334 0.05461l0.167 0.00881l0.334 0.00528l0.334 0.00528l0.167 0.00881l0.334 0.05461l0.167 0.03876l0.334 0.05461l0.167 0.00881l0.334 0.00528l0.167 0l0.334 0l0.334 0.0141l0.334 0.05461l0.167 0.03876l0.334 0.05461l0.167 0.00881l0.334 0.00528l0.167 0l0.50099 0l1.83697 0l0.66799 0l0.334 0l0.334 0.0141l0.167 0.02466l0.334 0.06342l0.334 0.01938l0.334 -0.05286l0.167 -0.02995l0.167 -0.02466l0.334 -0.0141l0.334 0l0.66799 0l0.83499 0l1.00198 0l0.50099 0l0.167 0l0.334 -0.00528l0.167 -0.00881l0.334 -0.05461l0.167 -0.03876l0.334 -0.05461l0.167 -0.00881l0.334 -0.00528l0.167 0l0.334 0l0.334 -0.00528l0.167 -0.00881l0.334 -0.05461l0.167 -0.03876l0.334 -0.05461l0.167 -0.00881l0.334 -0.00528l0.334 0l0.167 -0.00528l0.167 -0.00881l0.334 -0.05461l0.167 -0.03876l0.334 -0.05461l0.167 -0.00881l0.167 -0.00528l0.334 -0.00528l0.167 -0.00881l0.334 -0.05461l0.334 -0.06871l0.167 -0.02466l0.334 -0.01938l0.167 -0.00881l0.167 -0.02466l0.334 -0.06871l0.167 -0.02995l0.167 -0.02466l0.334 -0.02818l0.167 -0.02466l0.334 -0.06871l0.334 -0.05461l0.334 -0.01938l0.167 -0.00881l0.334 -0.05461l0.167 -0.03876l0.334 -0.05814l0.167 -0.02114l0.334 -0.05814l0.167 -0.03876l0.334 -0.05814l0.334 -0.04934l0.334 -0.06871l0.334 -0.05814l0.167 -0.02114l0.334 -0.05814l0.167 -0.03876l0.167 -0.03523l0.334 -0.06695l0.167 -0.03523l0.167 -0.03876l0.334 -0.05814l0.167 -0.02114l0.334 -0.05814l0.167 -0.03876l0.167 -0.03523l0.334 -0.06695l0.167 -0.03523l0.167 -0.03876l0.167 -0.03523l0.334 -0.06695l0.167 -0.03523l0.167 -0.04404l0.167 -0.03876l0.167 -0.04934l0.334 -0.0828l0.167 -0.03523l0.334 -0.06695l0.167 -0.03523l0.334 -0.0828l0.167 -0.04934l0.167 -0.03876l0.167 -0.04404l0.167 -0.03523l0.334 -0.06695l0.167 -0.03523l0.334 -0.0828l0.167 -0.04934l0.167 -0.03876l0.167 -0.04934l0.334 -0.0881l0.167 -0.03876l0.334 -0.0881l0.167 -0.04934l0.167 -0.03876l0.167 -0.04934l0.167 -0.03876l0.167 -0.04934l0.334 -0.0881l0.167 -0.03876l0.334 -0.09338l0.167 -0.05286l0.334 -0.10924l0.167 -0.05286l0.167 -0.04404l0.334 -0.0881l0.167 -0.04934l0.167 -0.03876l0.334 -0.09338l0.167 -0.05286l0.334 -0.10924l0.167 -0.05286l0.334 -0.09338l0.167 -0.04404l0.167 -0.05286l0.334 -0.10924l0.167 -0.05286l0.167 -0.04404l0.334 -0.09338l0.167 -0.05286l0.334 -0.11275l0.167 -0.0599l0.50099 -0.17618l0.167 -0.05814l0.334 -0.10747l0.167 -0.04404l0.334 -0.09338l0.334 -0.10747l0.167 -0.05814l0.334 -0.11805l0.334 -0.11805l0.83499 -0.29247l0.167 -0.0599l0.66799 -0.23433l0.334 -0.11805l0.334 -0.11628l0.167 -0.0599l0.334 -0.12686l0.334 -0.14095l0.167 -0.07399l0.167 -0.06342l0.167 -0.06342l0.167 -0.0599l0.334 -0.11628l0.167 -0.0599l0.334 -0.12686l0.334 -0.14095l0.167 -0.07399l0.167 -0.06342l0.167 -0.06342l0.167 -0.0599l0.334 -0.12686l0.167 -0.07399l0.334 -0.14095l0.334 -0.13742l0.334 -0.14095l0.167 -0.07399l0.334 -0.12686l0.167 -0.0599l0.167 -0.06342l0.167 -0.06342l0.167 -0.07399l0.334 -0.14095l0.334 -0.13742l0.334 -0.15151l0.167 -0.0881l0.334 -0.15151l0.334 -0.13742l0.334 -0.14095l0.167 -0.07399l0.334 -0.13742l0.334 -0.15151l0.167 -0.0881l0.334 -0.15151l0.334 -0.13742l0.334 -0.15151l0.167 -0.0881l0.334 -0.15151l0.334 -0.13742l0.334 -0.15151l0.167 -0.09338l0.334 -0.1709l0.167 -0.07399l0.167 -0.07752l0.334 -0.13742l0.167 -0.07752l0.167 -0.07399l0.167 -0.09338l0.334 -0.17618l0.167 -0.07752l0.167 -0.09866l0.334 -0.1709l0.167 -0.07399l0.167 -0.07752l0.334 -0.13742l0.167 -0.07752l0.167 -0.07399l0.167 -0.09338l0.334 -0.17618l0.167 -0.07752l0.167 -0.09866l0.167 -0.07752l0.334 -0.17618l0.167 -0.09866l0.167 -0.07752l0.167 -0.09866l0.167 -0.07752l0.334 -0.17618l0.167 -0.09866l0.167 -0.07752l0.334 -0.17618l0.167 -0.09866l0.167 -0.07752l0.167 -0.09866l0.167 -0.07752l0.334 -0.17618l0.167 -0.09866l0.167 -0.07752l0.167 -0.09866l0.167 -0.07752l0.167 -0.09866l0.167 -0.07752l0.167 -0.09866l0.167 -0.07752l0.167 -0.09866l0.334 -0.17618l0.167 -0.0828l0.167 -0.10218l0.167 -0.09866l0.334 -0.21495l0.167 -0.09866l0.167 -0.10218l0.334 -0.18147l0.167 -0.07752l0.167 -0.09866l0.167 -0.0828l0.167 -0.10218l0.167 -0.09866l0.334 -0.21495l0.167 -0.09866l0.167 -0.10218l0.334 -0.18147l0.167 -0.0828l0.334 -0.20085l0.334 -0.21495l0.334 -0.20085l0.167 -0.0881l0.334 -0.20085l0.334 -0.21495l0.334 -0.20085l0.167 -0.0881l0.334 -0.20085l0.334 -0.21495l0.167 -0.10218l0.334 -0.21142l0.334 -0.21495l0.334 -0.20085l0.167 -0.0881l0.334 -0.20085l0.334 -0.21495l0.334 -0.21142l0.167 -0.10218l0.334 -0.22552l0.167 -0.11628l0.334 -0.22552l0.167 -0.10218l0.334 -0.21142l0.334 -0.22552l0.167 -0.11628l0.167 -0.11275l0.167 -0.11275l0.334 -0.21142l0.167 -0.10218l0.334 -0.22552l0.167 -0.11628l0.334 -0.22552l0.167 -0.10218l0.334 -0.21142l0.167 -0.11275l0.167 -0.11275l0.334 -0.23433l0.83499 -0.58669l0.167 -0.11805l0.334 -0.23433l0.167 -0.11805l0.83499 -0.58669l0.334 -0.23609l0.167 -0.11628l0.167 -0.11805l0.334 -0.2449l0.167 -0.13214l0.334 -0.25899l0.167 -0.12333l0.167 -0.12156l0.167 -0.11805l0.50099 -0.35237l0.334 -0.23433l0.167 -0.12156l0.167 -0.12333l0.334 -0.25899l0.167 -0.13214l0.167 -0.12333l0.334 -0.24314l0.167 -0.12333l0.334 -0.25899l0.167 -0.13742l0.167 -0.12686l0.167 -0.13742l0.334 -0.25899l0.167 -0.12333l0.334 -0.24314l0.167 -0.12333l0.334 -0.25899l0.167 -0.13742l0.167 -0.12686l0.167 -0.13742l0.167 -0.12686l0.334 -0.26428l0.167 -0.13742l0.167 -0.12686l0.334 -0.26956l0.167 -0.14095l0.334 -0.28542l0.167 -0.14095l0.334 -0.26956l0.167 -0.12686l0.167 -0.13742l0.334 -0.26428l0.167 -0.12686l0.334 -0.26956l0.167 -0.14095l0.334 -0.28542l0.334 -0.27837l0.167 -0.14095l0.334 -0.28542l0.167 -0.14095l0.167 -0.13742l0.167 -0.14095l0.334 -0.28542l0.167 -0.14095l0.167 -0.13742l0.167 -0.14095l0.334 -0.28542l0.334 -0.27837l0.334 -0.29423l0.167 -0.15504l0.334 -0.29423l0.167 -0.13742l0.334 -0.29423l0.167 -0.15504l0.334 -0.29423l0.167 -0.13742l0.334 -0.29423l0.167 -0.15504l0.334 -0.29423l0.334 -0.28366l0.167 -0.15151l0.334 -0.33299l0.167 -0.16738l0.334 -0.29776l0.167 -0.13742l0.334 -0.29776l0.167 -0.16738l0.334 -0.33299l0.167 -0.15151l0.334 -0.28366l0.334 -0.29776l0.167 -0.16738l0.334 -0.3418l0.167 -0.16738l0.334 -0.29776l0.167 -0.13742l0.334 -0.29776l0.334 -0.33827l0.334 -0.35237l0.167 -0.17618l0.334 -0.34708l0.167 -0.16738l0.334 -0.29776l0.167 -0.13742l0.334 -0.29776l0.167 -0.16738l0.167 -0.1709l0.334 -0.35237l0.66799 -0.70474l0.167 -0.17618l0.66799 -0.70474l0.167 -0.17618l0.334 -0.35237l0.66799 -0.70474l0.167 -0.17618l0.167 -0.17618l0.167 -0.17618l0.334 -0.35237l0.167 -0.17618l0.167 -0.17618l0.167 -0.17618l0.334 -0.35237l0.167 -0.17618l0.66799 -0.70474l0.167 -0.17618l0.167 -0.17618l0.167 -0.17618l0.66799 -0.70474l0.167 -0.17618l0.167 -0.17618l0.334 -0.35237l0.334 -0.35237l0.167 -0.17618l0.32898 -0.35237l0.15865 -0.17618l0.28222 -0.35237l0.13026 -0.17618l0.28222 -0.35237l0.15865 -0.17618l0.16198 -0.17618l0.334 -0.35237l0.32898 -0.35237l0.15865 -0.17618l0.28222 -0.35237l0.13026 -0.17618l0.28222 -0.35237l0.15865 -0.17618l0.16198 -0.17618l0.32898 -0.35237l0.15865 -0.17618l0.28222 -0.35237l0.13026 -0.17618l0.28222 -0.35237l0.31563 -0.35237l0.15865 -0.17618l0.28222 -0.35237l0.13026 -0.17618l0.28222 -0.35237l0.15865 -0.17618l0.31563 -0.35237l0.14361 -0.17618l0.26887 -0.35237l0.27889 -0.35237l0.14696 -0.17618l0.27889 -0.35237l0.13026 -0.17618l0.27889 -0.35237l0.14696 -0.17618l0.27889 -0.35237l0.13026 -0.17618l0.27889 -0.35237l0.14696 -0.17618l0.27889 -0.35237l0.26385 -0.35237l0.27054 -0.35237l0.13359 -0.17618l0.13026 -0.17618l0.13359 -0.17618l0.27054 -0.35237l0.13359 -0.17618l0.13026 -0.17618l0.13359 -0.17618l0.27054 -0.35237l0.13359 -0.17618l0.26385 -0.35237l0.27054 -0.35237l0.13359 -0.17618l0.2555 -0.35237l0.12024 -0.17618l0.2505 -0.35237l0.13026 -0.17618l0.12024 -0.17618l0.12024 -0.16562l0.19539 -0.27485l0.20874 -0.26428m9.85284 -102.89241l-0.04175 0.26428l-0.06011 0.27415l-0.05177 0.3425l-0.00835 0.17618l-0.00501 0.17618l-0.00501 0.35237l-0.00835 0.17618l-0.05177 0.35237l-0.03674 0.17618l-0.05177 0.35237l-0.00835 0.17618l-0.00501 0.17618l-0.00501 0.35237l-0.00835 0.17618l-0.05177 0.35237l-0.03674 0.17618l-0.05177 0.35237l-0.00835 0.17618l-0.00501 0.35237l-0.00501 0.35237l-0.00835 0.17618l-0.05177 0.35237l-0.03674 0.17618l-0.05177 0.35237l-0.00835 0.17618l-0.00501 0.35237l-0.00501 0.17618l-0.00835 0.17618l-0.05177 0.35237l-0.06513 0.35237l-0.03173 0.35237l-0.01002 0.35237l-0.00835 0.17618l-0.05177 0.35237l-0.03674 0.17618l-0.05177 0.35237l-0.00835 0.17618l-0.00501 0.35237l-0.00501 0.17618l-0.00835 0.17618l-0.05177 0.35237l-0.06513 0.35237l-0.03173 0.35237l-0.01002 0.35237l-0.00835 0.17618l-0.05177 0.35237l-0.03674 0.17618l-0.05177 0.35237l-0.00835 0.17618l-0.01002 0.35237l-0.03173 0.35237l-0.06513 0.35237l-0.02839 0.17618l-0.02338 0.17618l-0.02672 0.35237l-0.02338 0.17618l-0.06513 0.35237l-0.05177 0.35237l-0.00835 0.17618l-0.01002 0.35237l-0.00835 0.17618l-0.05177 0.35237l-0.03674 0.17618l-0.05177 0.35237l-0.01837 0.35237l-0.00835 0.17618l-0.05177 0.35237l-0.06513 0.35237l-0.02338 0.17618l-0.02672 0.35237l-0.02338 0.17618l-0.06513 0.35237l-0.05177 0.35237l-0.02672 0.35237l-0.02338 0.17618l-0.06513 0.35237l-0.02839 0.17618l-0.02338 0.17618l-0.02672 0.35237l-0.02338 0.17618l-0.06513 0.35237l-0.05511 0.35237l-0.02004 0.17618l-0.05511 0.35237l-0.03674 0.17618l-0.05511 0.35237l-0.02004 0.17618l-0.05511 0.35237l-0.03674 0.17618l-0.05511 0.35237l-0.02004 0.17618l-0.05511 0.35237l-0.03674 0.17618l-0.05511 0.35237l-0.02004 0.17618l-0.05511 0.35237l-0.03674 0.17618l-0.0334 0.17618l-0.06346 0.35237l-0.0334 0.17618l-0.03674 0.17618l-0.0334 0.17618l-0.06346 0.35237l-0.0334 0.17618l-0.07014 0.35237l-0.06346 0.35237l-0.0334 0.17618l-0.07848 0.35237l-0.04676 0.17618l-0.03674 0.17618l-0.04175 0.17618l-0.0334 0.17618l-0.06346 0.35237l-0.0334 0.17618l-0.07848 0.35237l-0.04676 0.17618l-0.03674 0.17618l-0.04676 0.17618l-0.03674 0.17618l-0.0835 0.35237l-0.04676 0.17618l-0.03674 0.17618l-0.0835 0.35237l-0.04676 0.17618l-0.03674 0.17618l-0.08851 0.35237l-0.0501 0.17618l-0.10354 0.35237l-0.0501 0.17618l-0.04175 0.17618l-0.08851 0.35237l-0.0501 0.17618l-0.05177 0.17618l-0.11189 0.35237l-0.11022 0.35237l-0.05678 0.17618l-0.11022 0.35237l-0.11189 0.35237l-0.11189 0.35237l-0.05511 0.17618l-0.11189 0.35237l-0.06011 0.17618l-0.06011 0.17618l-0.07014 0.17618l-0.13359 0.35237l-0.13026 0.35237l-0.07014 0.17618l-0.13359 0.35237l-0.13026 0.35237l-0.07348 0.17618l-0.07014 0.17618l-0.08851 0.17618l-0.167 0.35237l-0.07348 0.17618l-0.09352 0.17618l-0.07348 0.17618l-0.09352 0.17618l-0.07348 0.17618l-0.09352 0.17618l-0.167 0.35237l-0.07848 0.17618l-0.09685 0.17618l-0.09352 0.17618l-0.20374 0.35237l-0.2004 0.35237l-0.09685 0.17618l-0.21376 0.35237l-0.11022 0.17618l-0.22378 0.35237l-0.11022 0.17618l-0.22711 0.35237l-0.12191 0.17618l-0.12859 0.17618l-0.27054 0.35237l-0.13359 0.17618l-0.13026 0.17618l-0.28222 0.35237l-0.15865 0.17618l-0.32898 0.35237l-0.334 0.35237l-0.334 0.35237l-0.167 0.17618l-0.334 0.35237l-0.167 0.17618l-0.334 0.33827l-0.334 0.29776l-0.167 0.13214l-0.334 0.26428l-0.167 0.13742l-0.167 0.12686l-0.167 0.13742l-0.334 0.25899l-0.167 0.12333l-0.334 0.22903l-0.167 0.10218l-0.334 0.21142l-0.334 0.21495l-0.167 0.09866l-0.167 0.10218l-0.167 0.0828l-0.334 0.18147l-0.167 0.10218l-0.167 0.09866l-0.167 0.10747l-0.334 0.19557l-0.334 0.15681l-0.167 0.06871l-0.167 0.07752l-0.167 0.07399l-0.334 0.1709l-0.167 0.09338l-0.167 0.07399l-0.167 0.07752l-0.334 0.13742l-0.334 0.14095l-0.167 0.07399l-0.334 0.13742l-0.334 0.14095l-0.167 0.07399l-0.167 0.06342l-0.167 0.06342l-0.167 0.0599l-0.334 0.11628l-0.167 0.0599l-0.334 0.11628l-0.167 0.0599l-0.334 0.11628l-0.334 0.11805l-0.334 0.10747l-0.167 0.04404l-0.334 0.09338l-0.167 0.05286l-0.334 0.10924l-0.167 0.05286l-0.334 0.09338l-0.167 0.03876l-0.167 0.04934l-0.167 0.03876l-0.334 0.0881l-0.167 0.04934l-0.167 0.03876l-0.167 0.04934l-0.167 0.03876l-0.167 0.04934l-0.334 0.0881l-0.167 0.03876l-0.167 0.04934l-0.167 0.03876l-0.167 0.04934l-0.334 0.0828l-0.167 0.03523l-0.334 0.06695l-0.167 0.03523l-0.334 0.0828l-0.167 0.04934l-0.167 0.03876l-0.167 0.04404l-0.334 0.05814l-0.167 0.02114l-0.334 0.05814l-0.334 0.07399l-0.334 0.06695l-0.167 0.03523l-0.167 0.03876l-0.167 0.03523l-0.334 0.06695l-0.167 0.03523l-0.167 0.03876l-0.334 0.05814l-0.167 0.02114l-0.334 0.05814l-0.167 0.03876l-0.334 0.05814l-0.334 0.04934l-0.334 0.06871l-0.334 0.05814l-0.167 0.02114l-0.334 0.05814l-0.334 0.06871l-0.167 0.02466l-0.334 0.02818l-0.167 0.02466l-0.334 0.06871l-0.334 0.05461l-0.334 0.02818l-0.167 0.02466l-0.167 0.02995l-0.334 0.06871l-0.167 0.02466l-0.334 0.02818l-0.167 0.02466l-0.334 0.06871l-0.334 0.05461l-0.334 0.02818l-0.167 0.02466l-0.334 0.06871l-0.334 0.05461l-0.167 0.00881l-0.334 0.01938l-0.334 0.05461l-0.167 0.03876l-0.334 0.05461l-0.167 0.00881l-0.334 0.01058l-0.167 0.00881l-0.334 0.05461l-0.167 0.03876l-0.334 0.05461l-0.167 0.00881l-0.334 0.01938l-0.334 0.05461l-0.167 0.03876l-0.334 0.05461l-0.167 0.00881l-0.334 0.01058l-0.167 0.00881l-0.334 0.05461l-0.167 0.03876l-0.334 0.05461l-0.167 0.00881l-0.334 0.01058l-0.334 0.03348l-0.334 0.06871l-0.334 0.05461l-0.167 0.00881l-0.334 0.00528l-0.167 0.00528l-0.167 0.00881l-0.334 0.05461l-0.167 0.03876l-0.334 0.05461l-0.167 0.00881l-0.167 0.00528l-0.334 0.00528l-0.167 0.00881l-0.334 0.05461l-0.167 0.03876l-0.334 0.05461l-0.167 0.00881l-0.334 0.01058l-0.167 0.00881l-0.334 0.05461l-0.167 0.03876l-0.334 0.05461l-0.167 0.00881l-0.334 0.00528l-0.334 0.00528l-0.167 0.00881l-0.334 0.05461l-0.167 0.03876l-0.334 0.05461l-0.167 0.00881l-0.334 0.00528l-0.334 0.00528l-0.167 0.00881l-0.334 0.05461l-0.167 0.03876l-0.32398 0.05461l-0.167 0.00881l-0.34402 0.00528l0 0.88092l0 0.35237l0 1.40949l0 0.70474l0 0.17618l0 0.70474l0 0.88092l0 0.70474l0 1.05712l0 0.61664l0 0.26428l0.2505 0.0141l0.09352 0.02466l0.167 0.02995l0.15698 0.03876l0.334 0.05461l0.167 0.00881l0.167 0.00528l0.334 0.00528l0.167 0.00881l0.334 0.05461l0.167 0.03876l0.334 0.05461l0.167 0.00881l0.334 0.00528l0.334 0.00528l0.167 0.00881l0.334 0.05461l0.167 0.03876l0.334 0.05461l0.167 0.00881l0.334 0.00528l0.334 0.00528l0.167 0.00881l0.334 0.05461l0.167 0.03876l0.334 0.05461l0.167 0.00881l0.334 0.01058l0.167 0.00881l0.334 0.05461l0.167 0.03876l0.334 0.05461l0.167 0.00881l0.334 0.01058l0.167 0.00881l0.334 0.05461l0.167 0.03876l0.334 0.05461l0.167 0.00881l0.334 0.00528l0.167 0.00528l0.167 0.00881l0.334 0.05461l0.167 0.03876l0.334 0.05461l0.167 0.00881l0.334 0.01058l0.167 0.00881l0.334 0.05461l0.167 0.03876l0.334 0.05461l0.167 0.00881l0.334 0.01938l0.167 0.02466l0.334 0.06871l0.334 0.05461l0.167 0.00881l0.334 0.01058l0.167 0.00881l0.334 0.05461l0.167 0.03876l0.334 0.05461l0.334 0.01938l0.167 0.00881l0.334 0.05461l0.334 0.06871l0.167 0.02466l0.334 0.02818l0.167 0.02466l0.334 0.06871l0.334 0.05461l0.334 0.02818l0.167 0.02466l0.334 0.06871l0.167 0.02995l0.167 0.02466l0.334 0.02818l0.167 0.02466l0.334 0.06871l0.334 0.05461l0.167 0.00881l0.334 0.01938l0.167 0.02466l0.334 0.06871l0.334 0.05814l0.167 0.02114l0.334 0.05814l0.167 0.03876l0.167 0.03523l0.334 0.06695l0.167 0.03523l0.167 0.03876l0.334 0.05461l0.334 0.02818l0.334 0.05461l0.334 0.07399l0.334 0.06695l0.167 0.03523l0.167 0.03876l0.167 0.03523l0.334 0.06695l0.167 0.03523l0.167 0.03876l0.167 0.03523l0.334 0.06695l0.167 0.03523l0.167 0.03876l0.167 0.03523l0.334 0.06695l0.167 0.03523l0.167 0.03876l0.167 0.03523l0.334 0.06695l0.167 0.03523l0.334 0.0828l0.167 0.04934l0.167 0.03876l0.167 0.04934l0.167 0.03876l0.167 0.04934l0.167 0.03876l0.334 0.0881l0.167 0.04934l0.167 0.03876l0.334 0.0881l0.167 0.04934l0.167 0.03876l0.167 0.04934l0.167 0.03876l0.334 0.09338l0.167 0.05286l0.334 0.10924l0.167 0.05286l0.334 0.09338l0.167 0.04404l0.167 0.05286l0.167 0.05461l0.167 0.05814l0.334 0.11805l0.167 0.05814l0.83499 0.29423l0.50099 0.17618l0.334 0.11805l0.167 0.06342l0.167 0.06342l0.167 0.07399l0.334 0.14095l0.334 0.13742l0.167 0.07399l0.334 0.14095l0.334 0.13742l0.167 0.07752l0.167 0.07399l0.167 0.09338l0.334 0.17618l0.167 0.07752l0.167 0.09866l0.167 0.07752l0.167 0.09866l0.167 0.07752l0.167 0.09866l0.334 0.17618l0.167 0.0828l0.167 0.10218l0.167 0.09866l0.334 0.21495l0.334 0.21142l0.167 0.10218l0.167 0.11275l0.167 0.11275l0.334 0.23433l0.167 0.12156l0.167 0.12333l0.167 0.13214l0.167 0.12686l0.334 0.26956l0.334 0.28366l0.334 0.28366l0.167 0.13742l0.334 0.29776l0.167 0.16738l0.167 0.1709l0.334 0.35237l0.334 0.35237l0.167 0.17618l0.32898 0.35237l0.15865 0.17618l0.28222 0.35237l0.13026 0.17618l0.13359 0.17618l0.27054 0.35237l0.13359 0.17618l0.12524 0.17618l0.13026 0.17618l0.12024 0.17618l0.12524 0.17618l0.23213 0.35237l0.11189 0.17618l0.21709 0.35237l0.10688 0.17618l0.19037 0.35237l0.0835 0.17618l0.19037 0.35237l0.20374 0.35237l0.09352 0.17618l0.09685 0.17618l0.172 0.35237l0.07348 0.17618l0.09352 0.17618l0.07348 0.17618l0.09352 0.17618l0.16198 0.35237l0.07014 0.17618l0.07348 0.17618l0.13026 0.35237l0.14361 0.35237l0.0835 0.17618l0.14361 0.35237l0.06011 0.17618l0.06011 0.17618l0.05678 0.17618l0.12024 0.35237l0.13359 0.35237l0.07014 0.17618l0.12024 0.35237l0.11189 0.35237l0.05511 0.17618l0.05678 0.17618l0.05511 0.17618l0.11189 0.35237l0.11022 0.35237l0.05678 0.17618l0.05511 0.17618l0.05177 0.17618l0.0501 0.17618l0.04175 0.17618l0.0835 0.35237l0.04676 0.17618l0.03674 0.17618l0.08851 0.35237l0.0501 0.17618l0.10354 0.35237l0.0501 0.17618l0.08851 0.35237l0.03674 0.17618l0.04676 0.17618l0.0835 0.35237l0.03674 0.17618l0.04676 0.17618l0.03674 0.17618l0.04676 0.17618l0.07848 0.35237l0.0334 0.17618l0.06346 0.35237l0.07014 0.35237l0.0334 0.17618l0.06346 0.35237l0.0334 0.17618l0.07014 0.35237l0.06346 0.35237l0.0334 0.17618l0.07848 0.35237l0.04676 0.17618l0.03674 0.17618l0.04175 0.17618l0.05511 0.35237l0.02004 0.17618l0.05511 0.35237l0.03674 0.17618l0.05511 0.35237l0.02004 0.17618l0.05511 0.35237l0.03674 0.17618l0.0334 0.17618l0.06346 0.35237l0.0334 0.17618l0.03674 0.17618l0.05511 0.35237l0.02004 0.17618l0.05511 0.35237l0.03674 0.17618l0.05511 0.35237l0.02004 0.17618l0.05511 0.35237l0.06513 0.35237l0.02338 0.17618l0.00835 0.17618l0.01837 0.35237l0.02338 0.17618l0.06513 0.35237l0.05511 0.35237l0.02004 0.17618l0.05511 0.35237l0.06513 0.35237l0.02338 0.17618l0.02672 0.35237l0.02338 0.17618l0.06513 0.35237l0.05177 0.35237l0.00835 0.17618l0.01837 0.35237l0.05177 0.35237l0.03674 0.17618l0.05177 0.35237l0.00835 0.17618l0.01002 0.35237l0.00835 0.17618l0.05177 0.35237l0.03674 0.17618l0.05177 0.35237l0.01837 0.35237l0.00835 0.17618l0.05177 0.35237l0.03674 0.17618l0.05177 0.35237l0.00835 0.17618l0.01837 0.35237l0.05177 0.35237l0.03674 0.17618l0.05177 0.35237l0.00835 0.17618l0.00501 0.35237l0.00501 0.17618l0.00835 0.17618l0.05177 0.35237l0.03674 0.17618l0.05177 0.35237l0.00835 0.17618l0.01002 0.35237l0.00835 0.17618l0.05177 0.35237l0.03674 0.17618l0.05177 0.35237l0.00835 0.17618l0.01002 0.35237l0.00835 0.17618l0.05177 0.35237l0.03674 0.17618l0.05177 0.35237l0.00835 0.17618l0.00501 0.35237l0.00501 0.17618l0.00835 0.17618l0.05177 0.35237l0.03674 0.17618l0.05177 0.35237l0.00835 0.17618l0.00501 0.35237l0.00501 0.35237l0.00835 0.17618l0.05177 0.35237l0.03674 0.17618l0.05177 0.35237l0.00835 0.17618l0.00501 0.35237l0.00501 0.17618l0.00835 0.17618l0.05177 0.35237l0.03674 0.17618l0.05177 0.35237l0.00835 0.17618l0.00501 0.35237l0.00501 0.17618l0.00835 0.17618l0.05177 0.3418l0.06011 0.27485l0.04175 0.26428l0.66799 0l0.167 0l0.66799 0l0.167 0l0.167 0l0.167 0l0.167 0l0.50099 0l0.66799 0l0.334 0l2.67196 0l0.334 0l0.15698 0l0.167 0l0.34402 0l0 -0.36295l0.00501 -0.3418l0.00835 -0.17618l0.05177 -0.35237l0.03674 -0.17618l0.05177 -0.35237l0.00835 -0.17618l0.00501 -0.35237l0 -0.35237l0.00501 -0.17618l0.00835 -0.17618l0.05177 -0.35237l0.06513 -0.35237l0.03173 -0.35237l0.01002 -0.35237l0.00835 -0.17618l0.05177 -0.35237l0.03674 -0.17618l0.05177 -0.35237l0.00835 -0.17618l0.00501 -0.35237l0.00501 -0.17618l0.00835 -0.17618l0.05177 -0.35237l0.03674 -0.17618l0.05177 -0.35237l0.00835 -0.17618l0.00501 -0.35237l0.00501 -0.17618l0.00835 -0.17618l0.05177 -0.35237l0.03674 -0.17618l0.05177 -0.35237l0.00835 -0.17618l0.00501 -0.35237l0.00501 -0.17618l0.00835 -0.17618l0.05177 -0.35237l0.03674 -0.17618l0.05177 -0.35237l0.00835 -0.17618l0.01002 -0.35237l0.00835 -0.17618l0.05177 -0.35237l0.03674 -0.17618l0.05177 -0.35237l0.00835 -0.17618l0.01837 -0.35237l0.05177 -0.35237l0.03674 -0.17618l0.05177 -0.35237l0.00835 -0.17618l0.00501 -0.17618l0.00501 -0.35237l0.00835 -0.17618l0.05177 -0.35237l0.06513 -0.35237l0.02338 -0.17618l0.02672 -0.35237l0.02338 -0.17618l0.06513 -0.35237l0.05177 -0.35237l0.01837 -0.35237l0.00835 -0.17618l0.05177 -0.35237l0.06513 -0.35237l0.02338 -0.17618l0.02672 -0.35237l0.02338 -0.17618l0.02839 -0.17618l0.06513 -0.35237l0.02338 -0.17618l0.00835 -0.17618l0.01837 -0.35237l0.02338 -0.17618l0.02839 -0.17618l0.06513 -0.35237l0.02338 -0.17618l0.02672 -0.35237l0.02338 -0.17618l0.06513 -0.35237l0.05511 -0.35237l0.02004 -0.17618l0.05511 -0.35237l0.03674 -0.17618l0.05511 -0.35237l0.02004 -0.17618l0.05511 -0.35237l0.03674 -0.17618l0.05511 -0.35237l0.02004 -0.17618l0.05511 -0.35237l0.03674 -0.17618l0.02839 -0.17618l0.04676 -0.35237l0.05511 -0.35237l0.07014 -0.35237l0.06346 -0.35237l0.0334 -0.17618l0.03674 -0.17618l0.0334 -0.17618l0.06346 -0.35237l0.0334 -0.17618l0.03674 -0.17618l0.05511 -0.35237l0.02004 -0.17618l0.05511 -0.35237l0.04175 -0.17618l0.0835 -0.35237l0.0835 -0.35237l0.03674 -0.17618l0.04676 -0.17618l0.07848 -0.35237l0.0334 -0.17618l0.06346 -0.35237l0.0334 -0.17618l0.07848 -0.35237l0.04676 -0.17618l0.03674 -0.17618l0.04676 -0.17618l0.03674 -0.17618l0.0835 -0.35237l0.04676 -0.17618l0.0835 -0.35237l0.03674 -0.17618l0.04676 -0.17618l0.03674 -0.17618l0.08851 -0.35237l0.0501 -0.17618l0.05177 -0.17618l0.11189 -0.35237l0.05511 -0.17618l0.05177 -0.17618l0.0501 -0.17618l0.04175 -0.17618l0.08851 -0.35237l0.10187 -0.35237l0.11189 -0.35237l0.06011 -0.17618l0.06011 -0.17618l0.07014 -0.17618l0.13359 -0.35237l0.06011 -0.17618l0.1169 -0.35237l0.06011 -0.17618l0.06011 -0.17618l0.07014 -0.17618l0.13359 -0.35237l0.13026 -0.35237l0.07014 -0.17618l0.13359 -0.35237l0.13026 -0.35237l0.07348 -0.17618l0.07014 -0.17618l0.08851 -0.17618l0.167 -0.35237l0.07348 -0.17618l0.09352 -0.17618l0.07348 -0.17618l0.09352 -0.17618l0.167 -0.35237l0.07848 -0.17618l0.09685 -0.17618l0.09352 -0.17618l0.20374 -0.35237l0.2004 -0.35237l0.09685 -0.17618l0.21376 -0.35237l0.11022 -0.17618l0.22378 -0.35237l0.22211 -0.35237l0.11522 -0.17618l0.1169 -0.17618l0.12524 -0.17618l0.12024 -0.17618l0.2555 -0.35237l0.27889 -0.35237l0.14696 -0.17618l0.27889 -0.35237l0.13026 -0.17618l0.28222 -0.35237l0.15865 -0.17618l0.32898 -0.35237l0.334 -0.33827l0.334 -0.29776l0.167 -0.13742l0.334 -0.29423l0.167 -0.15504l0.334 -0.29423l0.334 -0.26956l0.167 -0.12686l0.167 -0.13214l0.334 -0.2449l0.167 -0.11805l0.334 -0.23433l0.334 -0.23433l0.167 -0.11275l0.167 -0.11275l0.334 -0.20085l0.167 -0.0828l0.167 -0.09866l0.167 -0.0828l0.167 -0.10218l0.167 -0.09866l0.334 -0.21495l0.334 -0.20085l0.167 -0.0828l0.167 -0.09338l0.167 -0.07399l0.167 -0.07752l0.334 -0.13742l0.334 -0.15151l0.167 -0.0881l0.334 -0.15151l0.334 -0.13742l0.334 -0.14095l0.167 -0.07399l0.334 -0.13742l0.334 -0.14095l0.167 -0.07399l0.167 -0.06342l0.167 -0.06342l0.167 -0.0599l0.334 -0.11628l0.334 -0.11805l0.167 -0.05814l0.334 -0.11805l0.334 -0.10747l0.334 -0.09338l0.167 -0.04404l0.167 -0.05286l0.334 -0.10924l0.167 -0.05286l0.167 -0.04404l0.334 -0.09338l0.167 -0.05286l0.334 -0.10924l0.167 -0.05286l0.334 -0.09338l0.167 -0.03876l0.334 -0.0881l0.167 -0.04934l0.334 -0.0828l0.167 -0.03523l0.334 -0.06695l0.167 -0.03523l0.334 -0.0828l0.167 -0.04934l0.334 -0.0881l0.167 -0.03876l0.167 -0.04934l0.334 -0.0828l0.167 -0.03523l0.334 -0.06695l0.334 -0.07399l0.167 -0.03523l0.334 -0.06695l0.167 -0.03523l0.167 -0.03876l0.167 -0.03523l0.334 -0.06695l0.167 -0.03523l0.167 -0.03876l0.334 -0.05814l0.167 -0.02114l0.334 -0.05814l0.334 -0.06871l0.334 -0.04934l0.334 -0.05814l0.167 -0.03876l0.334 -0.05814l0.167 -0.02114l0.334 -0.05814l0.167 -0.03876l0.334 -0.05814l0.167 -0.02114l0.167 -0.02818l0.334 -0.06871l0.167 -0.02995l0.167 -0.02466l0.334 -0.02818l0.167 -0.02466l0.167 -0.02995l0.334 -0.06871l0.167 -0.02466l0.334 -0.02818l0.334 -0.05461l0.334 -0.06871l0.167 -0.02466l0.334 -0.02818l0.334 -0.05461l0.334 -0.06871l0.167 -0.02466l0.334 -0.02818l0.334 -0.05461l0.167 -0.03876l0.334 -0.05461l0.167 -0.00881l0.334 -0.01058l0.167 -0.00881l0.334 -0.05461l0.334 -0.06871l0.167 -0.02466l0.334 -0.01938l0.167 -0.00881l0.334 -0.05461l0.167 -0.03876l0.334 -0.05461l0.334 -0.01938l0.167 -0.00881l0.334 -0.05461l0.167 -0.03876l0.334 -0.05461l0.167 -0.00881l0.334 -0.01058l0.167 -0.00881l0.334 -0.05461l0.167 -0.03876l0.334 -0.05461l0.167 -0.00881l0.167 -0.00528l0.334 -0.00528l0.167 -0.00881l0.334 -0.05461l0.334 -0.06871l0.334 -0.03348l0.334 -0.01058l0.167 -0.00881l0.334 -0.05461l0.167 -0.03876l0.334 -0.05461l0.167 -0.00881l0.167 -0.00528l0.334 -0.00528l0.167 -0.00881l0.334 -0.05461l0.167 -0.03876l0.334 -0.05461l0.167 -0.00881l0.334 -0.00528l0.167 -0.00528l0.167 -0.00881l0.334 -0.05461l0.167 -0.03876l0.334 -0.05461l0.167 -0.00881l0.334 -0.00528l0.334 -0.00528l0.167 -0.00881l0.334 -0.05461l0.167 -0.03876l0.334 -0.05461l0.167 -0.00881l0.334 -0.00528l0.334 -0.00528l0.167 -0.00881l0.32398 -0.05461l0.26052 -0.06342l0.2505 -0.04404l0 -0.70474l0 -0.17618l0 -0.70474l0 -0.52855l0 -0.35237l0 -0.17618l0 -0.70474l0 -0.35237l0 -0.17618l0 -0.17618l0 -0.70474l0 -0.70474l0 -0.35237l0 -0.70474l0 -0.35237l0 -0.17618l0 -0.70474l-0.2505 -0.00528l-0.26052 -0.03348l-0.32398 -0.06871l-0.334 -0.05461l-0.167 -0.00881l-0.167 -0.00528l-0.334 0l-0.334 -0.00528l-0.167 -0.00881l-0.334 -0.05461l-0.167 -0.03876l-0.334 -0.05461l-0.167 -0.00881l-0.167 -0.00528l-0.334 -0.00528l-0.167 -0.00881l-0.334 -0.05461l-0.167 -0.03876l-0.334 -0.05461l-0.167 -0.00881l-0.167 -0.00528l-0.334 -0.00528l-0.167 -0.00881l-0.334 -0.05461l-0.167 -0.03876l-0.334 -0.05461l-0.167 -0.00881l-0.334 -0.01058l-0.167 -0.00881l-0.334 -0.05461l-0.167 -0.03876l-0.334 -0.05461l-0.167 -0.00881l-0.334 -0.00528l-0.334 -0.00528l-0.167 -0.00881l-0.334 -0.05461l-0.167 -0.03876l-0.334 -0.05461l-0.167 -0.00881l-0.334 -0.01058l-0.167 -0.00881l-0.334 -0.05461l-0.167 -0.03876l-0.334 -0.05461l-0.167 -0.00881l-0.334 -0.01938l-0.167 -0.02466l-0.334 -0.06871l-0.334 -0.05461l-0.167 -0.00881l-0.334 -0.01058l-0.167 -0.00881l-0.334 -0.05461l-0.167 -0.03876l-0.334 -0.05461l-0.167 -0.00881l-0.334 -0.01058l-0.167 -0.00881l-0.334 -0.05461l-0.334 -0.06871l-0.167 -0.02466l-0.334 -0.02818l-0.334 -0.05461l-0.334 -0.06871l-0.167 -0.02466l-0.334 -0.02818l-0.167 -0.02466l-0.334 -0.06871l-0.334 -0.05461l-0.334 -0.01938l-0.167 -0.00881l-0.334 -0.05461l-0.334 -0.06871l-0.167 -0.02466l-0.334 -0.02818l-0.167 -0.02466l-0.334 -0.06871l-0.334 -0.05814l-0.167 -0.02114l-0.334 -0.05814l-0.167 -0.03876l-0.334 -0.05814l-0.167 -0.02114l-0.167 -0.02818l-0.167 -0.02995l-0.334 -0.06871l-0.167 -0.02466l-0.334 -0.02818l-0.167 -0.02466l-0.334 -0.06871l-0.167 -0.03523l-0.334 -0.06695l-0.167 -0.03523l-0.167 -0.03876l-0.334 -0.05814l-0.167 -0.02114l-0.334 -0.05814l-0.167 -0.03876l-0.167 -0.03523l-0.334 -0.06695l-0.167 -0.03523l-0.167 -0.03876l-0.167 -0.03523l-0.334 -0.06695l-0.167 -0.03523l-0.334 -0.07399l-0.334 -0.06695l-0.167 -0.03523l-0.167 -0.04404l-0.167 -0.03876l-0.167 -0.04934l-0.334 -0.0828l-0.167 -0.03523l-0.334 -0.06695l-0.167 -0.03523l-0.334 -0.0828l-0.167 -0.04934l-0.334 -0.0881l-0.167 -0.03876l-0.334 -0.09338l-0.167 -0.05286l-0.334 -0.10924l-0.167 -0.05286l-0.334 -0.09338l-0.167 -0.03876l-0.167 -0.04934l-0.334 -0.0881l-0.167 -0.04404l-0.167 -0.05286l-0.167 -0.05461l-0.167 -0.05814l-0.167 -0.0599l-0.334 -0.11628l-0.334 -0.11805l-0.334 -0.10747l-0.334 -0.09866l-0.167 -0.04757l-0.334 -0.13214l-0.167 -0.07399l-0.334 -0.12686l-0.167 -0.0599l-0.334 -0.12686l-0.167 -0.07399l-0.334 -0.14095l-0.334 -0.13742l-0.334 -0.14095l-0.167 -0.07399l-0.334 -0.13742l-0.167 -0.07752l-0.167 -0.07399l-0.167 -0.09338l-0.334 -0.17618l-0.167 -0.07752l-0.167 -0.09866l-0.167 -0.07752l-0.167 -0.09866l-0.167 -0.07752l-0.167 -0.09866l-0.334 -0.17618l-0.167 -0.0828l-0.167 -0.10218l-0.167 -0.09866l-0.334 -0.21495l-0.334 -0.21142l-0.167 -0.10218l-0.167 -0.11275l-0.167 -0.11275l-0.334 -0.23433l-0.167 -0.12156l-0.167 -0.12333l-0.167 -0.13214l-0.334 -0.26428l-0.167 -0.13214l-0.167 -0.14623l-0.167 -0.148l-0.334 -0.30304l-0.334 -0.28366l-0.334 -0.29776l-0.167 -0.16738l-0.167 -0.1709l-0.334 -0.35237l-0.334 -0.35237l-0.16198 -0.17618l-0.15865 -0.17618l-0.28222 -0.35237l-0.13026 -0.17618l-0.26887 -0.35237l-0.26887 -0.35237l-0.2555 -0.35237l-0.12024 -0.17618l-0.12524 -0.17618l-0.1169 -0.17618l-0.11522 -0.17618l-0.22211 -0.35237l-0.10688 -0.17618l-0.10688 -0.17618l-0.09685 -0.17618l-0.2004 -0.35237l-0.20374 -0.35237l-0.09352 -0.17618l-0.09685 -0.17618l-0.07848 -0.17618l-0.167 -0.35237l-0.09352 -0.17618l-0.07348 -0.17618l-0.09352 -0.17618l-0.07348 -0.17618l-0.09352 -0.17618l-0.07348 -0.17618l-0.09352 -0.17618l-0.07348 -0.17618l-0.167 -0.35237l-0.08851 -0.17618l-0.07014 -0.17618l-0.07348 -0.17618l-0.13026 -0.35237l-0.13359 -0.35237l-0.07014 -0.17618l-0.06011 -0.17618l-0.06011 -0.17618l-0.05678 -0.17618l-0.12024 -0.35237l-0.13359 -0.35237l-0.07014 -0.17618l-0.12024 -0.35237l-0.11189 -0.35237l-0.11189 -0.35237l-0.05511 -0.17618l-0.10187 -0.35237l-0.08851 -0.35237l-0.04175 -0.17618l-0.0501 -0.17618l-0.05177 -0.17618l-0.05511 -0.17618l-0.11189 -0.35237l-0.05177 -0.17618l-0.0501 -0.17618l-0.08851 -0.35237l-0.03674 -0.17618l-0.04676 -0.17618l-0.03674 -0.17618l-0.0835 -0.35237l-0.0835 -0.35237l-0.04676 -0.17618l-0.0835 -0.35237l-0.03674 -0.17618l-0.04676 -0.17618l-0.03674 -0.17618l-0.04676 -0.17618l-0.03674 -0.17618l-0.04676 -0.17618l-0.07848 -0.35237l-0.0334 -0.17618l-0.06346 -0.35237l-0.0334 -0.17618l-0.07848 -0.35237l-0.04676 -0.17618l-0.03674 -0.17618l-0.04175 -0.17618l-0.0334 -0.17618l-0.06346 -0.35237l-0.07014 -0.35237l-0.05511 -0.35237l-0.02004 -0.17618l-0.05511 -0.35237l-0.07014 -0.35237l-0.06346 -0.35237l-0.0334 -0.17618l-0.03674 -0.17618l-0.0334 -0.17618l-0.06346 -0.35237l-0.0334 -0.17618l-0.03674 -0.17618l-0.05511 -0.35237l-0.04676 -0.35237l-0.06513 -0.35237l-0.05177 -0.35237l-0.02672 -0.35237l-0.02338 -0.17618l-0.06513 -0.35237l-0.05511 -0.35237l-0.02004 -0.17618l-0.05511 -0.35237l-0.06513 -0.35237l-0.02338 -0.17618l-0.02672 -0.35237l-0.05177 -0.35237l-0.06513 -0.35237l-0.02338 -0.17618l-0.02672 -0.35237l-0.02338 -0.17618l-0.06513 -0.35237l-0.05177 -0.35237l-0.00835 -0.17618l-0.01837 -0.35237l-0.05177 -0.35237l-0.06513 -0.35237l-0.02338 -0.17618l-0.02672 -0.35237l-0.02338 -0.17618l-0.02839 -0.17618l-0.06513 -0.35237l-0.02338 -0.17618l-0.01837 -0.35237l-0.00835 -0.17618l-0.02338 -0.17618l-0.06513 -0.35237l-0.05177 -0.35237l-0.00835 -0.17618l-0.00501 -0.17618l-0.00501 -0.35237l-0.00835 -0.17618l-0.05177 -0.35237l-0.03674 -0.17618l-0.05177 -0.35237l-0.01837 -0.35237l-0.00835 -0.17618l-0.05177 -0.35237l-0.03674 -0.17618l-0.05177 -0.35237l-0.00835 -0.17618l-0.01002 -0.35237l-0.00835 -0.17618l-0.05177 -0.35237l-0.03674 -0.17618l-0.05177 -0.35237l-0.00835 -0.17618l-0.00501 -0.17618l-0.00501 -0.35237l-0.00835 -0.17618l-0.05177 -0.35237l-0.03674 -0.17618l-0.05177 -0.35237l-0.00835 -0.17618l-0.00501 -0.17618l-0.00501 -0.35237l-0.00835 -0.17618l-0.05177 -0.35237l-0.03674 -0.17618l-0.05177 -0.35237l-0.00835 -0.17618l-0.01002 -0.35237l-0.03173 -0.35237l-0.06513 -0.35237l-0.05177 -0.35237l-0.00835 -0.17618l-0.00501 -0.17618l-0.00501 -0.35237l-0.00835 -0.17618l-0.05177 -0.35237l-0.03674 -0.17618l-0.05177 -0.35237l-0.00835 -0.17618l-0.00501 -0.17618l0 -0.35237l-0.00501 -0.35237l-0.00835 -0.17618l-0.05177 -0.35237l-0.03674 -0.17618l-0.05177 -0.35237l-0.00835 -0.16632l-0.00501 -0.17618l0 -0.36223l-0.167 -0.17618l-0.2505 0l-0.26052 0l-0.32398 0l-0.334 0l-2.67196 0l-0.167 0l-0.66799 0l-0.66799 0l-0.66799 0l-0.167 0l-0.334 0l-0.15698 0l-0.167 0l-0.34402 0l0.00006 0l0.00007 -0.00013z" id="svg_3"/>
 <path stroke="null" fill="#ffffff" d="m334.56725 238.5657l-0.01336 0.26428l-0.02338 0.09866l-0.02839 0.17618l-0.07848 0.3418l-0.04676 0.17618l-0.03674 0.17618l-0.04175 0.17618l-0.0334 0.17618l-0.06346 0.35237l-0.0334 0.17618l-0.07848 0.35237l-0.08851 0.35237l-0.0501 0.17618l-0.10354 0.35237l-0.0501 0.17618l-0.08851 0.35237l-0.03674 0.17618l-0.04676 0.17618l-0.03674 0.17618l-0.08851 0.35237l-0.0501 0.17618l-0.10354 0.35237l-0.0501 0.17618l-0.08851 0.35237l-0.04175 0.17618l-0.10187 0.35237l-0.05511 0.17618l-0.11189 0.35237l-0.05511 0.17618l-0.05678 0.17618l-0.11022 0.35237l-0.05678 0.17618l-0.11022 0.35237l-0.05678 0.17618l-0.05511 0.17618l-0.11189 0.35237l-0.12024 0.35237l-0.07014 0.17618l-0.13359 0.35237l-0.12024 0.35237l-0.05678 0.17618l-0.06011 0.17618l-0.06011 0.17618l-0.14361 0.35237l-0.0835 0.17618l-0.14361 0.35237l-0.13026 0.35237l-0.14361 0.35237l-0.16198 0.35237l-0.09352 0.17618l-0.07348 0.17618l-0.09352 0.17618l-0.07348 0.17618l-0.167 0.35237l-0.09352 0.17618l-0.07348 0.17618l-0.09352 0.17618l-0.07348 0.17618l-0.09352 0.17618l-0.167 0.35237l-0.07848 0.17618l-0.09685 0.17618l-0.09352 0.17618l-0.20374 0.35237l-0.2004 0.35237l-0.09685 0.17618l-0.21376 0.35237l-0.22211 0.35237l-0.22211 0.35237l-0.11189 0.17618l-0.23213 0.35237l-0.12524 0.17618l-0.2505 0.35237l-0.12024 0.17618l-0.13026 0.17618l-0.12024 0.17618l-0.2555 0.35237l-0.13861 0.17618l-0.14028 0.17618l-0.28724 0.35237l-0.26887 0.35237l-0.28222 0.35237l-0.15865 0.17618l-0.32898 0.35237l-0.167 0.17618l-0.50099 0.52855l-0.334 0.35237l-0.334 0.34708l-0.167 0.16738l-0.334 0.29776l-0.167 0.13742l-0.167 0.14095l-0.334 0.28542l-0.167 0.14095l-0.167 0.13742l-0.334 0.28366l-0.334 0.27837l-0.334 0.25018l-0.334 0.23433l-0.334 0.23609l-0.50099 0.35237l-0.167 0.11628l-0.167 0.11275l-0.167 0.11275l-0.167 0.10218l-0.334 0.21142l-0.334 0.21495l-0.334 0.20085l-0.167 0.0881l-0.334 0.20085l-0.334 0.21495l-0.334 0.20085l-0.167 0.0828l-0.167 0.09866l-0.167 0.07752l-0.167 0.09338l-0.334 0.15151l-0.334 0.13742l-0.167 0.07752l-0.167 0.07399l-0.334 0.1709l-0.167 0.09338l-0.167 0.07399l-0.167 0.07752l-0.334 0.13742l-0.334 0.14095l-0.167 0.07399l-0.334 0.13742l-0.334 0.14095l-0.167 0.07399l-0.167 0.06342l-0.167 0.06342l-0.334 0.11805l-0.334 0.11805l-0.334 0.11628l-0.334 0.11805l-0.50099 0.17618l-0.167 0.05814l-0.334 0.11805l-0.167 0.05461l-0.167 0.05286l-0.334 0.09338l-0.167 0.04404l-0.167 0.05286l-0.334 0.10924l-0.167 0.05286l-0.167 0.04404l-0.334 0.09338l-0.167 0.05286l-0.334 0.10924l-0.167 0.05286l-0.334 0.09338l-0.167 0.03876l-0.167 0.04934l-0.167 0.03876l-0.167 0.04934l-0.334 0.0881l-0.167 0.03876l-0.167 0.04934l-0.334 0.0828l-0.167 0.03523l-0.334 0.06695l-0.334 0.07399l-0.15698 0.02995l-0.26052 0.03348l-0.2505 0.00528l0 0.35237l0.2505 0.0141l0.09352 0.02466l0.32398 0.06871l0.167 0.03523l0.334 0.06695l0.167 0.03523l0.334 0.0828l0.167 0.04934l0.167 0.03876l0.334 0.0881l0.167 0.04934l0.167 0.03876l0.334 0.0881l0.167 0.04934l0.167 0.03876l0.167 0.04934l0.167 0.03876l0.334 0.09338l0.167 0.05286l0.334 0.10924l0.167 0.05286l0.334 0.09338l0.167 0.04404l0.167 0.05286l0.167 0.05461l0.334 0.11805l0.167 0.05814l0.50099 0.17618l0.167 0.05814l0.167 0.0599l0.167 0.05814l0.334 0.11805l0.334 0.11628l0.167 0.0599l0.334 0.11628l0.167 0.0599l0.334 0.12686l0.167 0.07399l0.334 0.14095l0.334 0.12686l0.167 0.0599l0.167 0.06342l0.167 0.06342l0.334 0.15151l0.167 0.0881l0.334 0.15151l0.334 0.13742l0.334 0.15151l0.167 0.09338l0.334 0.17618l0.167 0.07752l0.167 0.09866l0.167 0.07752l0.167 0.09866l0.167 0.07752l0.167 0.09866l0.167 0.07752l0.167 0.09866l0.334 0.17618l0.167 0.0828l0.167 0.10218l0.167 0.09866l0.334 0.21495l0.167 0.10218l0.334 0.21142l0.334 0.21495l0.334 0.21142l0.167 0.10218l0.167 0.11275l0.167 0.11275l0.334 0.23433l0.167 0.12156l0.167 0.12333l0.167 0.13214l0.167 0.12686l0.334 0.26956l0.167 0.14095l0.334 0.28542l0.334 0.27837l0.334 0.29423l0.167 0.15504l0.334 0.29423l0.167 0.13742l0.334 0.29776l0.167 0.16738l0.167 0.1709l0.334 0.35237l0.334 0.35237l0.32898 0.35237l0.15865 0.17618l0.28222 0.35237l0.13026 0.17618l0.27889 0.35237l0.14696 0.17618l0.27889 0.35237l0.26385 0.35237l0.27054 0.35237l0.12859 0.17618l0.23713 0.35237l0.23213 0.35237l0.12524 0.17618l0.23713 0.35237l0.20874 0.35237l0.09685 0.17618l0.21376 0.35237l0.21709 0.35237l0.10688 0.17618l0.19037 0.35237l0.0835 0.17618l0.19037 0.35237l0.20374 0.35237l0.09352 0.17618l0.09685 0.17618l0.172 0.35237l0.07348 0.17618l0.09352 0.17618l0.07348 0.17618l0.09352 0.17618l0.07348 0.17618l0.167 0.35237l0.08851 0.17618l0.07014 0.17618l0.07348 0.17618l0.13026 0.35237l0.14361 0.35237l0.0835 0.17618l0.14361 0.35237l0.13026 0.35237l0.13359 0.35237l0.07014 0.17618l0.13026 0.35237l0.13359 0.35237l0.07014 0.17618l0.06011 0.17618l0.06011 0.17618l0.11189 0.35237l0.05511 0.17618l0.05678 0.17618l0.05511 0.17618l0.11189 0.35237l0.11022 0.35237l0.05678 0.17618l0.11022 0.35237l0.11189 0.35237l0.10187 0.35237l0.04175 0.17618l0.08851 0.35237l0.0501 0.17618l0.10354 0.35237l0.0501 0.17618l0.08851 0.35237l0.03674 0.17618l0.04676 0.17618l0.03674 0.17618l0.04676 0.17618l0.03674 0.17618l0.0835 0.35237l0.04676 0.17618l0.03674 0.17618l0.04676 0.17618l0.03674 0.17618l0.04676 0.17618l0.03674 0.17618l0.04676 0.17618l0.0835 0.35237l0.03674 0.17618l0.04676 0.17618l0.03674 0.17618l0.04676 0.17618l0.07848 0.3418l0.02839 0.17618l0.02338 0.09866l0.01336 0.26428l0.16198 -0.13742l0.02839 -0.09338l0.07348 -0.14095l0.04175 -0.16209l0.05177 -0.1709l0.07848 -0.35237l0.0334 -0.17618l0.06346 -0.35237l0.0334 -0.17618l0.07848 -0.35237l0.04676 -0.17618l0.03674 -0.17618l0.04676 -0.17618l0.0835 -0.35237l0.03674 -0.17618l0.04676 -0.17618l0.03674 -0.17618l0.08851 -0.35237l0.0501 -0.17618l0.10354 -0.35237l0.0501 -0.17618l0.04175 -0.17618l0.08851 -0.35237l0.10187 -0.35237l0.05511 -0.17618l0.11189 -0.35237l0.05177 -0.17618l0.0501 -0.17618l0.08851 -0.35237l0.04175 -0.17618l0.10187 -0.35237l0.05511 -0.17618l0.11189 -0.35237l0.11189 -0.35237l0.12024 -0.35237l0.07014 -0.17618l0.13359 -0.35237l0.12024 -0.35237l0.05678 -0.17618l0.06011 -0.17618l0.06011 -0.17618l0.07014 -0.17618l0.13359 -0.35237l0.13026 -0.35237l0.14361 -0.35237l0.0835 -0.17618l0.14361 -0.35237l0.13026 -0.35237l0.14361 -0.35237l0.08851 -0.17618l0.07348 -0.17618l0.09352 -0.17618l0.167 -0.35237l0.07348 -0.17618l0.09352 -0.17618l0.07348 -0.17618l0.09352 -0.17618l0.07348 -0.17618l0.09352 -0.17618l0.167 -0.35237l0.07848 -0.17618l0.09685 -0.17618l0.09352 -0.17618l0.20374 -0.35237l0.2004 -0.35237l0.09685 -0.17618l0.21376 -0.35237l0.11022 -0.17618l0.22378 -0.35237l0.11022 -0.17618l0.22378 -0.35237l0.11022 -0.17618l0.11189 -0.17618l0.11522 -0.17618l0.1169 -0.17618l0.12524 -0.17618l0.12024 -0.17618l0.2555 -0.35237l0.13359 -0.17618l0.27054 -0.35237l0.13359 -0.17618l0.13026 -0.17618l0.28222 -0.35237l0.15865 -0.17618l0.32898 -0.35237l0.334 -0.35237l0.50099 -0.52855l0.50099 -0.52855l0.334 -0.35237l0.334 -0.34708l0.167 -0.16738l0.334 -0.29776l0.167 -0.13742l0.167 -0.14095l0.334 -0.28542l0.167 -0.14095l0.334 -0.26956l0.167 -0.12686l0.167 -0.13742l0.167 -0.12686l0.334 -0.26428l0.167 -0.13214l0.167 -0.12333l0.334 -0.23961l0.334 -0.22903l0.167 -0.11275l0.167 -0.10218l0.334 -0.21142l0.334 -0.21495l0.334 -0.20085l0.167 -0.0881l0.334 -0.20085l0.334 -0.21495l0.334 -0.20085l0.334 -0.18147l0.167 -0.07752l0.167 -0.09866l0.334 -0.1709l0.167 -0.07399l0.167 -0.07752l0.334 -0.13742l0.167 -0.07752l0.167 -0.07399l0.334 -0.1709l0.167 -0.09338l0.334 -0.15151l0.334 -0.13742l0.334 -0.14095l0.167 -0.07399l0.334 -0.12686l0.167 -0.0599l0.167 -0.06342l0.167 -0.06342l0.334 -0.14095l0.167 -0.07399l0.334 -0.12686l0.334 -0.11805l0.334 -0.11805l0.334 -0.11628l0.50099 -0.17618l0.334 -0.11805l0.334 -0.10747l0.167 -0.04404l0.334 -0.09338l0.167 -0.05286l0.334 -0.10924l0.167 -0.05286l0.334 -0.09338l0.167 -0.03876l0.167 -0.04934l0.167 -0.03876l0.167 -0.04934l0.167 -0.03876l0.167 -0.04934l0.167 -0.03876l0.334 -0.0881l0.167 -0.04934l0.167 -0.03876l0.167 -0.04934l0.334 -0.0881l0.334 -0.0881l0.167 -0.03876l0.167 -0.04934l0.167 -0.03876l0.167 -0.04934l0.334 -0.0828l0.32398 -0.05461l0.34402 -0.0141l-0.13026 -0.20085l-0.08851 -0.03348l-0.13359 -0.07399l-0.31563 -0.07752l-0.167 -0.03523l-0.334 -0.0828l-0.167 -0.04934l-0.334 -0.0881l-0.334 -0.0881l-0.167 -0.03876l-0.167 -0.04934l-0.167 -0.03876l-0.167 -0.04934l-0.334 -0.0881l-0.167 -0.03876l-0.167 -0.04934l-0.167 -0.03876l-0.167 -0.04934l-0.167 -0.03876l-0.334 -0.09338l-0.167 -0.05286l-0.334 -0.10924l-0.167 -0.05286l-0.167 -0.04404l-0.334 -0.09338l-0.167 -0.05286l-0.167 -0.05461l-0.334 -0.11805l-0.167 -0.05814l-0.167 -0.05461l-0.167 -0.05286l-0.334 -0.09338l-0.167 -0.04404l-0.167 -0.05286l-0.167 -0.05461l-0.334 -0.11805l-0.334 -0.12686l-0.334 -0.14095l-0.167 -0.07399l-0.334 -0.12686l-0.167 -0.0599l-0.334 -0.12686l-0.167 -0.07399l-0.334 -0.14095l-0.334 -0.13742l-0.334 -0.14095l-0.167 -0.07399l-0.334 -0.13742l-0.167 -0.07752l-0.167 -0.07399l-0.167 -0.09338l-0.334 -0.17618l-0.167 -0.07752l-0.167 -0.09866l-0.167 -0.07752l-0.167 -0.09866l-0.167 -0.07752l-0.334 -0.17618l-0.167 -0.09866l-0.167 -0.07752l-0.167 -0.09866l-0.167 -0.07752l-0.334 -0.18147l-0.167 -0.10218l-0.167 -0.09866l-0.334 -0.21495l-0.334 -0.21142l-0.167 -0.10218l-0.334 -0.22552l-0.167 -0.11628l-0.334 -0.22552l-0.334 -0.21495l-0.167 -0.10747l-0.334 -0.25018l-0.167 -0.13742l-0.334 -0.26428l-0.167 -0.12686l-0.167 -0.13742l-0.167 -0.12686l-0.167 -0.13742l-0.334 -0.26428l-0.167 -0.13214l-0.334 -0.29776l-0.334 -0.33827l-0.334 -0.33827l-0.334 -0.29776l-0.167 -0.13742l-0.334 -0.29776l-0.167 -0.16738l-0.32063 -0.34708l-0.28222 -0.35237l-0.13026 -0.17618l-0.28222 -0.35237l-0.31563 -0.35237l-0.15865 -0.17618l-0.28222 -0.35237l-0.26385 -0.35237l-0.13527 -0.17618l-0.26385 -0.35237l-0.23713 -0.35237l-0.11522 -0.17618l-0.1169 -0.17618l-0.12524 -0.17618l-0.24548 -0.35237l-0.22711 -0.35237l-0.20374 -0.35237l-0.2004 -0.35237l-0.20374 -0.35237l-0.09685 -0.17618l-0.2004 -0.35237l-0.20374 -0.35237l-0.09352 -0.17618l-0.09685 -0.17618l-0.07848 -0.17618l-0.167 -0.35237l-0.09352 -0.17618l-0.07348 -0.17618l-0.09352 -0.17618l-0.07348 -0.17618l-0.09352 -0.17618l-0.167 -0.35237l-0.07348 -0.17618l-0.09352 -0.17618l-0.07348 -0.17618l-0.09352 -0.17618l-0.16198 -0.35237l-0.07014 -0.17618l-0.07348 -0.17618l-0.13026 -0.35237l-0.07014 -0.17618l-0.13359 -0.35237l-0.13026 -0.35237l-0.07014 -0.17618l-0.13359 -0.35237l-0.13026 -0.35237l-0.13359 -0.35237l-0.07014 -0.17618l-0.06011 -0.17618l-0.06011 -0.17618l-0.05678 -0.17618l-0.11022 -0.35237l-0.05678 -0.17618l-0.11022 -0.35237l-0.11189 -0.35237l-0.05511 -0.17618l-0.11189 -0.35237l-0.05177 -0.17618l-0.0501 -0.17618l-0.08851 -0.35237l-0.04175 -0.17618l-0.0501 -0.17618l-0.10354 -0.35237l-0.0501 -0.17618l-0.08851 -0.35237l-0.04175 -0.17618l-0.0501 -0.17618l-0.10354 -0.35237l-0.0501 -0.17618l-0.08851 -0.35237l-0.03674 -0.17618l-0.04676 -0.17618l-0.03674 -0.17618l-0.04676 -0.17618l-0.0835 -0.35237l-0.03674 -0.17618l-0.04676 -0.17618l-0.03674 -0.17618l-0.0835 -0.35237l-0.04676 -0.17618l-0.07848 -0.35237l-0.06513 -0.35237l-0.03674 -0.1709l-0.03674 -0.16209l-0.07014 -0.14095l-0.02839 -0.09338l-0.16198 -0.13742l0.00002 -0.00004l0 0.00015z" id="svg_4" filter="url(#svg_4_blur)"/>
</svg>