<?xml version="1.0" standalone="yes"?>
<svg xmlns="http://www.w3.org/2000/svg" width="2200" height="2200">
<path style="fill:#ffffff; stroke:none;" d="M0 0L0 7L0 15L0 16L0 18L0 22L0 23L0 31L0 32L0 36L0 38L0 40L0 41L0 42L0 50L0 54L0 55L0 57L0 59L0 61L0 62L0 63L0 71L0 87L0 89L0 90L0 92L0 94L0 95L0 103L0 111L0 112L0 113L0 115L0 117L0 119L0 120L0 124L0 125L0 129L0 130L0 134L0 137L0 138L0 140L0 141L0 143L0 151L0 152L0 156L0 157L0 165L0 169L0 173L0 175L0 191L0 193L0 197L0 198L0 200L0 204L0 205L0 206L0 214L0 222L0 226L0 227L0 231L0 232L0 234L0 237L0 239L0 240L0 242L0 243L0 244L0 260L0 261L0 265L0 270L0 274L0 275L0 276L0 278L0 282L0 284L0 285L0 289L0 291L0 295L0 300L0 301L0 303L0 307L0 308L0 310L0 318L0 326L0 330L0 334L0 335L0 339L0 340L0 344L0 345L0 353L0 357L0 361L0 362L0 365L0 367L0 383L0 387L0 388L0 392L0 393L0 397L0 398L0 400L0 401L0 403L0 404L0 405L0 409L0 411L0 412L0 413L0 417L0 418L0 419L0 427L0 429L0 430L0 432L0 434L0 436L0 438L0 439L0 447L0 448L0 450L0 452L0 453L0 454L0 458L0 459L0 463L0 465L0 467L0 468L0 469L0 470L0 474L0 482L0 484L0 485L0 489L0 490L0 494L0 498L0 502L0 506L0 507L0 508L0 512L0 513L0 521L0 525L0 526L0 528L0 532L0 533L0 535L0 537L0 538L0 542L0 546L0 547L0 551L0 552L0 556L0 557L0 561L0 563L0 567L0 568L0 576L0 580L0 584L0 585L0 586L0 588L0 592L0 593L0 601L0 602L0 603L0 607L0 615L0 619L0 621L0 622L0 624L0 628L0 632L0 633L0 634L0 638L0 646L0 647L0 651L0 659L0 660L0 664L0 665L0 669L0 670L0 674L0 675L0 676L0 682L0 684L0 686L0 688L0 689L0 697L0 698L0 702L0 710L0 715L0 719L0 720L0 724L0 725L0 726L0 727L0 729L0 731L0 732L0 733L0 737L0 738L0 740L0 743L0 751L0 752L0 756L0 757L0 761L0 762L0 770L0 774L0 775L0 776L0 778L0 780L0 781L0 785L0 789L0 791L0 794L0 795L0 800L0 804L0 806L0 809L0 810L0 812L0 815L0 819L0 820L0 821L0 823L0 827L0 828L0 836L0 840L0 844L0 845L0 849L0 850L0 858L0 862L0 866L0 867L0 868L0 870L0 871L0 875L0 878L0 881L0 897L0 901L0 902L0 906L0 907L0 909L0 911L0 927L0 928L0 929L0 933L0 935L0 936L0 940L0 941L0 942L0 946L0 950L0 955L0 957L0 961L0 962L0 970L0 978L0 980L0 981L0 985L0 987L0 988L0 990L0 998L0 1002L0 1003L0 1007L0 1008L0 1010L0 1011L0 1015L0 1017L0 1018L0 1020L0 1021L0 1023L0 1027L0 1031L0 1032L0 1033L0 1037L0 1041L0 1042L0 1043L0 1045L0 1053L0 1057L0 1061L0 1062L0 1065L0 1069L0 1073L0 1074L0 1078L0 1080L0 1085L0 1093L0 1101L0 1103L0 1104L0 1108L0 1109L0 1113L0 1115L0 1123L0 1127L0 1128L0 1129L0 1131L0 1135L0 1136L0 1137L0 1138L0 1140L0 1141L0 1145L0 1153L0 1154L0 1155L0 1157L0 1158L0 1159L0 1160L0 1162L0 1163L0 1164L0 1165L0 1167L0 1169L0 1171L0 1173L0 1175L0 1178L0 1180L0 1182L0 1186L0 1187L0 1189L0 1191L0 1192L0 1193L0 1195L0 1197L0 1199L0 1202L0 1210L0 1212L0 1216L0 1221L0 1225L0 1230L0 1233L0 1235L0 1238L0 1242L0 1245L0 1253L0 1254L0 1258L0 1264L0 1265L0 1269L0 1273L0 1274L0 1277L0 1280L0 1282L0 1290L0 1306L0 1322L0 1326L0 1334L0 1338L0 1346L0 1349L0 1353L0 1355L0 1363L0 1368L0 1375L0 1393L0 1425L0 1428L0 1430L0 1436L0 1441L0 1447L0 1450L0 1454L0 1456L0 1458L0 1461L0 1464L0 1468L0 1473L0 1476L0 1480L0 1481L0 1486L0 1511L0 1515L0 1521L0 1523L0 1528L0 1536L0 1537L0 1545L0 1549L0 1557L0 1562L0 1569L0 1583L0 1591L0 1596L0 1598L0 1603L0 1605L0 1606L0 1615L0 1623L0 1631L0 1643L0 1648L0 1650L0 1655L0 1665L0 1669L0 1677L0 1684L0 1685L0 1815L0 2200L428 2200L557 2200L562 2200L569 2200L631 2200L639 2200L644 2200L651 2200L655 2200L671 2200L679 2200L680 2200L691 2200L695 2200L718 2200L721 2200L725 2200L729 2200L735 2200L738 2200L746 2200L747 2200L754 2200L758 2200L764 2200L766 2200L770 2200L771 2200L776 2200L782 2200L783 2200L788 2200L796 2200L806 2200L810 2200L811 2200L812 2200L816 2200L832 2200L840 2200L844 2200L850 2200L858 2200L862 2200L866 2200L867 2200L871 2200L872 2200L876 2200L877 2200L879 2200L880 2200L884 2200L888 2200L890 2200L894 2200L910 2200L926 2200L930 2200L932 2200L936 2200L937 2200L941 2200L942 2200L947 2200L951 2200L952 2200L954 2200L955 2200L959 2200L963 2200L965 2200L973 2200L981 2200L997 2200L1001 2200L1011 2200L1019 2200L1023 2200L1025 2200L1027 2200L1028 2200L1036 2200L1037 2200L1038 2200L1040 2200L1044 2200L1045 2200L1050 2200L1052 2200L1057 2200L1059 2200L1060 2200L1061 2200L1065 2200L1066 2200L1074 2200L1082 2200L1083 2200L1084 2200L1089 2200L1091 2200L1095 2200L1096 2200L1098 2200L1102 2200L1103 2200L1107 2200L1108 2200L1109 2200L1110 2200L1115 2200L1116 2200L1117 2200L1119 2200L1120 2200L1121 2200L1123 2200L1124 2200L1129 2200L1133 2200L1134 2200L1136 2200L1138 2200L1139 2200L1141 2200L1142 2200L1145 2200L1146 2200L1147 2200L1151 2200L1153 2200L1154 2200L1156 2200L1158 2200L1162 2200L1163 2200L1167 2200L1169 2200L1172 2200L1174 2200L1177 2200L1179 2200L1180 2200L1182 2200L1183 2200L1184 2200L1188 2200L1196 2200L1197 2200L1198 2200L1199 2200L1201 2200L1202 2200L1206 2200L1210 2200L1211 2200L1212 2200L1213 2200L1217 2200L1218 2200L1219 2200L1223 2200L1224 2200L1228 2200L1233 2200L1234 2200L1238 2200L1240 2200L1242 2200L1243 2200L1244 2200L1245 2200L1247 2200L1248 2200L1252 2200L1253 2200L1255 2200L1257 2200L1265 2200L1266 2200L1272 2200L1274 2200L1290 2200L1294 2200L1295 2200L1296 2200L1300 2200L1301 2200L1305 2200L1306 2200L1314 2200L1318 2200L1319 2200L1320 2200L1321 2200L1323 2200L1325 2200L1329 2200L1333 2200L1334 2200L1338 2200L1339 2200L1347 2200L1351 2200L1355 2200L1356 2200L1360 2200L1361 2200L1365 2200L1366 2200L1368 2200L1369 2200L1373 2200L1377 2200L1378 2200L1379 2200L1380 2200L1381 2200L1382 2200L1386 2200L1387 2200L1388 2200L1390 2200L1391 2200L1407 2200L1411 2200L1412 2200L1414 2200L1416 2200L1417 2200L1418 2200L1419 2200L1421 2200L1425 2200L1428 2200L1429 2200L1433 2200L1434 2200L1437 2200L1441 2200L1442 2200L1446 2200L1447 2200L1448 2200L1456 2200L1458 2200L1460 2200L1463 2200L1465 2200L1467 2200L1483 2200L1487 2200L1488 2200L1492 2200L1496 2200L1497 2200L1498 2200L1500 2200L1502 2200L1505 2200L1513 2200L1514 2200L1518 2200L1520 2200L1523 2200L1525 2200L1527 2200L1529 2200L1532 2200L1536 2200L1538 2200L1546 2200L1550 2200L1551 2200L1555 2200L1556 2200L1557 2200L1558 2200L1559 2200L1560 2200L1562 2200L1566 2200L1567 2200L1568 2200L1571 2200L1575 2200L1580 2200L1584 2200L1588 2200L1589 2200L1590 2200L1595 2200L1596 2200L1597 2200L1598 2200L1600 2200L1602 2200L1610 2200L1611 2200L1612 2200L1620 2200L1624 2200L1625 2200L1630 2200L1631 2200L1632 2200L1633 2200L1634 2200L1638 2200L1639 2200L1641 2200L1642 2200L1644 2200L1645 2200L1646 2200L1647 2200L1651 2200L1652 2200L1653 2200L1654 2200L1656 2200L1659 2200L1663 2200L1664 2200L1665 2200L1670 2200L1672 2200L1673 2200L1675 2200L1676 2200L1677 2200L1681 2200L1684 2200L1688 2200L1696 2200L1697 2200L1701 2200L1705 2200L1706 2200L1708 2200L1710 2200L1711 2200L1715 2200L1716 2200L1720 2200L1723 2200L1725 2200L1726 2200L1727 2200L1730 2200L1733 2200L1735 2200L1738 2200L1739 2200L1743 2200L1745 2200L1748 2200L1750 2200L1752 2200L1753 2200L1761 2200L1765 2200L1766 2200L1770 2200L1771 2200L1772 2200L1776 2200L1808 2200L1824 2200L1828 2200L1829 2200L1831 2200L1835 2200L1836 2200L1840 2200L1844 2200L1846 2200L1854 2200L1857 2200L1859 2200L1860 2200L1861 2200L1865 2200L1866 2200L1870 2200L1871 2200L1872 2200L1873 2200L1874 2200L1876 2200L1878 2200L1879 2200L1883 2200L1887 2200L1888 2200L1889 2200L1893 2200L1894 2200L1895 2200L1903 2200L1905 2200L1906 2200L1908 2200L1910 2200L1913 2200L1914 2200L1915 2200L1919 2200L1923 2200L1924 2200L1928 2200L1930 2200L1932 2200L1933 2200L1934 2200L1942 2200L1946 2200L1947 2200L1949 2200L1952 2200L1960 2200L1962 2200L1963 2200L1967 2200L1968 2200L1969 2200L1977 2200L1978 2200L1982 2200L1983 2200L1991 2200L1999 2200L2003 2200L2004 2200L2008 2200L2012 2200L2013 2200L2016 2200L2018 2200L2019 2200L2023 2200L2024 2200L2026 2200L2029 2200L2031 2200L2032 2200L2040 2200L2044 2200L2048 2200L2049 2200L2050 2200L2052 2200L2053 2200L2055 2200L2056 2200L2060 2200L2061 2200L2069 2200L2070 2200L2071 2200L2072 2200L2073 2200L2077 2200L2078 2200L2082 2200L2086 2200L2088 2200L2089 2200L2093 2200L2094 2200L2098 2200L2099 2200L2103 2200L2104 2200L2106 2200L2108 2200L2113 2200L2117 2200L2118 2200L2122 2200L2123 2200L2124 2200L2128 2200L2129 2200L2133 2200L2134 2200L2135 2200L2136 2200L2140 2200L2141 2200L2145 2200L2149 2200L2153 2200L2154 2200L2156 2200L2158 2200L2162 2200L2163 2200L2164 2200L2165 2200L2166 2200L2170 2200L2171 2200L2175 2200L2178 2200L2186 2200L2187 2200L2191 2200L2192 2200L2194 2200L2196 2200L2200 2200L2200 2101L2200 1991L2200 1989L2200 1896L2200 1894L2200 1840L2200 1839L2200 1810L2200 1794L2200 1793L2200 1775L2200 1770L2200 1762L2200 1744L2200 1738L2200 1733L2200 1723L2200 1709L2200 1696L2200 1692L2200 1686L2200 1682L2200 1681L2200 1672L2200 1666L2200 1658L2200 1647L2200 1636L2200 1626L2200 1622L2200 1614L2200 1607L2200 1604L2200 1600L2200 1596L2200 1591L2200 1586L2200 1573L2200 1555L2200 1532L2200 1527L2200 1525L2200 1517L2200 1514L2200 1510L2200 1508L2200 1444L2200 1442L2200 1439L2200 1433L2200 1428L2200 1402L2200 1397L2200 1392L2200 1390L2200 1382L2200 1379L2200 1374L2200 1373L2200 1369L2200 1364L2200 1363L2200 1359L2200 1351L2200 1344L2200 1343L2200 1341L2200 1337L2200 1335L2200 1327L2200 1326L2200 1318L2200 1314L2200 1309L2200 1307L2200 1303L2200 1297L2200 1296L2200 1295L2200 1294L2200 1262L2200 1259L2200 1255L2200 1252L2200 1248L2200 1216L2200 1214L2200 1198L2200 1195L2200 1187L2200 1183L2200 1178L2200 1175L2200 1171L2200 1167L2200 1166L2200 1158L2200 1157L2200 1156L2200 1154L2200 1138L2200 1137L2200 1136L2200 1132L2200 1130L2200 1122L2200 1120L2200 1119L2200 1118L2200 1108L2200 1092L2200 1091L2200 1090L2200 1058L2200 1057L2200 1056L2200 1040L2200 1036L2200 1035L2200 1027L2200 1026L2200 1025L2200 1020L2200 1019L2200 1017L2200 1015L2200 1014L2200 1013L2200 1012L2200 1007L2200 1006L2200 1005L2200 1001L2200 999L2200 996L2200 994L2200 993L2200 991L2200 986L2200 985L2200 984L2200 983L2200 981L2200 979L2200 978L2200 976L2200 975L2200 974L2200 973L2200 969L2200 968L2200 964L2200 963L2200 962L2200 961L2200 960L2200 956L2200 955L2200 951L2200 950L2200 949L2200 945L2200 944L2200 942L2200 938L2200 937L2200 936L2200 935L2200 931L2200 930L2200 929L2200 925L2200 920L2200 919L2200 918L2200 916L2200 912L2200 911L2200 910L2200 909L2200 905L2200 897L2200 896L2200 895L2200 890L2200 889L2200 888L2200 886L2200 882L2200 881L2200 877L2200 876L2200 875L2200 873L2200 871L2200 870L2200 866L2200 863L2200 861L2200 859L2200 858L2200 857L2200 853L2200 852L2200 844L2200 843L2200 841L2200 837L2200 836L2200 835L2200 834L2200 830L2200 825L2200 822L2200 818L2200 814L2200 813L2200 812L2200 808L2200 807L2200 806L2200 803L2200 799L2200 791L2200 790L2200 787L2200 785L2200 782L2200 777L2200 776L2200 772L2200 770L2200 767L2200 763L2200 762L2200 761L2200 760L2200 759L2200 758L2200 754L2200 753L2200 737L2200 736L2200 728L2200 727L2200 723L2200 721L2200 720L2200 718L2200 714L2200 713L2200 712L2200 711L2200 710L2200 707L2200 706L2200 702L2200 701L2200 697L2200 696L2200 695L2200 693L2200 691L2200 690L2200 689L2200 685L2200 684L2200 683L2200 675L2200 671L2200 667L2200 666L2200 665L2200 664L2200 660L2200 659L2200 655L2200 654L2200 653L2200 652L2200 644L2200 640L2200 636L2200 635L2200 634L2200 632L2200 631L2200 630L2200 629L2200 625L2200 624L2200 623L2200 621L2200 620L2200 617L2200 615L2200 614L2200 610L2200 605L2200 604L2200 588L2200 587L2200 579L2200 578L2200 575L2200 570L2200 569L2200 565L2200 564L2200 563L2200 547L2200 545L2200 540L2200 538L2200 536L2200 533L2200 532L2200 530L2200 528L2200 464L2200 460L2200 459L2200 451L2200 450L2200 448L2200 432L2200 424L2200 423L2200 422L2200 419L2200 417L2200 415L2200 414L2200 412L2200 408L2200 407L2200 405L2200 404L2200 396L2200 395L2200 390L2200 389L2200 387L2200 386L2200 370L2200 369L2200 368L2200 364L2200 363L2200 361L2200 360L2200 358L2200 357L2200 353L2200 352L2200 351L2200 347L2200 346L2200 338L2200 330L2200 326L2200 322L2200 321L2200 320L2200 318L2200 314L2200 310L2200 309L2200 306L2200 304L2200 303L2200 299L2200 295L2200 294L2200 290L2200 287L2200 285L2200 281L2200 280L2200 275L2200 272L2200 270L2200 269L2200 265L2200 264L2200 260L2200 259L2200 255L2200 250L2200 248L2200 245L2200 244L2200 243L2200 242L2200 240L2200 236L2200 228L2200 224L2200 222L2200 218L2200 217L2200 209L2200 205L2200 204L2200 202L2200 200L2200 199L2200 195L2200 191L2200 188L2200 186L2200 185L2200 183L2200 180L2200 172L2200 171L2200 170L2200 168L2200 167L2200 165L2200 162L2200 159L2200 157L2200 154L2200 152L2200 151L2200 150L2200 142L2200 141L2200 140L2200 139L2200 137L2200 121L2200 120L2200 119L2200 118L2200 117L2200 113L2200 112L2200 111L2200 110L2200 109L2200 107L2200 106L2200 104L2200 102L2200 101L2200 97L2200 96L2200 95L2200 93L2200 92L2200 91L2200 87L2200 86L2200 85L2200 84L2200 83L2200 80L2200 76L2200 74L2200 73L2200 72L2200 70L2200 69L2200 65L2200 64L2200 48L2200 46L2200 45L2200 43L2200 38L2200 36L2200 34L2200 33L2200 32L2200 28L2200 27L2200 23L2200 22L2200 21L2200 17L2200 13L2200 12L2200 8L2200 6L2200 5L2200 4L2200 0L2196 0L2195 0L2194 0L2193 0L2191 0L2190 0L2186 0L2184 0L2182 0L2179 0L2177 0L2175 0L2167 0L2166 0L2163 0L2162 0L2146 0L2144 0L2140 0L2139 0L2137 0L2133 0L2132 0L2131 0L2128 0L2126 0L2124 0L2123 0L2122 0L2120 0L2118 0L2117 0L2116 0L2114 0L2113 0L2112 0L2111 0L2110 0L2106 0L2104 0L2103 0L2099 0L2097 0L2093 0L2092 0L2084 0L2083 0L2082 0L2081 0L2080 0L2076 0L2075 0L2071 0L2070 0L2066 0L2065 0L2049 0L2048 0L2040 0L2039 0L2037 0L2034 0L2033 0L2032 0L2000 0L1996 0L1995 0L1993 0L1985 0L1981 0L1980 0L1978 0L1977 0L1975 0L1971 0L1970 0L1969 0L1961 0L1959 0L1955 0L1954 0L1952 0L1951 0L1949 0L1948 0L1932 0L1924 0L1908 0L1906 0L1905 0L1903 0L1901 0L1893 0L1889 0L1887 0L1883 0L1879 0L1877 0L1876 0L1875 0L1871 0L1869 0L1867 0L1863 0L1862 0L1860 0L1859 0L1857 0L1853 0L1851 0L1850 0L1848 0L1844 0L1843 0L1841 0L1839 0L1837 0L1836 0L1834 0L1833 0L1831 0L1827 0L1825 0L1821 0L1819 0L1803 0L1802 0L1798 0L1797 0L1796 0L1795 0L1791 0L1790 0L1786 0L1784 0L1776 0L1774 0L1771 0L1763 0L1762 0L1760 0L1758 0L1756 0L1748 0L1744 0L1740 0L1739 0L1738 0L1736 0L1734 0L1733 0L1732 0L1731 0L1729 0L1727 0L1726 0L1724 0L1722 0L1721 0L1719 0L1718 0L1716 0L1713 0L1712 0L1711 0L1708 0L1704 0L1696 0L1694 0L1693 0L1691 0L1683 0L1682 0L1678 0L1670 0L1669 0L1665 0L1663 0L1659 0L1658 0L1654 0L1653 0L1649 0L1647 0L1645 0L1644 0L1640 0L1632 0L1630 0L1627 0L1619 0L1615 0L1614 0L1613 0L1611 0L1607 0L1603 0L1602 0L1594 0L1593 0L1592 0L1588 0L1580 0L1576 0L1572 0L1568 0L1567 0L1566 0L1562 0L1554 0L1552 0L1536 0L1528 0L1527 0L1523 0L1519 0L1518 0L1516 0L1515 0L1513 0L1512 0L1510 0L1502 0L1501 0L1497 0L1495 0L1494 0L1492 0L1491 0L1489 0L1487 0L1486 0L1485 0L1483 0L1481 0L1480 0L1476 0L1474 0L1473 0L1470 0L1468 0L1467 0L1466 0L1462 0L1454 0L1446 0L1442 0L1438 0L1437 0L1433 0L1432 0L1428 0L1427 0L1424 0L1420 0L1419 0L1417 0L1385 0L1381 0L1373 0L1372 0L1371 0L1369 0L1367 0L1366 0L1364 0L1361 0L1360 0L1356 0L1355 0L1347 0L1345 0L1341 0L1339 0L1338 0L1336 0L1335 0L1331 0L1328 0L1326 0L1325 0L1324 0L1323 0L1319 0L1318 0L1310 0L1302 0L1298 0L1297 0L1295 0L1292 0L1260 0L1258 0L1257 0L1255 0L1250 0L1249 0L1248 0L1247 0L1246 0L1245 0L1240 0L1236 0L1235 0L1234 0L1232 0L1231 0L1229 0L1221 0L1217 0L1213 0L1197 0L1195 0L1191 0L1187 0L1186 0L1182 0L1181 0L1177 0L1176 0L1174 0L1173 0L1171 0L1170 0L1168 0L1167 0L1166 0L1134 0L1133 0L1132 0L1130 0L1129 0L1121 0L1120 0L1119 0L1117 0L1116 0L1112 0L1111 0L1107 0L1099 0L1097 0L1093 0L1090 0L1087 0L1082 0L1078 0L1072 0L1071 0L1067 0L1066 0L1062 0L1061 0L1060 0L1059 0L1058 0L1054 0L1053 0L1049 0L1047 0L1045 0L1044 0L1043 0L1027 0L1026 0L1024 0L960 0L955 0L954 0L950 0L945 0L942 0L938 0L934 0L926 0L918 0L914 0L909 0L908 0L903 0L902 0L901 0L897 0L895 0L892 0L889 0L883 0L882 0L880 0L878 0L870 0L868 0L867 0L865 0L860 0L858 0L856 0L852 0L850 0L846 0L841 0L833 0L825 0L820 0L817 0L813 0L809 0L805 0L803 0L787 0L785 0L769 0L764 0L756 0L740 0L735 0L727 0L726 0L722 0L717 0L711 0L708 0L702 0L697 0L689 0L684 0L678 0L673 0L667 0L658 0L657 0L653 0L645 0L638 0L635 0L631 0L622 0L620 0L604 0L602 0L597 0L584 0L582 0L579 0L576 0L559 0L555 0L535 0L533 0L523 0L506 0L505 0L464 0L456 0L430 0L403 0L385 0L384 0L366 0L360 0L346 0L340 0L326 0L310 0L306 0L305 0L300 0L290 0L285 0L279 0L277 0L276 0L263 0L258 0L247 0L238 0L225 0L214 0L203 0L193 0L189 0L181 0L174 0L171 0L167 0L158 0L0 0z"/>
<path style="fill:#0384fb; stroke:none;" d="M1457 1459L1457 1457L1455.5 1455.75L1454.94 1455.33L1453 1453.81L1451 1452.19L1450 1451.39L1448 1449.86L1447 1449.14L1446 1448.36L1445 1447.64L1444 1446.86L1443 1446.14L1442 1445.36L1441 1444.64L1440 1443.86L1439 1443.14L1438 1442.36L1436 1440.86L1435 1440.14L1433 1438.64L1432 1437.86L1431 1437.14L1429 1435.61L1427 1434L1426 1433.22L1425.06 1432.5L1424.06 1431.92L1423.5 1431.53L1422 1431L1420.75 1432.5L1419.58 1434.06L1418.86 1435L1418.14 1436L1417.36 1437L1416.61 1438L1415.81 1439L1414.19 1441L1413.39 1442L1412.61 1443L1411.81 1444L1410.19 1446L1409.39 1447L1408.61 1448L1407.81 1449L1406.19 1451L1405.39 1452L1404.61 1453L1403.81 1454L1402.19 1456L1401.39 1457L1400.61 1458L1399.81 1459L1398.19 1461L1396.61 1463L1394.94 1465L1394.06 1466L1392.39 1468L1391.61 1469L1389.94 1471L1389.06 1472L1387.39 1474L1385.78 1476L1384.92 1477L1383.08 1479L1382.22 1480L1380.61 1482L1378.92 1484L1377.97 1485L1376.08 1487L1374.39 1489L1373.61 1490L1371.92 1492L1370.97 1493L1369.03 1495L1368.08 1496L1366.39 1498L1365.61 1499L1363.92 1501L1362.97 1502L1362 1503L1360 1505L1358.03 1507L1357.08 1508L1355.39 1510L1354.61 1511L1352.92 1513L1351.97 1514L1350 1516L1349 1517L1346 1520L1345 1521L1343.03 1523L1341.22 1524.97L1339.69 1526.78L1339 1527.61L1337.58 1529.22L1336.78 1530.08L1335.92 1531.03L1334.97 1532L1334 1533L1333 1534L1331 1536L1327 1540L1325 1542L1324 1543L1321 1546L1319 1548L1317 1550L1314 1553L1313 1554L1311 1555.92L1310 1556.78L1308 1558.39L1306 1560.08L1305 1561.03L1303 1563L1302 1564L1301 1565L1299 1567L1297 1569L1295 1570.97L1294 1571.92L1292 1573.61L1291 1574.39L1289 1576.08L1288 1577.03L1286 1579L1284 1580.97L1283 1581.92L1281 1583.61L1280 1584.39L1278 1586.08L1277 1587.03L1275 1588.97L1274 1589.92L1272 1591.61L1271 1592.39L1269 1594.08L1267 1595.97L1266 1596.92L1264 1598.61L1262 1600.22L1261 1601.08L1259 1602.92L1258 1603.78L1256 1605.39L1254 1607.06L1253 1607.94L1251 1609.61L1250 1610.39L1248 1612.06L1247 1612.94L1245 1614.61L1243 1616.19L1241 1617.81L1240 1618.61L1239 1619.39L1238 1620.19L1236 1621.81L1235 1622.61L1234 1623.39L1233 1624.19L1231 1625.81L1230 1626.61L1228 1628.19L1226 1629.81L1225 1630.61L1223 1632.14L1222 1632.86L1221 1633.64L1220 1634.39L1219 1635.19L1217 1636.81L1216 1637.61L1214 1639.14L1213 1639.86L1212 1640.64L1211 1641.36L1210 1642.14L1209 1642.86L1207 1644.36L1206 1645.14L1205 1645.86L1204 1646.64L1202 1648.14L1201 1648.86L1200 1649.64L1199 1650.36L1198 1651.14L1196 1652.61L1195 1653.31L1193 1654.69L1192 1655.39L1190 1656.86L1189 1657.61L1188 1658.31L1186 1659.69L1185 1660.39L1183 1661.86L1182 1662.61L1181 1663.31L1179 1664.69L1178 1665.39L1177 1666.14L1175 1667.61L1174 1668.31L1173 1669L1172 1669.67L1170 1671L1168 1672.33L1167 1673L1163 1675.67L1161 1677L1153 1682.33L1152 1683L1150 1684.33L1149 1685L1147 1686.33L1145 1687.61L1143 1688.81L1142 1689.39L1140 1690.67L1139 1691.33L1137 1692.61L1136 1693.19L1134 1694.39L1132 1695.67L1131 1696.33L1130 1696.97L1129 1697.61L1128 1698.19L1126 1699.39L1124 1700.61L1122 1701.81L1121 1702.39L1119 1703.61L1117 1704.81L1116 1705.39L1114 1706.61L1113 1707.19L1111 1708.39L1109 1709.61L1107 1710.75L1106 1711.25L1104 1712.39L1102 1713.61L1100 1714.75L1099 1715.25L1097 1716.39L1095 1717.61L1093 1718.75L1092 1719.22L1090 1720.25L1089 1720.83L1088 1721.39L1086 1722.61L1085 1723.17L1084 1723.75L1083 1724.22L1081 1725.22L1080 1725.78L1079 1726.22L1077 1727.25L1076 1727.83L1075 1728.39L1073 1729.61L1072 1730.17L1071 1730.75L1070 1731.22L1068 1732.22L1067 1732.78L1066 1733.22L1065 1733.78L1064 1734.22L1063 1734.78L1062 1735.22L1061 1735.78L1059 1736.78L1058 1737.22L1057 1737.78L1056 1738.22L1055 1738.78L1054 1739.22L1052 1740.22L1051 1740.78L1050 1741.22L1049 1741.78L1048 1742.22L1047 1742.78L1046 1743.22L1045 1743.78L1044 1744.22L1042 1745.22L1041 1745.75L1040 1746.17L1039 1746.61L1037 1747.39L1036 1747.83L1035 1748.25L1034 1748.78L1032 1749.78L1031 1750.22L1030 1750.78L1029 1751.22L1028 1751.78L1026 1752.75L1024 1753.61L1022 1754.39L1020 1755.25L1019 1755.75L1017 1756.61L1015 1757.39L1013 1758.25L1011 1759.22L1010 1759.75L1008 1760.61L1006 1761.39L1005 1761.81L1003 1762.61L1001 1763.39L999 1764.25L998 1764.75L996 1765.61L994 1766.39L992 1767.19L991 1767.61L989 1768.39L988 1768.81L986 1769.61L984 1770.39L982 1771.19L981 1771.61L979 1772.33L978 1772.67L977 1773.03L976 1773.39L974 1774.19L973 1774.61L971 1775.33L970 1775.67L968 1776.39L967 1776.81L965 1777.61L963 1778.33L961 1779L959 1779.67L957 1780.33L956 1780.67L954 1781.39L953 1781.81L951 1782.61L949 1783.33L947 1784L945 1784.67L944 1785L942 1785.67L939 1786.67L938 1787L937 1787.31L936 1787.61L935 1787.86L933 1788.39L931 1789L930 1789.33L927 1790.33L926 1790.67L924 1791.31L923 1791.61L922 1791.86L920 1792.39L918 1793L917 1793.33L915 1794L914 1794.31L913 1794.61L912 1794.86L910 1795.36L909 1795.64L908 1795.86L906 1796.39L905 1796.69L903 1797.31L902 1797.61L900 1798.14L899 1798.36L898 1798.64L897 1798.86L895 1799.36L894 1799.64L892 1800.14L891 1800.36L890 1800.64L889 1800.86L888 1801.14L886 1801.64L885 1801.86L884 1802.14L883 1802.36L882 1802.64L881 1802.86L879 1803.36L878 1803.64L877 1803.86L876 1804.14L874 1804.61L872 1805L870 1805.39L868 1805.81L866 1806.19L865 1806.39L863 1806.86L862 1807.14L861 1807.36L860 1807.61L859 1807.81L857 1808.19L856 1808.39L855 1808.61L854 1808.81L852 1809.19L851 1809.39L850 1809.61L848 1809.94L847 1810.06L845 1810.39L844 1810.61L843 1810.81L841 1811.19L840 1811.39L839 1811.61L837 1811.94L836 1812.06L834 1812.39L833 1812.61L831 1812.92L829 1813.08L827 1813.39L825 1813.78L824 1813.92L822 1814.08L820 1814.39L818 1814.78L817 1814.92L815 1815.08L814 1815.22L812 1815.61L810 1815.92L809 1815.97L807 1816.08L805 1816.39L804 1816.61L802 1816.92L801 1816.97L799 1817L798 1817.03L797 1817.08L795 1817.39L794 1817.61L792 1817.92L791 1817.97L790 1818L788 1818L786 1818.03L785 1818.08L783 1818.39L782 1818.61L780 1818.92L779 1818.97L777 1819L776 1819L773 1819L771 1819.03L770 1819.08L768 1819.39L767 1819.61L765 1819.92L764 1819.97L762 1820L761 1820L756 1820L754 1820L752 1820L749 1820L741 1820L727 1820L726 1820L722 1820L721 1820L719 1819.97L718 1819.92L716 1819.61L715 1819.39L713 1819.08L712 1819.03L710 1819L709 1819L707 1819L705 1818.97L704 1818.92L702 1818.61L701 1818.39L699 1818.08L698 1818.03L696 1818L694 1817.97L693 1817.92L691 1817.61L690 1817.39L688 1817.08L687 1817.03L685 1816.97L684 1816.92L682 1816.61L680 1816.22L679 1816.08L677 1815.92L676 1815.78L674 1815.39L672 1815.06L671 1814.94L669 1814.61L667 1814.22L666 1814.08L664 1813.92L663 1813.78L662 1813.61L660 1813.19L658 1812.81L657 1812.61L656 1812.39L655 1812.19L653 1811.81L652 1811.61L651 1811.39L650 1811.19L648 1810.81L647 1810.61L645 1810.19L643 1809.81L642 1809.61L640 1809.14L639 1808.86L638 1808.64L637 1808.36L636 1808.14L635 1807.86L634 1807.64L632 1807.14L631 1806.86L630 1806.64L628 1806.14L627 1805.86L626 1805.64L625 1805.36L624 1805.14L622 1804.61L621 1804.31L620 1804L618 1803.33L617 1803L616 1802.69L615 1802.39L613 1801.86L612 1801.61L610 1801L609 1800.67L607 1800L605 1799.33L604 1799L601 1798L598 1797L597 1796.67L595 1795.97L594 1795.61L593 1795.19L591 1794.39L589 1793.61L587 1792.81L586 1792.39L584 1791.61L583 1791.19L581 1790.39L579 1789.61L577 1788.75L576 1788.25L574 1787.39L572 1786.61L570 1785.75L568 1784.78L567 1784.22L566 1783.78L564 1782.78L563 1782.22L562 1781.78L561 1781.22L560 1780.78L559 1780.22L558 1779.78L556 1778.78L555 1778.22L554 1777.78L553 1777.22L552 1776.78L551 1776.22L550 1775.78L549 1775.22L548 1774.78L546 1773.75L545 1773.17L544 1772.61L542 1771.39L540 1770.25L539 1769.75L537 1768.61L536 1767.97L535 1767.33L534 1766.67L532 1765.39L530 1764.19L529 1763.61L527 1762.33L526 1761.67L523 1759.67L520 1757.67L519 1757L517 1755.61L516 1754.86L514 1753.39L513 1752.69L511 1751.31L510 1750.61L509 1749.86L508 1749.14L506 1747.61L505 1746.81L503 1745.19L502 1744.39L501 1743.61L500 1742.81L498 1741.19L497 1740.39L495 1738.78L494 1737.92L492 1736.08L491 1735.22L489 1733.61L488 1732.78L487 1731.92L485 1730L484 1729L482 1727L475 1720L468 1713L466 1711L464.028 1709L463.083 1708L461.389 1706L459.778 1704L458.917 1703L457.083 1701L456.222 1700L454.611 1698L452.944 1696L452.056 1695L450.389 1693L449.639 1692L448.139 1690L447.361 1689L446.639 1688L445.139 1686L444.361 1685L443.639 1684L442.861 1683L441.389 1681L440.694 1680L440 1679L439.333 1678L438 1676L434 1670L432 1667L431.333 1666L430.028 1664L429.389 1663L428.806 1662L427.611 1660L426.389 1658L425.806 1657L424.611 1655L423.389 1653L422.833 1652L422.25 1651L421.778 1650L420.75 1648L420.167 1647L419.611 1646L418.389 1644L417.833 1643L417.25 1642L416.778 1641L415.778 1639L415.222 1638L414.778 1637L414.222 1636L413.778 1635L413.222 1634L412.778 1633L411.778 1631L411.25 1630L410.833 1629L410.389 1628L409.611 1626L409.167 1625L408.75 1624L407.778 1622L407.25 1621L406.389 1619L405.611 1617L404.75 1615L404.25 1614L403.389 1612L402.611 1610L401.806 1608L401.389 1607L400.667 1605L400.333 1604L399.972 1603L399.611 1602L399.194 1601L398.389 1599L397.667 1597L397 1595L396.667 1594L396 1592L395.667 1591L394.667 1588L394 1586L393.389 1584L393.139 1583L392.611 1581L392.306 1580L392 1579L391.667 1578L391 1576L390.694 1575L390.389 1574L389.861 1572L389.639 1571L389.361 1570L389.139 1569L388.861 1568L388.639 1567L388.139 1565L387.861 1564L387.639 1563L387.361 1562L387.139 1561L386.861 1560L386.639 1559L386.139 1557L385.861 1556L385.639 1555L385.361 1554L385.139 1553L384.861 1552L384.389 1550L384.194 1549L383.806 1547L383.389 1545L383.194 1544L382.806 1542L382.611 1541L382.389 1540L382.194 1539L381.806 1537L381.611 1536L381.389 1535L381.056 1533L380.778 1531L380.389 1529L380.083 1527L379.917 1525L379.778 1524L379.389 1522L379.083 1520L378.917 1518L378.778 1517L378.389 1515L378.222 1514L378.083 1513L377.917 1511L377.778 1510L377.389 1508L377.083 1506L377.028 1505L377 1503L376.972 1502L376.917 1501L376.611 1499L376.389 1498L376.083 1496L376.028 1495L376 1493L376 1491L376 1490L375.972 1489L375.917 1488L375.611 1486L375.389 1485L375.083 1483L375.028 1482L375 1480L375 1477L375 1469L375 1466L375 1465L374.917 1463L374.611 1461L374.389 1460L374.083 1458L374 1456L374 1455L374 1452L374 1450L374.028 1449L374.083 1448L374.389 1446L374.611 1445L374.917 1443L374.972 1442L375 1440L375 1437L375 1433L375 1428L375 1426L375.028 1424L375.083 1423L375.389 1421L375.611 1420L375.917 1418L375.972 1417L376 1415L376 1414L376 1412L376.028 1410L376.083 1409L376.389 1407L376.611 1406L376.917 1404L376.972 1403L377 1401L377.028 1399L377.083 1398L377.389 1396L377.611 1395L377.917 1393L377.972 1392L378.028 1390L378.083 1389L378.389 1387L378.778 1385L378.917 1384L379.083 1382L379.222 1381L379.611 1379L379.917 1377L380.028 1375L380.083 1374L380.389 1372L380.778 1370L380.917 1369L381.083 1367L381.222 1366L381.611 1364L381.944 1362L382.056 1361L382.389 1359L382.611 1358L382.806 1357L383.194 1355L383.389 1354L383.611 1353L383.944 1351L384.056 1350L384.389 1348L384.806 1346L385.194 1344L385.389 1343L385.611 1342L385.806 1341L386.194 1339L386.389 1338L386.611 1337L386.806 1336L387.194 1334L387.389 1333L387.806 1331L388.194 1329L388.389 1328L388.861 1326L389.139 1325L389.361 1324L389.611 1323L389.806 1322L390.194 1320L390.389 1319L390.861 1317L391.139 1316L391.361 1315L391.639 1314L391.861 1313L392.361 1311L392.639 1310L392.861 1309L393.139 1308L393.361 1307L393.639 1306L393.861 1305L394.139 1304L394.639 1302L394.861 1301L395.139 1300L395.361 1299L395.639 1298L396.139 1296L396.361 1295L396.639 1294L396.861 1293L397.389 1291L397.694 1290L398.306 1288L398.611 1287L399.139 1285L399.389 1284L399.694 1283L400.306 1281L400.611 1280L401.139 1278L401.389 1277L401.694 1276L402.306 1274L402.611 1273L402.861 1272L403.389 1270L404 1268L404.667 1266L406 1262L408.667 1254L409.333 1252L410 1250L411 1247L411.333 1246L411.667 1245L412.333 1243L413.667 1239L415 1235L415.667 1233L416.389 1231L417.194 1229L417.611 1228L417.972 1227L418.333 1226L418.667 1225L419.389 1223L420.194 1221L420.611 1220L421.333 1218L421.667 1217L422.389 1215L422.806 1214L423.611 1212L424.389 1210L425.194 1208L425.611 1207L426.389 1205L427.194 1203L427.611 1202L428.389 1200L428.806 1199L429.611 1197L430.389 1195L431.25 1193L431.75 1192L432.611 1190L433.389 1188L434.25 1186L434.75 1185L435.611 1183L436.389 1181L437.25 1179L437.778 1178L438.75 1176L439.167 1175L439.611 1174L440.389 1172L440.833 1171L441.25 1170L442.222 1168L442.778 1167L443.222 1166L443.75 1165L444.167 1164L444.611 1163L445.389 1161L445.833 1160L446.25 1159L446.778 1158L447.778 1156L448.222 1155L448.778 1154L449.222 1153L449.778 1152L450.778 1150L451.222 1149L451.778 1148L452.222 1147L452.778 1146L453.222 1145L454.222 1143L454.778 1142L455.222 1141L455.778 1140L456.222 1139L456.778 1138L457.222 1137L458.222 1135L458.778 1134L459.222 1133L459.778 1132L460.222 1131L460.778 1130L461.222 1129L461.778 1128L462.222 1127L462.778 1126L463.778 1124L464.222 1123L464.778 1122L465.778 1120L466.25 1119L466.833 1118L467.389 1117L468.611 1115L469.167 1114L469.75 1113L470.778 1111L471.222 1110L471.778 1109L472.25 1108L472.833 1107L473.389 1106L474.611 1104L475.167 1103L475.75 1102L476.778 1100L477.25 1099L478.389 1097L479.611 1095L480.75 1093L481.25 1092L482.389 1090L483.611 1088L484.194 1087L485.389 1085L486.611 1083L487.75 1081L488.25 1080L489.389 1078L490.611 1076L491.806 1074L492.389 1073L493.611 1071L494.806 1069L495.389 1068L496.028 1067L496.667 1066L497.333 1065L498.611 1063L499.194 1062L500.389 1060L501.667 1058L502.333 1057L503.667 1055L504.333 1054L505.611 1052L506.806 1050L507.389 1049L508.667 1047L509.333 1046L510.667 1044L511.333 1043L512 1042L513.333 1040L516 1036L517.333 1034L520.667 1029L521.333 1028L523.333 1025L524 1024L525.333 1022L526 1021L527.389 1019L528.861 1017L529.611 1016L530.306 1015L531 1014L531.667 1013L533 1011L533.694 1010L534.389 1009L535.139 1008L536.639 1006L537.361 1005L538.139 1004L539.611 1002L540.306 1001L541.694 999L542.389 998L543.861 996L544.639 995L545.361 994L546.139 993L546.861 992L548.361 990L549.139 989L549.861 988L550.639 987L551.361 986L552.139 985L553.639 983L554.361 982L555.139 981L555.861 980L557.389 978L558.194 977L559.806 975L560.611 974L562.139 972L562.861 971L563.639 970L564.389 969L565.194 968L566.806 966L568.389 964L569.194 963L570.806 961L571.611 960L572.389 959L573.194 958L574.806 956L575.611 955L576.389 954L577.194 953L578.806 951L580.389 949L582.083 947L583.917 945L584.778 944L586.389 942L588.056 940L588.944 939L590.611 937L592.222 935L593.083 934L594.917 932L595.778 931L597.389 929L599.083 927L600.028 926L601.917 924L603.611 922L604.389 921L606.083 919L607.028 918L608.972 916L609.917 915L611.611 913L612.389 912L614.083 910L615.028 909L617 907L618.972 905L619.917 904L621.611 902L622.389 901L624.083 899L625.028 898L626 897L628 895L629 894L631 892L633 890L634 889L635 888L636.972 886L637.917 885L639.611 883L640.389 882L642.083 880L643.028 879L645 877L647 875L650 872L652 870L653 869L656 866L658 864L660 862L661 861.028L662 860.083L664 858.389L665 857.611L667 855.917L668 854.972L670 853L671 852L672 851L676 847L677 846L679 844L680 843.028L681 842.083L683 840.389L684 839.611L686 837.917L687 836.972L689 835L691 833.028L692 832.083L694 830.389L695 829.611L697 827.917L698 826.972L700 825.028L701 824.083L703 822.389L704 821.611L706 819.917L708 818.028L709 817.083L711 815.389L713 813.778L714 812.917L716 811.083L717 810.222L719 808.611L721 806.944L722 806.056L724 804.389L726 802.778L727 801.917L729 800.083L731 798.389L733 796.806L735 795.194L736 794.389L737 793.611L738 792.806L740 791.194L741 790.389L742 789.611L743 788.806L745 787.194L746 786.389L748 784.806L750 783.194L751 782.389L753 780.861L754 780.139L755 779.361L756 778.611L757 777.806L759 776.194L760 775.389L762 773.861L763 773.139L764 772.361L765 771.639L766 770.861L767 770.139L768 769.361L770 767.861L771 767.139L772 766.361L774 764.861L775 764.139L776 763.361L777 762.639L778 761.861L780 760.389L781 759.694L783 758.306L784 757.611L786 756.139L787 755.361L788 754.639L790 753.139L791 752.389L792 751.694L793 751L795 749.667L796 749L797 748.306L798 747.611L800 746.139L801 745.389L803 744L804 743.333L805 742.667L807 741.333L808 740.667L810 739.333L811 738.667L812 738L813 737.333L815 736L816 735.333L817 734.667L819 733.333L820 732.667L821 732L822 731.333L823 730.667L825 729.333L826 728.667L828 727.333L829 726.667L831 725.389L833 724.194L834 723.611L835 722.972L836 722.333L837 721.667L839 720.333L840 719.667L841 719.028L842 718.389L843 717.806L845 716.611L847 715.389L849 714.194L850 713.611L851 712.972L852 712.333L853 711.667L855 710.389L856 709.806L858 708.611L860 707.389L862 706.25L863 705.75L865 704.611L867 703.389L868 702.806L870 701.611L872 700.389L874 699.25L875 698.75L877 697.611L879 696.389L881 695.25L882 694.778L884 693.75L885 693.167L886 692.611L888 691.389L889 690.833L890 690.25L892 689.222L893 688.778L894 688.222L895 687.75L896 687.167L897 686.611L899 685.389L900 684.833L901 684.25L902 683.778L904 682.778L905 682.222L906 681.778L907 681.222L908 680.778L910 679.778L911 679.222L912 678.778L913 678.222L914 677.778L915 677.222L916 676.778L917 676.222L918 675.778L919 675.222L920 674.778L921 674.222L923 673.222L924 672.778L925 672.222L926 671.778L927 671.222L928 670.778L930 669.778L931 669.222L932 668.778L933 668.222L934 667.778L935 667.222L936 666.778L937 666.222L938 665.778L940 664.778L941 664.25L942 663.833L943 663.389L945 662.611L946 662.167L947 661.75L949 660.778L950 660.222L951 659.778L952 659.25L953 658.833L954 658.389L956 657.611L957 657.167L958 656.75L960 655.778L961 655.25L963 654.389L965 653.611L967 652.75L968 652.25L970 651.389L972 650.611L974 649.75L975 649.25L977 648.389L979 647.611L981 646.806L982 646.389L984 645.611L985 645.194L987 644.389L989 643.611L990 643.194L992 642.389L994 641.611L996 640.806L997 640.389L998 640.028L999 639.667L1000 639.333L1002 638.611L1004 637.806L1005 637.389L1007 636.667L1008 636.333L1010 635.611L1011 635.194L1013 634.389L1015 633.667L1017 633L1019 632.333L1021 631.667L1022 631.333L1024 630.667L1025 630.333L1026 630L1027 629.667L1028 629.333L1030 628.667L1031 628.333L1032 628L1033 627.667L1034 627.333L1036 626.667L1037 626.333L1038 626L1039 625.667L1041 625L1042 624.667L1044 624L1045 623.667L1047 623L1048 622.667L1050 622L1052 621.389L1054 620.861L1055 620.611L1056 620.306L1058 619.694L1059 619.389L1060 619.139L1062 618.611L1063 618.306L1065 617.694L1066 617.389L1067 617.139L1069 616.611L1070 616.306L1072 615.694L1073 615.389L1075 614.861L1076 614.639L1077 614.361L1078 614.139L1079 613.861L1080 613.639L1082 613.139L1083 612.861L1084 612.639L1085 612.361L1086 612.139L1087 611.861L1088 611.639L1089 611.361L1090 611.139L1092 610.639L1093 610.361L1094 610.139L1096 609.639L1097 609.361L1098 609.139L1099 608.861L1101 608.389L1102 608.194L1104 607.806L1105 607.611L1107 607.139L1108 606.861L1109 606.639L1110 606.389L1111 606.194L1113 605.806L1114 605.611L1115 605.389L1116 605.194L1118 604.806L1119 604.611L1120 604.389L1121 604.194L1123 603.806L1124 603.611L1125 603.389L1126 603.194L1128 602.806L1129 602.611L1130 602.389L1131 602.194L1133 601.806L1135 601.389L1137 601.056L1139 600.778L1141 600.389L1143 600.083L1145 599.917L1146 599.778L1148 599.389L1150 599.056L1151 598.944L1153 598.611L1155 598.222L1156 598.083L1158 597.917L1159 597.778L1161 597.389L1163 597.083L1164 597.028L1166 596.972L1167 596.917L1169 596.611L1170 596.389L1172 596.083L1173 596.028L1175 595.972L1176 595.917L1178 595.611L1179 595.389L1181 595.083L1182 595.028L1183 595L1185 594.972L1186 594.917L1188 594.611L1189 594.389L1191 594.083L1192 594.028L1194 594L1196 594L1197 593.972L1198 593.917L1200 593.611L1201 593.389L1203 593.083L1204 593.028L1206 593L1210 593L1214 593L1216 593L1219 593L1221 593L1222 593L1224 593L1226 592.917L1228 592.611L1229 592.389L1231 592.083L1233 592L1234 592L1236 592L1238 592.028L1239 592.083L1241 592.389L1242 592.611L1244 592.917L1245 592.972L1247 593L1249 593L1250 593L1251 593L1254 593L1256 593L1258 593L1259 593L1260 593L1261 593L1263 593L1265 593.028L1266 593.083L1268 593.389L1269 593.611L1271 593.917L1272 593.972L1274 594L1276 594L1277 594.028L1278 594.083L1280 594.389L1281 594.611L1283 594.917L1284 594.972L1286 595.028L1287 595.083L1289 595.389L1290 595.611L1292 595.917L1294 596.028L1295 596.083L1297 596.389L1298 596.611L1300 596.917L1301 596.972L1303 597.083L1305 597.389L1307 597.778L1308 597.944L1309 598.056L1311 598.389L1312 598.611L1313 598.806L1315 599.194L1316 599.389L1317 599.611L1319 599.944L1320 600.056L1322 600.389L1323 600.611L1324 600.806L1326 601.194L1327 601.389L1328 601.611L1329 601.806L1331 602.194L1332 602.389L1334 602.861L1335 603.139L1336 603.361L1337 603.639L1339 604.139L1340 604.361L1342 604.861L1343 605.139L1344 605.361L1345 605.639L1346 605.861L1347 606.139L1349 606.639L1350 606.861L1351 607.139L1352 607.361L1353 607.639L1354 607.861L1356 608.389L1357 608.694L1358 609L1360 609.667L1361 610L1362 610.306L1363 610.611L1364 610.861L1366 611.389L1368 612L1369 612.333L1370 612.667L1372 613.333L1373 613.667L1375 614.333L1376 614.667L1378 615.389L1379 615.806L1381 616.611L1383 617.333L1384 617.667L1385 618.028L1386 618.389L1387 618.806L1389 619.611L1391 620.389L1393 621.194L1394 621.611L1396 622.389L1397 622.806L1399 623.611L1401 624.389L1402 624.833L1403 625.25L1404 625.778L1405 626.222L1406 626.778L1408 627.75L1409 628.167L1410 628.611L1412 629.389L1413 629.833L1414 630.25L1415 630.778L1417 631.778L1418 632.222L1419 632.778L1420 633.222L1421 633.778L1423 634.778L1424 635.25L1425 635.833L1426 636.389L1428 637.611L1429 638.167L1430 638.75L1432 639.778L1433 640.25L1434 640.833L1435 641.389L1437 642.611L1439 643.806L1440 644.389L1442 645.611L1444 646.806L1445 647.389L1446 648.028L1447 648.667L1449 650L1450 650.667L1452 652L1453 652.667L1455 654L1456 654.667L1458 656L1459 656.667L1461 658L1462 658.694L1463 659.389L1465 660.861L1466 661.639L1467 662.361L1468 663.139L1469 663.861L1471 665.389L1472 666.194L1474 667.806L1475 668.611L1476 669.389L1477 670.194L1479 671.806L1480 672.611L1482 674.222L1484 676L1485 676.917L1487 678.611L1488 679.389L1490 681.083L1491 682.028L1492 683L1494 685L1495 686L1497 688L1501 692L1502 693L1504 695L1508 699L1510 701L1511.97 703L1512.92 704L1514.61 706L1515.39 707L1517.08 709L1518.03 710L1519.92 712L1520.78 713L1521.61 714L1523.19 716L1524.81 718L1525.61 719L1527.14 721L1527.86 722L1528.64 723L1529.39 724L1530.19 725L1531.81 727L1532.58 728L1533.31 729L1534.69 731L1535.39 732L1536.86 734L1537.61 735L1538.31 736L1539 737L1539.67 738L1540.33 739L1541.67 741L1542.33 742L1543.67 744L1544.33 745L1544.97 746L1545.61 747L1546.19 748L1547.39 750L1548.61 752L1549.81 754L1550.39 755L1551.61 757L1552.81 759L1553.39 760L1554.61 762L1555.17 763L1555.75 764L1556.78 766L1557.22 767L1557.78 768L1558.22 769L1558.78 770L1559.22 771L1560.22 773L1560.78 774L1561.22 775L1561.78 776L1562.22 777L1562.78 778L1563.22 779L1563.78 780L1564.22 781L1564.78 782L1565.78 784L1566.22 785L1566.78 786L1567.75 788L1568.17 789L1568.61 790L1569.39 792L1570.25 794L1570.75 795L1571.61 797L1572.39 799L1573.19 801L1573.61 802L1574.39 804L1575.19 806L1575.61 807L1576.33 809L1576.67 810L1577.03 811L1577.39 812L1577.81 813L1578.61 815L1579.33 817L1580 819L1580.67 821L1581 822L1581.67 824L1582 825L1582.67 827L1583 828L1583.31 829L1583.61 830L1584.14 832L1584.39 833L1584.69 834L1585.31 836L1585.61 837L1586.14 839L1586.39 840L1586.69 841L1587.31 843L1587.61 844L1588.14 846L1588.36 847L1588.64 848L1588.86 849L1589.14 850L1589.64 852L1589.86 853L1590.14 854L1590.64 856L1590.86 857L1591.14 858L1591.61 860L1591.81 861L1592.19 863L1592.61 865L1592.81 866L1593.19 868L1593.39 869L1593.61 870L1593.81 871L1594.19 873L1594.39 874L1594.61 875L1594.81 876L1595.19 878L1595.61 880L1595.94 882L1596.06 883L1596.39 885L1596.78 887L1596.92 888L1597.08 890L1597.22 891L1597.61 893L1597.92 895L1597.97 896L1598.08 898L1598.39 900L1598.61 901L1598.92 903L1598.97 904L1599.08 906L1599.22 907L1599.61 909L1599.92 911L1599.97 912L1600 914L1600.03 915L1600.08 916L1600.39 918L1600.61 919L1600.92 921L1600.97 922L1601 924L1601 926L1601 929L1601 930L1601.03 932L1601.08 933L1601.39 935L1601.61 936L1601.92 938L1601.97 939L1602 941L1602 942L1602 946L1602 947L1602 948L1602 949L1602 953L1602 954L1602 955L1602 960L1602 960.944L1602 964L1604.06 964L1605.06 964L1610 964L1611 964L1612 964L1614 964L1617 964L1621 964L1622 964L1623 964L1624 964L1625 964L1630 964L1631 964L1632 964L1636 964L1637 964L1641 964L1642 964L1642.94 964L1646 964L1646 962.5L1646 960.944L1646 960L1646 958L1646 957L1646 953L1646 945L1646 944L1646 942L1646 938L1646 937L1646 935L1645.97 933L1645.92 932L1645.61 930L1645.39 929L1645.08 927L1645.03 926L1645 924L1645 923L1645 920L1645 918L1644.97 916L1644.92 915L1644.61 913L1644.39 912L1644.08 910L1644.03 909L1644 908L1643.97 906L1643.92 905L1643.61 903L1643.22 901L1643.08 900L1642.97 898L1642.92 897L1642.61 895L1642.39 894L1642.08 892L1641.97 890L1641.92 889L1641.61 887L1641.22 885L1641.08 884L1640.92 882L1640.78 881L1640.39 879L1640.06 877L1639.94 876L1639.61 874L1639.39 873L1639.19 872L1638.81 870L1638.61 869L1638.39 868L1638.06 866L1637.94 865L1637.61 863L1637.39 862L1637.19 861L1636.81 859L1636.61 858L1636.39 857L1636.19 856L1635.81 854L1635.61 853L1635.14 851L1634.86 850L1634.64 849L1634.39 848L1634.19 847L1633.81 845L1633.61 844L1633.14 842L1632.86 841L1632.36 839L1632.14 838L1631.61 836L1631.31 835L1630.69 833L1630.39 832L1629.86 830L1629.64 829L1629.36 828L1629.14 827L1628.61 825L1628.31 824L1627.69 822L1627.39 821L1627.14 820L1626.61 818L1626.31 817L1626 816L1625.33 814L1624.67 812L1624.33 811L1623.67 809L1623.33 808L1622.67 806L1622.33 805L1621.67 803L1621.33 802L1620.67 800L1620.33 799L1619.61 797L1618.81 795L1618.39 794L1618.03 793L1617.67 792L1617.33 791L1616.61 789L1616.19 788L1615.39 786L1614.61 784L1614.19 783L1613.39 781L1612.61 779L1612.17 778L1611.75 777L1611.22 776L1610.25 774L1609.83 773L1609.39 772L1608.61 770L1608.17 769L1607.75 768L1606.78 766L1606.22 765L1605.78 764L1604.78 762L1604.22 761L1603.78 760L1603.25 759L1602.36 757L1601.94 756L1600.94 754L1600.36 753L1599.83 752L1599.25 751L1598.22 749L1597.78 748L1597.22 747L1596.22 745L1595.78 744L1594.75 742L1593.61 740L1592.39 738L1591.25 736L1590.75 735L1589.61 733L1588.39 731L1587.19 729L1586.61 728L1585.33 726L1584.67 725L1584.03 724L1583.39 723L1582.19 721L1581.61 720L1580.33 718L1579 716L1577.67 714L1577 713L1575.61 711L1574.86 710L1573.39 708L1572.69 707L1571.31 705L1570.61 704L1569.14 702L1568.36 701L1566.86 699L1566.14 698L1565.36 697L1564.64 696L1563.86 695L1563.14 694L1561.61 692L1560.81 691L1559.19 689L1557.61 687L1555.94 685L1555.06 684L1553.39 682L1551.78 680L1550.92 679L1549 677L1547.08 675L1545.39 673L1544.61 672L1542.92 670L1541.97 669L1541 668L1539 666L1538 665L1534 661L1530 657L1529 656L1527 654L1526 653.028L1525 652.083L1523 650.389L1522 649.611L1520 647.917L1518 646L1516 644.083L1515 643.222L1513 641.611L1512 640.778L1511 639.944L1510 639.056L1508 637.389L1507 636.611L1506 635.806L1504 634.194L1503 633.389L1502 632.611L1501 631.806L1499 630.194L1498 629.389L1497 628.639L1496 627.861L1494 626.389L1493 625.694L1491 624.306L1490 623.611L1488 622.139L1487 621.389L1485 620L1483 618.667L1482 618L1480 616.667L1479 616L1478 615.333L1476 614L1474 612.667L1472 611.389L1471 610.806L1469 609.611L1467 608.333L1466 607.667L1465 607.028L1464 606.389L1462 605.25L1461 604.75L1459 603.611L1457 602.389L1455 601.25L1454 600.75L1452 599.611L1450 598.389L1448 597.25L1446 596.222L1445 595.778L1444 595.222L1443 594.778L1442 594.222L1441 593.778L1440 593.222L1438 592.222L1437 591.778L1436 591.222L1435 590.778L1434 590.222L1433 589.778L1431 588.778L1430 588.25L1428 587.389L1426 586.611L1424 585.75L1423 585.25L1421 584.389L1419 583.611L1417 582.75L1416 582.25L1414 581.389L1412 580.611L1410 579.806L1409 579.389L1407 578.611L1405 577.806L1404 577.389L1402 576.667L1401 576.333L1400 575.972L1399 575.611L1398 575.194L1396 574.389L1394 573.667L1392 573L1391 572.667L1389 572L1388 571.667L1387 571.333L1385 570.667L1383 570L1381 569.389L1380 569.139L1378 568.611L1377 568.306L1376 568L1374 567.333L1373 567L1371 566.389L1369 565.861L1368 565.611L1367 565.306L1365 564.694L1364 564.389L1362 563.861L1361 563.639L1359 563.139L1358 562.861L1357 562.639L1356 562.361L1354 561.861L1353 561.639L1352 561.361L1351 561.139L1350 560.861L1348 560.389L1347 560.194L1345 559.806L1344 559.611L1343 559.361L1342 559.139L1341 558.861L1339 558.389L1338 558.194L1336 557.806L1335 557.611L1334 557.389L1333 557.194L1331 556.806L1330 556.611L1329 556.389L1327 556.056L1326 555.944L1324 555.611L1322 555.222L1320 554.944L1318 554.611L1317 554.389L1315 554.056L1314 553.944L1312 553.611L1310 553.222L1309 553.083L1307 552.917L1306 552.778L1304 552.389L1302 552.083L1301 552.028L1299 551.972L1298 551.917L1296 551.611L1295 551.389L1293 551.083L1292 551.028L1290 551L1289 550.972L1288 550.917L1286 550.611L1285 550.389L1283 550.083L1282 550.028L1280 550L1278 549.972L1277 549.917L1275 549.611L1274 549.389L1272 549.083L1271 549.028L1270 549L1268 549L1267 549L1266 549L1262 549L1261 549L1259 549L1257 548.972L1256 548.917L1254 548.611L1253 548.389L1251 548.083L1250 548.028L1248 548L1246 548L1245 548L1237 548L1236 548L1235 548L1230 548L1226 548L1222 548L1220 548L1218 548.083L1216 548.389L1215 548.611L1213 548.917L1212 548.972L1210 549L1208 549L1204 549L1203 549L1202 549L1201 549L1199 549L1198 549.028L1197 549.083L1195 549.389L1194 549.611L1192 549.917L1191 549.972L1189 550L1187 550L1186 550.028L1185 550.083L1183 550.389L1182 550.611L1180 550.917L1179 550.972L1178 551L1176 551.028L1175 551.083L1173 551.389L1172 551.611L1170 551.917L1169 551.972L1167 552L1166 552.028L1165 552.083L1163 552.389L1162 552.611L1160 552.917L1158 553.028L1157 553.083L1155 553.389L1153 553.778L1152 553.917L1150 554.083L1149 554.222L1147 554.611L1145 554.944L1144 555.056L1142 555.389L1140 555.778L1139 555.917L1137 556.083L1136 556.222L1134 556.611L1132 556.944L1131 557.056L1129 557.389L1128 557.611L1127 557.806L1125 558.194L1124 558.389L1123 558.611L1121 558.944L1120 559.056L1118 559.389L1116 559.806L1114 560.194L1113 560.389L1112 560.611L1111 560.806L1109 561.194L1108 561.389L1107 561.611L1106 561.806L1104 562.194L1103 562.389L1101 562.806L1099 563.194L1098 563.389L1096 563.861L1095 564.139L1093 564.639L1092 564.861L1091 565.139L1089 565.611L1088 565.806L1086 566.194L1085 566.389L1083 566.861L1082 567.139L1081 567.361L1080 567.639L1079 567.861L1078 568.139L1076 568.639L1075 568.861L1074 569.139L1073 569.361L1071 569.861L1070 570.139L1069 570.361L1068 570.639L1067 570.861L1065 571.389L1064 571.694L1062 572.306L1061 572.611L1059 573.139L1058 573.361L1057 573.639L1056 573.861L1054 574.389L1053 574.694L1051 575.306L1050 575.611L1049 575.861L1047 576.389L1046 576.694L1045 577L1043 577.667L1042 578L1040 578.611L1038 579.139L1037 579.389L1035 580L1034 580.333L1032 581L1030 581.667L1029 582L1027 582.667L1026 583L1024 583.667L1023 584L1021 584.611L1019 585.167L1018 585.444L1017 585.833L1016 586.194L1014 586.972L1013 587.333L1011 588L1009 588.667L1007 589.333L1005 590L1004 590.333L1002 591L1001 591.333L1000 591.667L998 592.333L997 592.667L996 593.028L995 593.389L993 594.194L992 594.611L990 595.333L989 595.667L987 596.389L986 596.806L984 597.611L982 598.389L980 599.194L979 599.611L978 599.972L977 600.333L976 600.667L974 601.389L973 601.806L971 602.611L969 603.389L968 603.806L966 604.611L964 605.389L962 606.25L961 606.75L959 607.611L957 608.389L955 609.25L954 609.75L952 610.611L950 611.389L948 612.25L947 612.75L945 613.611L943 614.389L941 615.25L940 615.75L938 616.611L936 617.389L934 618.25L933 618.778L931 619.778L930 620.222L929 620.778L927 621.75L926 622.167L925 622.611L923 623.389L922 623.833L921 624.25L919 625.222L918 625.778L917 626.222L916 626.778L915 627.222L913 628.222L912 628.778L910 629.778L909 630.222L908 630.778L907 631.222L906 631.778L905 632.222L904 632.778L903 633.222L902 633.778L900 634.778L899 635.222L898 635.778L897 636.222L896 636.778L895 637.222L894 637.778L892 638.778L891 639.222L890 639.778L888 640.778L887 641.222L886 641.778L885 642.222L884 642.778L883 643.222L882 643.778L880 644.778L879 645.25L878 645.833L877 646.389L875 647.611L874 648.167L873 648.75L872 649.222L871 649.778L870 650.222L868 651.25L867 651.833L866 652.389L864 653.611L863 654.167L862 654.75L860 655.778L859 656.25L857 657.389L855 658.611L853 659.75L852 660.25L850 661.389L848 662.611L846 663.75L845 664.25L843 665.389L841 666.611L839 667.806L838 668.389L836 669.611L834 670.806L833 671.389L831 672.611L830 673.194L828 674.389L826 675.611L824 676.806L823 677.389L821 678.667L820 679.333L819 679.972L818 680.611L816 681.806L815 682.389L813 683.667L812 684.333L810 685.667L809 686.333L807 687.611L805 688.806L804 689.389L802 690.667L801 691.333L799 692.667L798 693.333L796 694.667L795 695.333L793 696.667L792 697.333L790 698.667L789 699.333L788 700L786 701.333L785 702L784 702.667L783 703.333L781 704.667L780 705.333L779 706L777 707.389L775 708.861L774 709.611L772 711L770 712.333L769 713L767 714.389L765 715.861L764 716.611L763 717.306L761 718.694L760 719.389L758 720.861L757 721.639L756 722.361L754 723.861L753 724.611L752 725.306L750 726.694L749 727.389L747 728.861L746 729.639L745 730.361L743 731.861L742 732.639L741 733.361L739 734.861L738 735.639L737 736.361L736 737.139L735 737.861L733 739.389L732 740.194L730 741.806L729 742.611L728 743.361L727 744.139L726 744.861L724 746.389L723 747.194L721 748.806L719 750.389L718 751.194L716 752.806L715 753.611L714 754.389L713 755.194L711 756.806L710 757.611L709 758.389L708 759.194L706 760.806L704 762.389L702 764.056L701 764.944L699 766.611L698 767.389L696 769.056L695 769.944L693 771.611L691 773.222L690 774.083L688 775.917L687 776.778L685 778.389L684 779.222L683 780.083L681 781.917L680 782.778L678 784.389L676 786.083L675 787.028L673 788.917L671 790.611L670 791.389L668 793.083L667 794.028L665 796L663 797.972L662 798.917L660 800.611L659 801.389L657 803.083L656 804.028L654 806L652 808L651 809L649 810.917L647 812.611L646 813.389L644 815.083L643 816.028L641 818L640 819L639 820L635 824L634 825L633 826L629 830L625 834L624 835L623 836L622 837L621 838L620 839L619 840L617 842L616 843L614 845L613 846L612 847L608 851L607 852L606 853L605 854L601 858L600 859L598.028 861L597.083 862L595.389 864L594.611 865L592.917 867L591 869L589 871L588 872L586.028 874L585.083 875L583.389 877L582.611 878L580.917 880L579.972 881L578 883L576.028 885L575.083 886L573.389 888L572.611 889L570.917 891L569.028 893L568.083 894L566.389 896L564.778 898L563.917 899L562.083 901L561.222 902L559.611 904L557.917 906L556.083 908L555.222 909L553.611 911L551.944 913L551.056 914L549.389 916L548.611 917L547.806 918L546.194 920L545.389 921L544.611 922L542.944 924L542.056 925L540.389 927L539.611 928L538.806 929L537.194 931L536.389 932L535.611 933L534.806 934L533.194 936L532.389 937L530.806 939L529.194 941L528.389 942L527.639 943L526.861 944L526.139 945L524.611 947L523.806 948L522.194 950L521.389 951L519.861 953L519.139 954L518.361 955L517.639 956L516.139 958L515.361 959L513.861 961L513.139 962L512.361 963L511.639 964L510.861 965L509.389 967L508.694 968L507.306 970L506.611 971L505.139 973L504.361 974L503.639 975L502.139 977L501.389 978L500.694 979L499.306 981L498.611 982L497.861 983L496.389 985L495 987L494.333 988L493 990L491.611 992L490.861 993L489.389 995L488 997L487.333 998L486 1000L485.333 1001L482.667 1005L480.667 1008L480 1009L478.667 1011L478 1012L476.667 1014L476 1015L475.333 1016L473.333 1019L472.667 1020L471.389 1022L470.194 1024L469.611 1025L468.972 1026L468.333 1027L467.667 1028L466.333 1030L465.667 1031L464.389 1033L463.194 1035L462.611 1036L461.333 1038L460.667 1039L460.028 1040L459.389 1041L458.806 1042L457.611 1044L456.389 1046L455.194 1048L454.611 1049L453.389 1051L452.194 1053L451.611 1054L450.389 1056L449.806 1057L448.611 1059L447.389 1061L446.25 1063L445.75 1064L444.611 1066L443.389 1068L442.25 1070L441.75 1071L440.611 1073L439.389 1075L438.25 1077L437.778 1078L436.75 1080L436.167 1081L435.611 1082L434.389 1084L433.833 1085L433.25 1086L432.778 1087L431.75 1089L430.611 1091L429.389 1093L428.25 1095L427.778 1096L426.778 1098L426.222 1099L425.778 1100L425.222 1101L424.778 1102L424.222 1103L423.778 1104L423.222 1105L422.778 1106L422.222 1107L421.778 1108L420.778 1110L420.222 1111L419.778 1112L419.222 1113L418.778 1114L418.222 1115L417.778 1116L417.222 1117L416.778 1118L416.222 1119L415.778 1120L415.222 1121L414.778 1122L414.222 1123L413.778 1124L412.778 1126L412.222 1127L411.778 1128L411.222 1129L410.778 1130L410.222 1131L409.778 1132L409.222 1133L408.778 1134L408.222 1135L407.778 1136L407.222 1137L406.778 1138L405.778 1140L405.25 1141L404.833 1142L404.389 1143L403.611 1145L403.167 1146L402.75 1147L402.222 1148L401.778 1149L401.222 1150L400.25 1152L399.833 1153L399.389 1154L398.611 1156L398.167 1157L397.75 1158L396.778 1160L396.25 1161L395.389 1163L394.611 1165L393.75 1167L393.25 1168L392.389 1170L391.611 1172L390.806 1174L390.389 1175L389.611 1177L388.75 1179L388.25 1180L387.389 1182L386.611 1184L385.806 1186L385.389 1187L384.611 1189L383.806 1191L383.389 1192L382.667 1194L382.333 1195L381.972 1196L381.611 1197L381.194 1198L380.389 1200L379.611 1202L378.806 1204L378.389 1205L378.028 1206L377.667 1207L377.333 1208L376.667 1210L376.333 1211L375.611 1213L375.194 1214L374.389 1216L373.667 1218L373 1220L372 1223L371.667 1224L371.333 1225L370.611 1227L369.833 1229L369.444 1230L369.167 1231L368.611 1233L368 1235L367.333 1237L366.333 1240L365.333 1243L363.333 1249L363 1250L362.333 1252L362 1253L361.389 1255L360.861 1257L360.611 1258L360.306 1259L360 1260L359.667 1261L359 1263L358.694 1264L358.389 1265L357.861 1267L357.611 1268L357.306 1269L356.694 1271L356.389 1272L356.139 1273L355.611 1275L355.306 1276L354.694 1278L354.389 1279L353.861 1281L353.639 1282L353.361 1283L353.139 1284L352.639 1286L352.361 1287L352.139 1288L351.861 1289L351.639 1290L351.361 1291L350.861 1293L350.639 1294L350.361 1295L350.139 1296L349.861 1297L349.639 1298L349.139 1300L348.861 1301L348.639 1302L348.361 1303L348.139 1304L347.861 1305L347.389 1307L347.194 1308L346.806 1310L346.611 1311L346.361 1312L346.139 1313L345.861 1314L345.389 1316L345.194 1317L344.806 1319L344.611 1320L344.389 1321L344.194 1322L343.806 1324L343.611 1325L343.389 1326L343.194 1327L342.806 1329L342.611 1330L342.389 1331L342.194 1332L341.806 1334L341.611 1335L341.389 1336L341.194 1337L340.806 1339L340.389 1341L340.056 1343L339.944 1344L339.611 1346L339.222 1348L338.944 1350L338.611 1352L338.389 1353L338.056 1355L337.944 1356L337.611 1358L337.222 1360L337.083 1361L336.917 1363L336.778 1364L336.389 1366L336.083 1368L336.028 1369L335.917 1371L335.611 1373L335.389 1374L335.083 1376L335.028 1377L334.917 1379L334.611 1381L334.389 1382L334.083 1384L334.028 1385L333.917 1387L333.778 1388L333.389 1390L333.083 1392L333.028 1393L333 1395L332.972 1396L332.917 1397L332.611 1399L332.389 1400L332.083 1402L332.028 1403L332 1405L332 1407L332 1408L331.972 1410L331.917 1411L331.611 1413L331.389 1414L331.083 1416L331.028 1417L331 1419L331 1420L331 1421L331 1425L331 1427L330.972 1428L330.917 1429L330.611 1431L330.389 1432L330.083 1434L330.028 1435L330 1437L330 1439L330 1441L330 1442L330 1443L330 1454L330 1455L330 1459L330 1465L330 1468L330.028 1470L330.083 1471L330.389 1473L330.611 1474L330.917 1476L330.972 1477L331 1479L331 1480L331 1485L331 1486L331.028 1488L331.083 1489L331.389 1491L331.611 1492L331.917 1494L331.972 1495L332 1497L332 1499L332 1500L332.028 1501L332.083 1502L332.389 1504L332.611 1505L332.917 1507L332.972 1508L333.028 1510L333.083 1511L333.389 1513L333.611 1514L333.917 1516L334.028 1518L334.083 1519L334.389 1521L334.778 1523L334.917 1524L335.083 1526L335.222 1527L335.611 1529L335.917 1531L336.083 1533L336.222 1534L336.611 1536L336.944 1538L337.056 1539L337.389 1541L337.611 1542L337.806 1543L338.194 1545L338.389 1546L338.611 1547L338.944 1549L339.056 1550L339.389 1552L339.806 1554L340.194 1556L340.389 1557L340.861 1559L341.139 1560L341.361 1561L341.611 1562L341.806 1563L342.194 1565L342.389 1566L342.861 1568L343.139 1569L343.361 1570L343.861 1572L344.139 1573L344.361 1574L344.861 1576L345.139 1577L345.361 1578L345.639 1579L345.861 1580L346.389 1582L346.694 1583L347.306 1585L347.611 1586L348.139 1588L348.389 1589L348.694 1590L349.306 1592L349.611 1593L349.861 1594L350.389 1596L350.694 1597L351.333 1599L351.667 1600L352.667 1603L354.667 1609L355.333 1611L355.667 1612L356.389 1614L356.806 1615L357.611 1617L357.972 1618L358.333 1619L358.667 1620L359.389 1622L359.806 1623L360.611 1625L361.389 1627L362.194 1629L362.611 1630L363.389 1632L364.194 1634L364.611 1635L365.389 1637L366.25 1639L366.778 1640L367.75 1642L368.167 1643L368.611 1644L369.389 1646L369.833 1647L370.25 1648L371.222 1650L371.778 1651L372.222 1652L372.778 1653L373.222 1654L374.222 1656L374.778 1657L375.222 1658L376.222 1660L376.778 1661L377.222 1662L377.778 1663L378.222 1664L379.25 1666L379.833 1667L380.389 1668L381.611 1670L382.75 1672L383.25 1673L384.389 1675L385.611 1677L386.75 1679L387.25 1680L388.389 1682L389.611 1684L390.806 1686L391.389 1687L392.028 1688L392.667 1689L394 1691L398 1697L400.667 1701L402 1703L403.389 1705L404.139 1706L405.611 1708L406.306 1709L407.694 1711L408.389 1712L409.861 1714L410.639 1715L411.389 1716L412.194 1717L413.806 1719L414.611 1720L415.389 1721L416.194 1722L417.806 1724L418.611 1725L419.389 1726L421.056 1728L421.944 1729L422.778 1730L424.389 1732L426.083 1734L427.028 1735L428.917 1737L430.611 1739L431.389 1740L433.083 1742L434.028 1743L435 1744L437 1746L443 1752L448 1757L450 1759L451 1759.97L452 1760.92L454 1762.61L455 1763.39L457 1765.08L458 1766.03L460 1767.97L461 1768.92L463 1770.61L465 1772.22L467 1773.94L469 1775.61L471 1777.19L473 1778.81L474 1779.61L476 1781.14L477 1781.86L478 1782.64L479 1783.36L481 1784.86L482 1785.64L483 1786.36L484 1787.14L486 1788.61L487 1789.31L489 1790.69L490 1791.39L492 1792.86L493 1793.61L495 1795L497 1796.33L499 1797.67L500 1798.33L502 1799.61L504 1800.81L505 1801.39L506 1802.03L507 1802.67L508 1803.33L510 1804.61L511 1805.19L513 1806.39L515 1807.61L517 1808.75L518 1809.25L520 1810.39L522 1811.61L523 1812.17L524 1812.75L525 1813.22L526 1813.78L527 1814.22L529 1815.25L530 1815.83L532 1816.94L533 1817.47L535 1818.53L536 1819.06L538 1820.11L540 1821L541 1821.39L543 1822.25L544 1822.78L545 1823.22L546 1823.78L548 1824.78L549 1825.22L550 1825.78L552 1826.75L553 1827.17L554 1827.61L556 1828.39L558 1829.25L559 1829.75L561 1830.61L563 1831.39L565 1832.19L566 1832.61L568 1833.39L570 1834.19L571 1834.61L573 1835.33L574 1835.67L575 1836.03L576 1836.39L577 1836.81L579 1837.61L581 1838.33L582 1838.67L584 1839.33L587 1840.33L591 1841.67L592 1842L596 1843.33L598 1844L599 1844.31L600 1844.61L602 1845.14L603 1845.39L604 1845.69L606 1846.31L607 1846.61L609 1847.14L610 1847.39L611 1847.69L613 1848.31L614 1848.61L616 1849.14L617 1849.36L618 1849.64L620 1850.14L621 1850.36L622 1850.64L623 1850.86L624 1851.14L626 1851.61L627 1851.81L629 1852.19L630 1852.39L631 1852.64L632 1852.86L633 1853.14L635 1853.61L636 1853.81L638 1854.19L640 1854.61L641 1854.81L643 1855.19L644 1855.39L645 1855.61L646 1855.81L648 1856.19L649 1856.39L650 1856.61L652 1856.94L653 1857.06L655 1857.39L656 1857.61L658 1857.94L659 1858.06L661 1858.39L663 1858.78L664 1858.92L666 1859.08L667 1859.22L669 1859.61L671 1859.92L673 1860.08L675 1860.39L676 1860.61L678 1860.92L679 1860.97L681 1861.03L682 1861.08L684 1861.39L685 1861.61L687 1861.92L688 1861.97L690 1862L692 1862.03L693 1862.08L695 1862.39L696 1862.61L698 1862.92L699 1862.97L701 1863L702 1863L704 1863L706 1863.08L708 1863.39L709 1863.61L711 1863.92L712 1863.97L714 1864L715 1864L718 1864L729 1864L733 1864L735 1864L737 1864.08L738 1864.22L740 1864.58L742 1864.69L744 1864.39L745 1864.22L746 1864.08L748 1864L750 1864L754 1864L759 1864L765 1864L768 1864L769 1864L771 1863.97L772 1863.92L774 1863.61L775 1863.39L777 1863.08L778 1863.03L780 1863L781 1863L783 1863L785 1862.97L786 1862.92L788 1862.61L789 1862.39L791 1862.08L792 1862.03L794 1862L796 1862L797 1861.97L798 1861.92L800 1861.61L801 1861.39L803 1861.08L804 1861.03L805 1861L807 1860.97L808 1860.92L810 1860.61L812 1860.22L813 1860.08L815 1859.97L816 1859.92L817 1859.78L819 1859.39L820 1859.22L821 1859.08L823 1858.92L824 1858.78L826 1858.39L828 1858.08L830 1857.97L831 1857.92L833 1857.61L834 1857.39L836 1857.06L837 1856.94L839 1856.61L840 1856.39L842 1856.06L844 1855.78L846 1855.39L848 1855.06L849 1854.94L851 1854.61L852 1854.39L853 1854.19L855 1853.81L856 1853.61L857 1853.39L859 1853.06L860 1852.94L862 1852.61L863 1852.39L864 1852.19L866 1851.81L867 1851.61L868 1851.39L869 1851.19L871 1850.81L872 1850.61L873 1850.36L874 1850.14L875 1849.86L877 1849.39L878 1849.19L880 1848.81L881 1848.61L883 1848.14L884 1847.86L885 1847.64L886 1847.39L887 1847.19L889 1846.81L890 1846.61L892 1846.14L893 1845.86L894 1845.64L895 1845.36L897 1844.86L898 1844.64L900 1844.14L901 1843.86L902 1843.64L903 1843.36L904 1843.14L905 1842.86L907 1842.36L908 1842.14L910 1841.61L911 1841.31L913 1840.69L914 1840.39L915 1840.14L917 1839.64L918 1839.36L919 1839.14L921 1838.61L922 1838.31L924 1837.69L925 1837.39L927 1836.86L928 1836.61L929 1836.31L931 1835.69L932 1835.39L933 1835.14L935 1834.61L936 1834.31L938 1833.67L939 1833.33L942 1832.33L943 1832L945 1831.39L946 1831.14L948 1830.61L950 1830L951 1829.67L953 1829L955 1828.33L960 1826.67L961 1826.33L965 1825L967 1824.33L969 1823.67L970 1823.33L972 1822.61L974 1821.81L975 1821.39L976 1821.03L977 1820.67L978 1820.33L980 1819.67L981 1819.33L983 1818.61L985 1817.81L986 1817.39L987 1817.03L988 1816.67L989 1816.33L991 1815.61L992 1815.19L994 1814.39L996 1813.61L998 1812.81L999 1812.39L1001 1811.67L1002 1811.33L1003 1810.97L1004 1810.61L1005 1810.19L1007 1809.39L1009 1808.61L1011 1807.75L1012 1807.25L1014 1806.39L1016 1805.61L1018 1804.81L1019 1804.39L1021 1803.61L1023 1802.75L1024 1802.25L1026 1801.39L1028 1800.61L1030 1799.75L1031 1799.25L1033 1798.39L1035 1797.61L1037 1796.75L1038 1796.22L1040 1795.25L1041 1794.83L1042 1794.39L1044 1793.61L1045 1793.17L1046 1792.75L1047 1792.22L1049 1791.22L1050 1790.78L1051 1790.22L1053 1789.25L1054 1788.83L1055 1788.39L1057 1787.61L1058 1787.17L1059 1786.75L1060 1786.22L1062 1785.22L1063 1784.78L1064 1784.22L1065 1783.78L1067 1782.78L1068 1782.22L1069 1781.78L1070 1781.22L1071 1780.78L1073 1779.78L1074 1779.22L1075 1778.78L1077 1777.78L1078 1777.22L1079 1776.78L1080 1776.22L1081 1775.78L1083 1774.78L1084 1774.22L1085 1773.78L1086 1773.22L1087 1772.78L1088 1772.22L1089 1771.78L1090 1771.22L1091 1770.78L1092 1770.22L1094 1769.22L1095 1768.75L1096 1768.17L1097 1767.61L1099 1766.39L1100 1765.83L1101 1765.25L1103 1764.22L1104 1763.78L1105 1763.22L1106 1762.75L1107 1762.17L1108 1761.61L1110 1760.39L1111 1759.83L1112 1759.25L1114 1758.22L1115 1757.75L1117 1756.61L1119 1755.39L1121 1754.25L1122 1753.75L1124 1752.61L1126 1751.39L1128 1750.25L1129 1749.75L1131 1748.61L1133 1747.39L1134 1746.81L1136 1745.61L1138 1744.39L1140 1743.25L1141 1742.75L1143 1741.61L1145 1740.39L1147 1739.19L1148 1738.61L1150 1737.33L1151 1736.67L1153 1735.39L1154 1734.81L1156 1733.61L1158 1732.33L1159 1731.67L1160 1731.03L1161 1730.39L1163 1729.19L1164 1728.61L1166 1727.33L1167 1726.67L1169 1725.39L1170 1724.81L1172 1723.61L1173 1722.97L1174 1722.33L1176 1721L1181 1717.67L1182 1717L1184 1715.67L1185 1715L1190 1711.67L1192 1710.33L1193 1709.67L1194 1709L1196 1707.61L1197 1706.86L1199 1705.39L1200 1704.69L1201 1704L1202 1703.33L1205 1701.33L1207 1700L1208 1699.31L1209 1698.61L1211 1697.14L1212 1696.39L1213 1695.69L1215 1694.31L1216 1693.61L1218 1692.14L1219 1691.36L1220 1690.64L1221 1689.86L1223 1688.39L1224 1687.69L1226 1686.31L1227 1685.61L1229 1684.14L1230 1683.36L1231 1682.64L1232 1681.86L1233 1681.14L1235 1679.64L1236 1678.86L1237 1678.14L1239 1676.61L1240 1675.81L1242 1674.19L1243 1673.39L1245 1671.86L1246 1671.14L1247 1670.36L1249 1668.86L1250 1668.14L1252 1666.61L1253 1665.81L1255 1664.19L1257 1662.61L1258 1661.81L1260 1660.19L1261 1659.39L1262 1658.61L1263 1657.81L1265 1656.19L1266 1655.39L1267 1654.61L1268 1653.81L1270 1652.19L1272 1650.61L1274 1648.94L1275 1648.06L1277 1646.39L1278 1645.61L1280 1643.94L1281 1643.06L1283 1641.39L1284 1640.61L1286 1638.94L1287 1638.06L1289 1636.39L1291 1634.78L1292 1633.92L1294 1632.03L1295 1631.08L1297 1629.39L1298 1628.61L1300 1626.92L1301 1625.97L1303 1624.08L1304 1623.22L1306 1621.61L1308 1619.92L1309 1618.97L1311 1617.03L1312 1616.08L1314 1614.39L1315 1613.61L1317 1611.92L1319 1610L1321 1608L1322 1607L1324 1605.03L1325 1604.08L1327 1602.39L1328 1601.61L1330 1599.92L1331 1598.97L1332 1598L1334 1596L1338 1592L1339 1591L1343 1587L1344 1586L1346 1584L1350 1580L1351 1579L1352 1578L1353 1577L1355 1575L1356 1574L1357 1573L1358 1572L1360 1570L1361 1569L1365 1565L1366 1564L1367 1563L1368 1562L1372 1558L1373 1557L1374 1556L1376 1554L1378 1552L1379 1551L1380.97 1549L1381.92 1548L1383.61 1546L1384.39 1545L1386.08 1543L1387.03 1542L1388 1541L1390 1539L1391.97 1537L1392.92 1536L1394.61 1534L1395.39 1533L1397.08 1531L1398.03 1530L1399 1529L1400.97 1527L1401.92 1526L1403.61 1524L1404.39 1523L1406.08 1521L1407.97 1519L1408.92 1518L1410.61 1516L1411.39 1515L1413.08 1513L1414.03 1512L1415.92 1510L1416.78 1509L1418.39 1507L1420.06 1505L1420.94 1504L1422.61 1502L1423.39 1501L1425.06 1499L1425.94 1498L1427.61 1496L1428.39 1495L1430.06 1493L1430.94 1492L1432.61 1490L1434.19 1488L1435.81 1486L1436.61 1485L1437.39 1484L1438.19 1483L1439.81 1481L1440.61 1480L1441.39 1479L1442.19 1478L1443.81 1476L1444.61 1475L1446.19 1473L1447.81 1471L1448.61 1470L1450.14 1468L1450.86 1467L1452.36 1465L1453.14 1464L1453.86 1463L1454.58 1462.06L1455.75 1460.5L1457 1459M1516 875L1515.75 876.5L1515.39 878.056L1515.08 880L1515.03 881L1515 882L1514.97 884L1514.92 885L1514.61 887L1514.39 888L1514.08 890L1514.03 891L1514 892L1513.97 894L1513.92 895L1513.61 897L1513.39 898L1513.08 900L1513.03 901L1513 903L1512.97 905L1512.92 906L1512.61 908L1512.39 909L1512.08 911L1512.03 912L1512 914L1511.97 915L1511.92 916L1511.61 918L1511.22 920L1511.03 922L1510.97 924L1510.92 925L1510.61 927L1510.39 928L1510.08 930L1510.03 931L1510 933L1509.97 934L1509.92 935L1509.61 937L1509.22 939L1509.03 941L1508.97 943L1508.92 944L1508.61 946L1508.39 947L1508.08 949L1508.03 950L1507.97 952L1507.78 954L1507.39 956L1507.22 957L1507.08 958L1506.92 960L1506.78 961L1506.39 963L1506.08 965L1506.03 966L1505.97 968L1505.92 969L1505.61 971L1505.39 972L1505.08 974L1504.97 976L1504.92 977L1504.61 979L1504.22 981L1504.08 982L1503.92 984L1503.78 985L1503.39 987L1503.08 989L1502.92 991L1502.78 992L1502.39 994L1502.22 995L1502.08 996L1501.92 998L1501.78 999L1501.39 1001L1501.06 1003L1500.94 1004L1500.61 1006L1500.39 1007L1500.06 1009L1499.94 1010L1499.61 1012L1499.39 1013L1499.06 1015L1498.94 1016L1498.61 1018L1498.39 1019L1498.06 1021L1497.94 1022L1497.61 1024L1497.39 1025L1497.19 1026L1496.81 1028L1496.61 1029L1496.39 1030L1496.19 1031L1495.81 1033L1495.61 1034L1495.19 1036L1494.81 1038L1494.61 1039L1494.14 1041L1493.86 1042L1493.64 1043L1493.39 1044L1493.19 1045L1492.81 1047L1492.61 1048L1492.14 1050L1491.86 1051L1491.64 1052L1491.36 1053L1491.14 1054L1490.64 1056L1490.36 1057L1490.14 1058L1489.64 1060L1489.36 1061L1489.14 1062L1488.61 1064L1488.31 1065L1487.69 1067L1487.39 1068L1487.14 1069L1486.61 1071L1486.31 1072L1486 1073L1485.33 1075L1484.67 1077L1484.33 1078L1483.67 1080L1483 1082L1482.33 1084L1482 1085L1481.33 1087L1480.97 1088L1480.61 1089L1480.19 1090L1479.39 1092L1478.61 1094L1478.19 1095L1477.39 1097L1476.61 1099L1476.17 1100L1475.75 1101L1475.22 1102L1474.22 1104L1473.78 1105L1473.22 1106L1472.78 1107L1472.22 1108L1471.78 1109L1471.22 1110L1470.22 1112L1469.75 1113L1469.17 1114L1468.61 1115L1467.39 1117L1466.19 1119L1465.61 1120L1464.33 1122L1463.67 1123L1462.33 1125L1461.67 1126L1460.31 1128L1459.58 1129L1458.81 1130L1457.19 1132L1456.39 1133L1455.61 1134L1453.92 1136L1452.97 1137L1451 1139L1449 1141L1447 1143L1446 1144L1444 1146L1443 1147L1441 1148.92L1439 1150.61L1438 1151.36L1436 1152.86L1435 1153.64L1434 1154.36L1433 1155.14L1431 1156.61L1430 1157.31L1428 1158.61L1427 1159.19L1425 1160.39L1423 1161.61L1422 1162.17L1421 1162.75L1420 1163.22L1418 1164.25L1417 1164.83L1416 1165.39L1415 1166L1413 1167.11L1411 1168L1410 1168.39L1409 1168.83L1408 1169.25L1406 1170.22L1405 1170.75L1404 1171.17L1403 1171.61L1401 1172.39L1399 1173.19L1398 1173.61L1396 1174.39L1394 1175.19L1393 1175.61L1392 1175.97L1391 1176.33L1390 1176.67L1388 1177.33L1387 1177.67L1385 1178.33L1384 1178.67L1382 1179.33L1380 1180L1378 1180.61L1377 1180.86L1375 1181.39L1374 1181.69L1372 1182.31L1371 1182.61L1369 1183.14L1368 1183.36L1367 1183.64L1366 1183.86L1364 1184.36L1363 1184.64L1362 1184.86L1361 1185.14L1360 1185.36L1359 1185.64L1357 1186.14L1356 1186.36L1355 1186.64L1354 1186.86L1353 1187.14L1351 1187.61L1350 1187.81L1348 1188.19L1347 1188.39L1345 1188.86L1344 1189.14L1343 1189.36L1342 1189.61L1340 1189.94L1339 1190.06L1337 1190.39L1335 1190.81L1333 1191.19L1332 1191.39L1331 1191.61L1330 1191.81L1328 1192.19L1327 1192.39L1326 1192.61L1324 1192.94L1323 1193.06L1321 1193.39L1320 1193.61L1318 1193.94L1316 1194.22L1314 1194.61L1312 1194.94L1311 1195.06L1309 1195.39L1307 1195.78L1306 1195.92L1304 1196.08L1303 1196.22L1301 1196.61L1299 1196.92L1297 1197.08L1296 1197.22L1295 1197.39L1293 1197.78L1292 1197.92L1290 1198.08L1289 1198.22L1287 1198.61L1285 1198.92L1283 1199.08L1282 1199.22L1280 1199.61L1278 1199.92L1277 1199.97L1275 1200.08L1273 1200.39L1272 1200.61L1270 1200.92L1269 1200.97L1267 1201.03L1266 1201.08L1264 1201.39L1263 1201.61L1261 1201.92L1260 1201.97L1258 1202.08L1256 1202.39L1255 1202.61L1253 1202.92L1252 1202.97L1250 1203.03L1249 1203.08L1247 1203.39L1246 1203.61L1244 1203.92L1243 1203.97L1241 1204.03L1239 1204.22L1237 1204.61L1235 1204.92L1234 1204.97L1232 1205L1231 1205.03L1230 1205.08L1228 1205.39L1227 1205.61L1225 1205.92L1224 1205.97L1223 1206L1221 1206.03L1220 1206.08L1218 1206.39L1217 1206.61L1215 1206.92L1214 1206.97L1212 1207.03L1211 1207.08L1209 1207.39L1208 1207.61L1206 1207.92L1205 1207.97L1203 1208L1201 1208.03L1200 1208.08L1198 1208.39L1197 1208.61L1195 1208.92L1194 1208.97L1192 1209L1190 1209.03L1189 1209.08L1187 1209.39L1186 1209.61L1184.06 1209.92L1183.06 1209.97L1181 1210L1181 1215L1181 1217L1181 1225L1181 1229L1181 1230L1181 1234L1181 1239L1181 1243L1181 1249L1181 1252.5L1181 1254L1182.5 1254.08L1183.06 1254.22L1184.06 1254.39L1185 1254.61L1187 1254.92L1188 1254.97L1189 1255L1191 1255.03L1192 1255.08L1194 1255.39L1195 1255.61L1197 1255.92L1198 1255.97L1200 1256L1202 1256.03L1203 1256.08L1205 1256.39L1206 1256.61L1208 1256.92L1209 1256.97L1211 1257L1213 1257.03L1214 1257.08L1216 1257.39L1217 1257.61L1219 1257.92L1220 1257.97L1222 1258.03L1223 1258.08L1225 1258.39L1226 1258.61L1228 1258.92L1229 1258.97L1231 1259.03L1232 1259.08L1234 1259.39L1235 1259.61L1237 1259.92L1238 1259.97L1240 1260L1241 1260.03L1242 1260.08L1244 1260.39L1245 1260.61L1247 1260.92L1248 1260.97L1250 1261.03L1251 1261.08L1253 1261.39L1254 1261.61L1256 1261.92L1257 1261.97L1259 1262.08L1260 1262.22L1262 1262.61L1264 1262.92L1265 1262.97L1267 1263.03L1268 1263.08L1270 1263.39L1271 1263.61L1273 1263.92L1275 1264.03L1276 1264.08L1278 1264.39L1280 1264.78L1281 1264.92L1283 1265.08L1284 1265.22L1286 1265.61L1288 1265.92L1290 1266.08L1291 1266.22L1293 1266.61L1294 1266.78L1295 1266.92L1297 1267.08L1298 1267.22L1300 1267.61L1302 1267.92L1303 1267.97L1305 1268.08L1306 1268.22L1308 1268.61L1310 1268.94L1311 1269.06L1313 1269.39L1314 1269.61L1315 1269.81L1317 1270.19L1318 1270.39L1319 1270.61L1321 1270.92L1323 1271.08L1325 1271.39L1327 1271.81L1329 1272.19L1330 1272.39L1331 1272.61L1332 1272.81L1334 1273.19L1335 1273.39L1336 1273.61L1337 1273.81L1339 1274.19L1340 1274.39L1341 1274.61L1342 1274.81L1344 1275.19L1345 1275.39L1346 1275.61L1347 1275.81L1349 1276.19L1350 1276.39L1352 1276.86L1353 1277.14L1354 1277.36L1355 1277.64L1356 1277.86L1357 1278.14L1358 1278.36L1360 1278.86L1361 1279.14L1362 1279.36L1364 1279.86L1365 1280.14L1366 1280.36L1367 1280.64L1368 1280.86L1370 1281.39L1371 1281.69L1373 1282.31L1374 1282.61L1376 1283.14L1377 1283.39L1378 1283.69L1379 1284L1380 1284.33L1382 1285L1383 1285.33L1388 1287L1391 1288L1393 1288.67L1394 1289.03L1395 1289.39L1396 1289.81L1398 1290.61L1400 1291.39L1401 1291.81L1403 1292.61L1405 1293.39L1406 1293.83L1407 1294.25L1408 1294.78L1410 1295.78L1411 1296.22L1412 1296.78L1413 1297.22L1414 1297.78L1415 1298.22L1416 1298.78L1418 1299.78L1419 1300.25L1420 1300.83L1421 1301.39L1423 1302.61L1425 1303.81L1426 1304.39L1427 1305.03L1428 1305.67L1430 1307L1431 1307.69L1432 1308.39L1433 1309.14L1434 1309.86L1436 1311.39L1438 1313L1440 1314.61L1441 1315.39L1443 1317.08L1444 1318.03L1445 1319L1447 1321L1449 1323L1450 1324L1451.97 1326L1452.92 1327L1454.61 1329L1455.39 1330L1456.19 1331L1457.81 1333L1458.61 1334L1459.36 1335L1460.14 1336L1460.86 1337L1461.61 1338L1463 1340L1463.67 1341L1464.97 1343L1465.61 1344L1466.75 1346L1467.25 1347L1468.39 1349L1469.61 1351L1470.17 1352L1470.75 1353L1471.78 1355L1472.22 1356L1472.78 1357L1473.22 1358L1473.78 1359L1474.75 1361L1475.17 1362L1475.61 1363L1476.39 1365L1477.25 1367L1477.75 1368L1478.61 1370L1478.97 1371L1479.33 1372L1479.67 1373L1480.39 1375L1481.19 1377L1481.61 1378L1482.33 1380L1483 1382L1483.33 1383L1483.67 1384L1484 1385L1484.67 1387L1485.33 1389L1485.67 1390L1486 1391L1486.31 1392L1486.61 1393L1486.86 1394L1487.36 1396L1487.64 1397L1487.86 1398L1488.39 1400L1488.69 1401L1489.31 1403L1489.61 1404L1490.14 1406L1490.36 1407L1490.64 1408L1491.14 1410L1491.36 1411L1491.64 1412L1491.86 1413L1492.14 1414L1492.61 1416L1492.81 1417L1493.19 1419L1493.61 1421L1493.81 1422L1494.19 1424L1494.39 1425L1494.81 1427L1495.19 1429L1495.39 1430L1495.86 1432L1496.14 1433L1496.36 1434L1496.61 1435L1496.94 1437L1497.06 1438L1497.39 1440L1497.61 1441L1497.94 1443L1498.06 1444L1498.39 1446L1498.61 1447L1498.81 1448L1499.19 1450L1499.39 1451L1499.61 1452L1499.94 1454L1500.06 1455L1500.39 1457L1500.61 1458L1500.94 1460L1501.06 1461L1501.39 1463L1501.78 1465L1501.92 1466L1501.97 1467L1502.08 1469L1502.22 1470L1502.61 1472L1502.94 1474L1503.06 1475L1503.39 1477L1503.78 1479L1503.92 1480L1504.08 1482L1504.22 1483L1504.61 1485L1504.92 1487L1504.97 1488L1505.08 1490L1505.39 1492L1505.61 1493L1505.92 1495L1505.97 1496L1506.03 1498L1506.08 1499L1506.39 1501L1506.61 1502L1506.92 1504L1507.03 1506L1507.08 1507L1507.39 1509L1507.61 1510L1507.92 1512L1507.97 1513L1508.08 1515L1508.39 1517L1508.61 1518L1508.92 1520L1508.97 1521L1509 1523L1509.03 1524L1509.08 1525L1509.39 1527L1509.61 1528L1509.92 1530L1509.97 1531L1510.03 1533L1510.08 1534L1510.39 1536L1510.61 1537L1510.92 1539L1510.97 1540L1511.03 1542L1511.08 1543L1511.39 1545L1511.61 1546L1511.92 1548L1511.97 1549L1512 1551L1512.03 1552L1512.08 1553L1512.39 1555L1512.61 1556L1512.92 1558L1512.97 1559L1513 1561L1513.03 1563L1513.08 1564L1513.39 1566L1513.61 1567L1513.92 1569L1513.97 1570L1514 1572L1514.03 1573L1514.08 1574L1514.39 1576L1514.61 1577L1514.92 1579L1514.97 1580L1515 1582L1515.03 1583L1515.08 1584L1515.39 1585.94L1515.75 1587.5L1516 1589L1520 1589L1521 1589L1525 1589L1526 1589L1527 1589L1528 1589L1529 1589L1532 1589L1536 1589L1538 1589L1554 1589L1556 1589L1556.94 1589L1557.94 1589L1560 1589L1560 1586.94L1560.03 1585L1560.08 1584L1560.39 1582L1560.61 1581L1560.92 1579L1560.97 1578L1561 1576L1561 1574L1561.03 1573L1561.08 1572L1561.39 1570L1561.78 1568L1561.97 1566L1562.03 1564L1562.08 1563L1562.39 1561L1562.61 1560L1562.92 1558L1562.97 1557L1563 1555L1563.03 1554L1563.08 1553L1563.39 1551L1563.61 1550L1563.92 1548L1563.97 1547L1564 1545L1564.03 1544L1564.08 1543L1564.39 1541L1564.61 1540L1564.92 1538L1564.97 1537L1565 1535L1565.03 1534L1565.08 1533L1565.39 1531L1565.61 1530L1565.92 1528L1565.97 1527L1566.03 1525L1566.08 1524L1566.39 1522L1566.61 1521L1566.92 1519L1566.97 1518L1567.08 1516L1567.39 1514L1567.61 1513L1567.92 1511L1567.97 1510L1568 1509L1568.03 1507L1568.08 1506L1568.39 1504L1568.78 1502L1568.92 1501L1569.08 1499L1569.22 1498L1569.61 1496L1569.92 1494L1570.03 1492L1570.08 1491L1570.39 1489L1570.78 1487L1570.92 1486L1571.08 1484L1571.22 1483L1571.39 1482L1571.78 1480L1571.92 1479L1571.97 1478L1572.08 1476L1572.22 1475L1572.39 1474L1572.78 1472L1572.92 1471L1573.08 1469L1573.22 1468L1573.61 1466L1573.94 1464L1574.06 1463L1574.39 1461L1574.61 1460L1574.94 1458L1575.06 1457L1575.39 1455L1575.61 1454L1575.94 1452L1576.06 1451L1576.39 1449L1576.61 1448L1576.78 1447L1577.06 1445L1577.39 1443L1577.81 1441L1578.19 1439L1578.39 1438L1578.61 1437L1578.81 1436L1579.19 1434L1579.39 1433L1579.61 1432L1579.94 1430L1580.06 1429L1580.39 1427L1580.64 1426L1581.14 1424L1581.64 1422L1581.86 1421L1582.14 1420L1582.61 1418L1582.81 1417L1583.19 1415L1583.39 1414L1583.86 1412L1584.14 1411L1584.36 1410L1584.64 1409L1584.86 1408L1585.36 1406L1585.64 1405L1586.14 1403L1586.36 1402L1586.64 1401L1586.86 1400L1587.39 1398L1587.69 1397L1588 1396L1588.67 1394L1589 1393L1589.31 1392L1589.61 1391L1589.86 1390L1590.39 1388L1591 1386L1591.67 1384L1592.03 1383L1592.39 1382L1592.81 1381L1593.61 1379L1593.97 1378L1594.67 1376L1595.03 1375L1595.39 1374L1595.81 1373L1596.61 1371L1597.39 1369L1597.81 1368L1598.61 1366L1599.39 1364L1599.83 1363L1600.25 1362L1600.78 1361L1601.78 1359L1602.22 1358L1602.78 1357L1603.22 1356L1603.78 1355L1604.78 1353L1605.25 1352L1605.83 1351L1606.39 1350L1607.61 1348L1608.81 1346L1609.39 1345L1610.67 1343L1611.33 1342L1612.67 1340L1614 1338L1614.69 1337L1615.39 1336L1616.14 1335L1616.86 1334L1618.39 1332L1620.06 1330L1620.94 1329L1622.61 1327L1623.39 1326L1625.08 1324L1626.03 1323L1628 1321L1630 1319.08L1632 1317.39L1633 1316.61L1635 1314.94L1636 1314.06L1638 1312.39L1640 1310.86L1641 1310.14L1642 1309.39L1644 1308L1645 1307.33L1647 1306L1649 1304.67L1650 1304.03L1651 1303.39L1653 1302.25L1654 1301.78L1655 1301.22L1656 1300.75L1657 1300.17L1658 1299.61L1660 1298.39L1662 1297.25L1663 1296.78L1664 1296.25L1665 1295.83L1666 1295.39L1668 1294.61L1670 1293.75L1671 1293.25L1673 1292.39L1675 1291.61L1677 1290.81L1678 1290.39L1680 1289.61L1682 1288.81L1683 1288.39L1684 1288.03L1685 1287.67L1686 1287.33L1688 1286.67L1690 1286L1691 1285.67L1693 1285L1695 1284.39L1697 1283.86L1698 1283.61L1699 1283.31L1701 1282.69L1702 1282.39L1703 1282.14L1705 1281.61L1706 1281.31L1708 1280.69L1709 1280.39L1711 1279.86L1712 1279.64L1714 1279.14L1715 1278.86L1717 1278.39L1718 1278.19L1720 1277.81L1721 1277.61L1723 1277.14L1724 1276.86L1726 1276.36L1727 1276.14L1728 1275.86L1730 1275.39L1731 1275.19L1733 1274.81L1735 1274.39L1736 1274.19L1738 1273.81L1739 1273.61L1740 1273.39L1741 1273.19L1743 1272.81L1744 1272.61L1745 1272.39L1747 1272.06L1748 1271.94L1750 1271.61L1752 1271.22L1754 1270.94L1756 1270.61L1757 1270.39L1759 1270.06L1760 1269.94L1762 1269.61L1763 1269.39L1765 1269.06L1766 1268.94L1767 1268.78L1769 1268.39L1770 1268.22L1771 1268.08L1773 1267.92L1774 1267.78L1775 1267.61L1777 1267.22L1778 1267.08L1780 1266.92L1782 1266.61L1784 1266.22L1785 1266.08L1787 1265.92L1789 1265.61L1791 1265.22L1792 1265.08L1794 1264.92L1796 1264.61L1797 1264.39L1799 1264.08L1800 1264.03L1802 1263.97L1803 1263.92L1805 1263.61L1807 1263.22L1808 1263.08L1810 1262.97L1811 1262.92L1813 1262.61L1814 1262.39L1816 1262.08L1818 1261.97L1819 1261.92L1821 1261.61L1822 1261.39L1824 1261.08L1825 1261.03L1827 1260.97L1828 1260.92L1830 1260.61L1831 1260.39L1833 1260.08L1834 1260.03L1835 1260L1837 1259.97L1838 1259.92L1840 1259.61L1842 1259.22L1844 1259.03L1846 1258.97L1847 1258.92L1849 1258.61L1850 1258.39L1852 1258.08L1853 1258.03L1854 1258L1856 1257.97L1857 1257.92L1859 1257.61L1860 1257.39L1862 1257.08L1863 1257.03L1865 1257L1866 1256.97L1867 1256.92L1869 1256.61L1870 1256.39L1872 1256.08L1873 1256.03L1875 1256L1877 1255.97L1878 1255.92L1880 1255.61L1881 1255.39L1883 1255.08L1884 1255.03L1886 1255L1888 1254.97L1889 1254.92L1890.94 1254.61L1892.5 1254.25L1894 1254L1894 1250L1894 1249L1894 1245L1894 1242L1894 1240L1894 1239L1894 1235L1894 1233L1894 1232L1894 1231L1894 1227L1894 1223L1894 1221L1894 1217L1894 1215L1894 1214L1894 1210L1892.5 1209.97L1890.94 1209.78L1889 1209.39L1887 1209.08L1886 1209.03L1885 1209L1883 1209L1881 1208.97L1880 1208.92L1878 1208.61L1877 1208.39L1875 1208.08L1874 1208.03L1873 1208L1871 1207.97L1870 1207.92L1868 1207.61L1867 1207.39L1865 1207.08L1864 1207.03L1863 1207L1861 1206.97L1860 1206.92L1858 1206.61L1857 1206.39L1855 1206.08L1854 1206.03L1852 1205.97L1851 1205.92L1849 1205.61L1848 1205.39L1846 1205.08L1845 1205.03L1843 1205L1841 1204.97L1840 1204.92L1838 1204.61L1837 1204.39L1835 1204.08L1834 1204.03L1832 1203.97L1831 1203.92L1829 1203.61L1828 1203.39L1826 1203.08L1825 1203.03L1823 1202.92L1822 1202.78L1820 1202.39L1818 1202.08L1817 1202.03L1815 1201.97L1814 1201.92L1812 1201.61L1811 1201.39L1809 1201.08L1808 1201.03L1806 1200.97L1805 1200.92L1803 1200.61L1801 1200.22L1800 1200.08L1798 1199.92L1796 1199.61L1794 1199.22L1793 1199.08L1791 1198.92L1790 1198.78L1788 1198.39L1786 1198.08L1784 1197.97L1783 1197.92L1781 1197.61L1779 1197.22L1778 1197.08L1776 1196.92L1775 1196.78L1773 1196.39L1771 1196.06L1770 1195.94L1768 1195.61L1767 1195.39L1765 1195.06L1764 1194.94L1763 1194.78L1762 1194.61L1760 1194.22L1759 1194.08L1757 1193.92L1756 1193.78L1754 1193.39L1753 1193.19L1751 1192.81L1750 1192.61L1749 1192.39L1747 1192.06L1746 1191.94L1744 1191.61L1743 1191.39L1742 1191.19L1740 1190.81L1739 1190.61L1738 1190.39L1737 1190.19L1735 1189.81L1734 1189.61L1732 1189.19L1730 1188.81L1729 1188.61L1728 1188.36L1727 1188.14L1726 1187.86L1724 1187.39L1723 1187.19L1721 1186.81L1720 1186.61L1718 1186.14L1717 1185.86L1715 1185.36L1714 1185.14L1712 1184.61L1711 1184.31L1709 1183.69L1708 1183.39L1706 1182.86L1705 1182.64L1704 1182.36L1702 1181.86L1701 1181.61L1700 1181.31L1699 1181L1698 1180.67L1697 1180.33L1695 1179.67L1693 1179L1691 1178.39L1689 1177.83L1688 1177.56L1686 1176.81L1685 1176.39L1683 1175.67L1682 1175.33L1680 1174.61L1679 1174.19L1677 1173.39L1675 1172.61L1673 1171.81L1672 1171.39L1670 1170.61L1669 1170.17L1668 1169.75L1667 1169.22L1665 1168.22L1664 1167.78L1663 1167.22L1662 1166.78L1661 1166.22L1660 1165.78L1659 1165.22L1657 1164.22L1656 1163.75L1655 1163.17L1654 1162.61L1652 1161.39L1650 1160.19L1649 1159.61L1648 1158.97L1647 1158.33L1645 1157L1644 1156.31L1643 1155.61L1642 1154.86L1640 1153.36L1639 1152.61L1638 1151.78L1637 1150.94L1635 1149.22L1633 1147.61L1631 1145.92L1630 1144.97L1629 1144L1627 1142L1625 1140L1624.03 1139L1623.08 1138L1621.39 1136L1620.61 1135L1619 1133L1617.39 1131L1615.86 1129L1615.14 1128L1614.39 1127L1613.69 1126L1613 1125L1611.67 1123L1611.03 1122L1610.39 1121L1609.81 1120L1608.61 1118L1607.39 1116L1606.83 1115L1606.25 1114L1605.78 1113L1604.78 1111L1604.22 1110L1603.78 1109L1603.22 1108L1602.78 1107L1602.22 1106L1601.78 1105L1601.22 1104L1600.78 1103L1599.78 1101L1599.25 1100L1598.83 1099L1598.39 1098L1597.61 1096L1596.81 1094L1596.39 1093L1596.03 1092L1595.67 1091L1595.33 1090L1594.61 1088L1593.81 1086L1593.39 1085L1592.67 1083L1592 1081L1591.33 1079L1591 1078L1590.39 1076L1589.86 1074L1589.61 1073L1589.31 1072L1589 1071L1588.67 1070L1588 1068L1587.69 1067L1587.39 1066L1586.86 1064L1586.64 1063L1586.36 1062L1586.14 1061L1585.64 1059L1585.14 1057L1584.86 1056L1584.36 1054L1584.14 1053L1583.86 1052L1583.64 1051L1583.36 1050L1583.14 1049L1582.86 1048L1582.39 1046L1582.19 1045L1581.81 1043L1581.61 1042L1581.14 1040L1580.86 1039L1580.64 1038L1580.39 1037L1580.19 1036L1579.81 1034L1579.39 1032L1579.06 1030L1578.94 1029L1578.61 1027L1578.19 1025L1577.81 1023L1577.61 1022L1577.39 1021L1577.19 1020L1576.81 1018L1576.61 1017L1576.39 1016L1576.06 1014L1575.78 1012L1575.39 1010L1575.08 1008L1574.92 1006L1574.78 1005L1574.39 1003L1574.06 1001L1573.94 1000L1573.61 998L1573.22 996L1573.08 995L1572.92 993L1572.61 991L1572.22 989L1572.08 988L1571.92 986L1571.78 985L1571.39 983L1571.08 981L1571.03 980L1570.92 978L1570.61 976L1570.22 974L1570.08 973L1569.92 971L1569.78 970L1569.61 969L1569.22 967L1569.08 966L1568.97 964L1568.92 963L1568.78 962L1568.39 960L1568.08 958L1568.03 957L1568 956L1567.97 954L1567.92 953L1567.61 951L1567.39 950L1567.08 948L1566.97 946L1566.92 945L1566.61 943L1566.39 942L1566.08 940L1566.03 939L1565.97 937L1565.92 936L1565.61 934L1565.39 933L1565.08 931L1565.03 930L1565 929L1564.97 927L1564.92 926L1564.61 924L1564.39 923L1564.08 921L1564.03 920L1564 919L1563.97 917L1563.92 916L1563.61 914L1563.39 913L1563.08 911L1563.03 910L1562.97 908L1562.78 906L1562.39 904L1562.08 902L1562.03 901L1562 900L1561.97 898L1561.92 897L1561.61 895L1561.39 894L1561.08 892L1561.03 891L1561 890L1561 888L1560.97 886L1560.92 885L1560.61 883L1560.39 882L1560.08 880L1560.03 879.056L1560 878.056L1560 876L1559 875L1557.5 875L1555.94 875L1554 875L1552 875L1536 875L1535 875L1531 875L1527 875L1523 875L1522 875L1520 875L1519.06 875L1518.06 875L1516 875z"/>
<path style="fill:#ffffff; stroke:none;" d="M1537 1051L1536.92 1052.5L1536.78 1053.06L1536.61 1054.06L1536.14 1056L1535.86 1057L1535.64 1058L1535.39 1059L1535.19 1060L1534.81 1062L1534.61 1063L1534.14 1065L1533.61 1067L1533.31 1068L1532.69 1070L1532.39 1071L1531.86 1073L1531.64 1074L1531.36 1075L1531.14 1076L1530.61 1078L1530.31 1079L1529.69 1081L1529.39 1082L1528.86 1084L1528.61 1085L1528 1087L1527.67 1088L1527 1090L1526.67 1091L1526.33 1092L1525.67 1094L1525.33 1095L1524.67 1097L1524.33 1098L1524 1099L1523.33 1101L1522.61 1103L1522.19 1104L1521.39 1106L1520.67 1108L1520.33 1109L1519.97 1110L1519.61 1111L1518.75 1113L1518.25 1114L1517.39 1116L1516.61 1118L1515.75 1120L1514.78 1122L1514.22 1123L1513.78 1124L1513.22 1125L1512.78 1126L1511.78 1128L1511.22 1129L1510.78 1130L1510.22 1131L1509.78 1132L1509.22 1133L1508.22 1135L1507.75 1136L1507.17 1137L1506.61 1138L1505.39 1140L1504.19 1142L1503.61 1143L1502.33 1145L1501 1147L1499.67 1149L1499 1150L1497.61 1152L1496.86 1153L1495.36 1155L1494.64 1156L1493.86 1157L1493.14 1158L1491.61 1160L1490.78 1161L1489.94 1162L1488.22 1164L1486.61 1166L1484.92 1168L1483.97 1169L1482 1171L1481 1172L1478 1175L1476 1177L1474 1178.97L1473 1179.92L1471 1181.61L1470 1182.39L1469 1183.19L1467 1184.81L1466 1185.61L1465 1186.39L1463 1188L1461 1189.58L1459 1191L1457 1192.33L1455 1193.67L1452 1195.67L1451 1196.33L1450 1196.97L1449 1197.61L1448 1198.19L1446 1199.39L1444 1200.61L1442 1201.75L1441 1202.25L1439 1203.39L1437 1204.61L1435 1205.75L1434 1206.22L1433 1206.78L1432 1207.22L1431 1207.75L1429 1208.61L1427 1209.39L1426 1209.83L1425 1210.25L1423 1211.22L1422 1211.75L1421 1212.17L1420 1212.61L1418 1213.39L1416 1214.19L1415 1214.61L1413 1215.39L1411 1216.19L1410 1216.61L1409 1216.97L1408 1217.33L1406 1218L1404 1218.67L1402 1219.33L1400 1220L1397 1221L1396 1221.33L1394 1222L1393 1222.31L1392 1222.61L1390 1223.14L1389 1223.39L1388 1223.69L1386 1224.31L1385 1224.61L1384 1224.86L1382 1225.39L1381 1225.69L1379 1226.31L1378 1226.61L1376 1227.14L1375 1227.36L1374 1227.64L1373 1227.86L1372 1228.14L1370 1228.64L1369 1228.86L1368 1229.14L1366 1229.61L1365 1229.81L1363 1230.19L1361 1230.61L1360.06 1230.78L1358.5 1230.97L1357 1231L1357 1233L1358.5 1233.08L1359.06 1233.22L1361 1233.61L1362 1233.81L1364 1234.19L1365 1234.39L1367 1234.86L1368 1235.14L1369 1235.36L1371 1235.86L1372 1236.14L1373 1236.36L1375 1236.86L1376 1237.14L1377 1237.36L1378 1237.64L1379 1237.86L1381 1238.39L1382 1238.69L1384 1239.31L1385 1239.61L1387 1240.14L1388 1240.39L1389 1240.69L1390 1241L1392 1241.67L1393 1242L1396 1243L1397 1243.33L1398 1243.67L1399 1244L1401 1244.67L1403 1245.33L1404 1245.67L1406 1246.33L1407 1246.67L1409 1247.39L1410 1247.81L1412 1248.61L1414 1249.33L1415 1249.67L1416 1250.03L1417 1250.39L1419 1251.25L1420 1251.75L1422 1252.61L1424 1253.39L1426 1254.25L1427 1254.78L1429 1255.78L1430 1256.22L1431 1256.78L1432 1257.22L1433 1257.78L1434 1258.22L1435 1258.78L1436 1259.22L1437 1259.78L1439 1260.78L1440 1261.25L1441 1261.83L1442 1262.39L1444 1263.61L1445 1264.19L1447 1265.39L1449 1266.61L1451 1267.81L1452 1268.39L1453 1269.03L1454 1269.67L1456 1271L1457 1271.69L1458 1272.39L1459 1273.14L1460 1273.86L1462 1275.39L1463 1276.19L1465 1277.81L1467 1279.39L1469 1281.06L1470 1281.94L1472 1283.61L1473 1284.39L1475 1286.08L1476 1287.03L1477 1288L1479 1290L1481 1292L1482.97 1294L1483.92 1295L1485.61 1297L1486.39 1298L1488.06 1300L1488.94 1301L1490.61 1303L1492.19 1305L1493.81 1307L1494.58 1308L1496 1310L1497.39 1312L1498.14 1313L1499.56 1315L1500.81 1317L1501.39 1318L1502.67 1320L1503.97 1322L1504.61 1323L1505.75 1325L1506.25 1326L1507.39 1328L1508.61 1330L1509.17 1331L1509.75 1332L1510.78 1334L1511.22 1335L1511.78 1336L1512.22 1337L1512.78 1338L1513.22 1339L1514.22 1341L1514.75 1342L1515.17 1343L1515.61 1344L1516.39 1346L1517.25 1348L1517.75 1349L1518.61 1351L1519.39 1353L1520.19 1355L1520.61 1356L1521.39 1358L1522.19 1360L1522.61 1361L1522.97 1362L1523.33 1363L1524 1365L1524.33 1366L1524.67 1367L1525 1368L1525.67 1370L1526.33 1372L1526.67 1373L1527.33 1375L1528 1377L1528.61 1379L1528.86 1380L1529.39 1382L1529.69 1383L1530.31 1385L1530.61 1386L1531.14 1388L1531.36 1389L1531.64 1390L1531.86 1391L1532.14 1392L1532.36 1393L1532.86 1395L1533.14 1396L1533.36 1397L1533.64 1398L1533.86 1399L1534.14 1400L1534.36 1401L1534.64 1402L1535.14 1404L1535.36 1405L1535.64 1406L1535.86 1407L1536.14 1408L1536.61 1409.94L1536.78 1410.94L1536.92 1411.5L1537 1413L1537.97 1412.22L1538.14 1411.69L1538.58 1410.89L1538.83 1409.97L1539.14 1409L1539.61 1407L1539.81 1406L1540.19 1404L1540.39 1403L1540.86 1401L1541.14 1400L1541.36 1399L1541.64 1398L1542.14 1396L1542.36 1395L1542.64 1394L1542.86 1393L1543.39 1391L1543.69 1390L1544.31 1388L1544.61 1387L1544.86 1386L1545.39 1384L1546 1382L1546.33 1381L1547 1379L1547.31 1378L1547.61 1377L1548.14 1375L1548.39 1374L1549 1372L1549.33 1371L1550 1369L1550.67 1367L1551.39 1365L1551.81 1364L1552.61 1362L1553.33 1360L1553.67 1359L1554.03 1358L1554.39 1357L1554.81 1356L1555.61 1354L1556.39 1352L1557.25 1350L1557.75 1349L1558.61 1347L1559.39 1345L1560.25 1343L1560.78 1342L1561.22 1341L1561.78 1340L1562.78 1338L1563.22 1337L1563.78 1336L1564.22 1335L1564.78 1334L1565.22 1333L1565.78 1332L1566.78 1330L1567.25 1329L1567.83 1328L1568.39 1327L1569.61 1325L1570.81 1323L1571.39 1322L1572.67 1320L1573.33 1319L1574.67 1317L1575.33 1316L1576.67 1314L1577.33 1313L1578 1312L1578.69 1311L1579.39 1310L1580.14 1309L1580.86 1308L1582.39 1306L1583.19 1305L1584.81 1303L1585.61 1302L1586.39 1301L1588.08 1299L1589.03 1298L1591 1296L1593 1294L1596 1291L1599 1288L1601 1286L1603 1284.03L1604 1283.08L1606 1281.39L1607 1280.61L1608 1279.81L1610 1278.19L1611 1277.39L1613 1275.86L1614 1275.14L1615 1274.36L1616 1273.64L1618 1272.14L1619 1271.39L1620 1270.69L1622 1269.33L1624 1268.03L1625 1267.39L1626 1266.81L1628 1265.61L1630 1264.39L1632 1263.25L1633 1262.75L1635 1261.61L1637 1260.39L1639 1259.25L1641 1258.22L1642 1257.78L1643 1257.22L1645 1256.25L1646 1255.83L1647 1255.39L1649 1254.61L1650 1254.17L1651 1253.75L1653 1252.78L1654 1252.25L1656 1251.39L1658 1250.61L1660 1249.81L1661 1249.39L1663 1248.67L1664 1248.33L1665 1247.97L1666 1247.61L1668 1246.81L1669 1246.39L1671 1245.67L1673 1245L1675 1244.33L1677 1243.67L1680 1242.67L1682 1242L1684 1241.39L1685 1241.14L1687 1240.61L1688 1240.31L1690 1239.69L1691 1239.39L1693 1238.86L1694 1238.64L1695 1238.36L1696 1238.14L1697 1237.86L1698 1237.64L1699 1237.36L1700 1237.14L1702 1236.64L1703 1236.36L1704 1236.14L1705 1235.86L1707 1235.36L1709 1234.86L1710 1234.64L1711 1234.36L1712 1234.14L1713 1233.86L1715 1233.39L1716.94 1233.08L1719 1233L1718.22 1231.86L1717.69 1231.67L1716.89 1231.25L1715 1230.81L1714 1230.61L1712 1230.14L1711 1229.86L1709 1229.36L1707 1228.86L1706 1228.64L1705 1228.36L1704 1228.14L1703 1227.86L1701 1227.36L1700 1227.14L1699 1226.86L1698 1226.64L1697 1226.36L1696 1226.14L1694 1225.61L1693 1225.31L1691 1224.69L1690 1224.39L1689 1224.14L1687 1223.61L1686 1223.31L1685 1223L1683 1222.33L1682 1222L1681 1221.69L1680 1221.39L1678 1220.86L1677 1220.61L1676 1220.31L1675 1220L1673 1219.33L1671 1218.61L1669 1217.81L1668 1217.39L1666 1216.67L1665 1216.33L1663 1215.61L1662 1215.19L1660 1214.39L1658 1213.61L1656 1212.81L1655 1212.39L1653 1211.61L1652 1211.17L1651 1210.75L1650 1210.22L1648 1209.22L1647 1208.78L1646 1208.22L1645 1207.78L1644 1207.22L1643 1206.78L1641 1205.78L1640 1205.22L1639 1204.78L1638 1204.22L1637 1203.78L1635 1202.75L1634 1202.17L1633 1201.61L1631 1200.39L1629 1199.19L1628 1198.61L1626 1197.33L1625 1196.67L1623 1195.39L1621 1194.17L1620 1193.56L1618 1192.14L1617 1191.36L1615 1189.86L1614 1189.14L1613 1188.36L1612 1187.64L1611 1186.86L1609 1185.36L1608 1184.61L1606 1182.92L1604 1181L1602 1179.08L1600 1177.39L1599 1176.61L1597 1174.92L1596 1173.97L1594.08 1172L1592.39 1170L1591.61 1169L1589.92 1167L1588.03 1165L1587.08 1164L1585.39 1162L1583.81 1160L1583 1159L1581.42 1157L1580 1155L1579.31 1154L1578.61 1153L1577.86 1152L1576.39 1150L1575.03 1148L1573.81 1146L1572.61 1144L1571.39 1142L1570.81 1141L1569.61 1139L1568.39 1137L1567.83 1136L1567.25 1135L1566.78 1134L1565.78 1132L1565.22 1131L1564.78 1130L1564.22 1129L1563.78 1128L1563.22 1127L1562.22 1125L1561.78 1124L1561.22 1123L1560.78 1122L1560.22 1121L1559.25 1119L1558.83 1118L1558.39 1117L1557.61 1115L1557.19 1114L1556.39 1112L1555.61 1110L1555.19 1109L1554.39 1107L1553.61 1105L1552.81 1103L1552.39 1102L1552.03 1101L1551.67 1100L1551.33 1099L1550.67 1097L1550.33 1096L1549.67 1094L1549 1092L1548.67 1091L1548 1089L1547.69 1088L1547.39 1087L1546.86 1085L1546.61 1084L1546.31 1083L1545.69 1081L1545.39 1080L1544.86 1078L1544.61 1077L1544.31 1076L1543.69 1074L1543.39 1073L1542.86 1071L1542.64 1070L1542.36 1069L1542.14 1068L1541.86 1067L1541.36 1065L1541.14 1064L1540.86 1063L1540.64 1062L1540.14 1060L1539.86 1059L1539.39 1057L1539 1055L1538.78 1054.03L1538.56 1053.11L1538.14 1052.31L1537.97 1051.78L1537 1051z"/>
</svg>
