<?xml version="1.0" encoding="utf-8"?>
<!-- Generator: Adobe Illustrator 26.0.3, SVG Export Plug-In . SVG Version: 6.00 Build 0)  -->
<svg version="1.1" id="Layer_1" xmlns="http://www.w3.org/2000/svg" xmlns:xlink="http://www.w3.org/1999/xlink" x="0px" y="0px"
	 viewBox="0 0 3000 3000" enable-background="new 0 0 3000 3000" xml:space="preserve">
<path fill="none" stroke="#000000" stroke-width="74.8573" stroke-miterlimit="10" d="M2183.5,1873.4
	c-50.7,66.6-107.2,131.6-169.4,193.8c-62.2,62.2-127.1,118.7-193.8,169.4c-66.6,50.7-135,95.5-204,134.2
	c-69.1,38.7-138.8,71.4-208.3,97.8s-138.6,46.6-206.5,60.2c-67.9,13.7-134.4,20.9-198.7,21.4c-64.2,0.5-126.2-5.6-184.8-18.7
	c-58.6-13-113.9-32.9-164.9-59.9c-51-27-97.7-61-139-102.4c-41.3-41.3-75.4-88-102.4-139c-27-51-46.9-106.3-59.9-164.9
	c-13-58.6-19.2-120.6-18.7-184.8c0.5-64.2,7.7-130.8,21.4-198.7c13.7-67.9,33.8-137,60.2-206.5c26.4-69.5,59.1-139.2,97.8-208.3
	c38.7-69.1,83.6-137.4,134.2-204c50.7-66.6,107.2-131.6,169.4-193.8c62.2-62.2,127.1-118.7,193.8-169.4s135-95.5,204-134.2
	c69.1-38.7,138.8-71.4,208.3-97.8c69.5-26.4,138.6-46.5,206.5-60.2c67.9-13.7,134.4-20.9,198.7-21.4c64.2-0.5,126.2,5.6,184.8,18.7
	c58.6,13,113.9,32.9,164.9,59.9c51,27,97.7,61,139,102.4c41.3,41.3,75.4,88,102.4,139c27,51,46.9,106.3,59.9,164.9
	c13,58.6,19.2,120.6,18.7,184.8 M2349.9,2115.4c47.6-517.1,86.2-555.6,603.2-603.2c-517.1-47.6-555.6-86.2-603.2-603.2
	c-47.6,517.1-86.2,555.6-603.2,603.2C2263.7,1559.8,2302.3,1598.3,2349.9,2115.4z"/>
</svg>
